<svg xmlns="http://www.w3.org/2000/svg">
<defs>
<font id="fontsocialmedia" horiz-adv-x="2000" >
  <font-face 
    font-family="font social media"
    font-weight="400"
    font-stretch="normal"
    units-per-em="2048"
    panose-1="2 0 5 0 0 0 0 0 0 0"
    ascent="1638"
    descent="-410"
    x-height="1626"
    cap-height="1626"
    bbox="21 -334 1982 1626"
    underline-thickness="150"
    underline-position="-442"
    unicode-range="U+001D-F002"
  />
<missing-glyph 
d="M1154 957l-53 171l142 111h-179l-60 173l-55 -173h-181l143 -105l-53 -177l146 105zM1038 1239h-62l28 92zM921 1155l-79 59h97zM1004 1095l-60 43l23 76h75l27 -74zM1090 1155l-17 59h95zM904 1020l33 93l44 -35zM1106 1020l-77 58l48 35zM1735 -334h-1469
q-101 0 -173 72t-72 174v1469q0 101 72 173t173 72h1469q102 0 174 -72t72 -173v-1469q0 -102 -72 -174t-174 -72zM401 518v0q0 8 4 12q5 4 10 4q4 0 7 -2t5 -6q1 -2 1 -8h-27zM401 515v0h40q0 11 -6 17q-6 7 -16 7q-12 0 -20 -9q-8 -8 -8 -23q0 -14 8 -23q8 -8 18 -8t16 7
q7 8 8 16l-2 2q-3 -8 -7 -11t-10 -3q-9 0 -15 7q-7 8 -6 21zM469 570v0h-2l-18 -8l1 -2q3 1 4 1q2 0 3 -1t1 -3q1 -2 1 -12v-54q0 -5 -1 -7t-2 -3q-2 -1 -6 -1v-2h29v2q-5 0 -6 1q-2 1 -3 3t-1 7v79zM487 512v0v-9h33v9h-33zM547 570v0h-3l-18 -8l1 -2q3 1 5 1q1 0 2 -1
t2 -3v-12v-54v-7q-1 -2 -2 -2q-3 -2 -7 -2v-2h30v2q-5 0 -7 1t-2 3q-1 1 -1 7v31q5 6 8 7q4 2 7 2t5 -2q2 -1 3 -4t1 -13v-21v-6q-1 -2 -2 -3q-2 -2 -6 -2h-1v-2h29v2q-4 0 -6 1q-1 1 -2 3t-1 7v21q0 11 -1 15q-2 6 -6 9q-3 3 -8 3q-4 0 -9 -3q-4 -2 -11 -10v44zM629 491v0
q-8 -7 -13 -7q-3 0 -6 3t-3 8q0 4 2 7q3 3 8 6q2 1 12 5v-22zM629 486v0q0 -5 2 -7t5 -2q7 0 14 9v4l-5 -5h-2t-2 1q-1 0 -1 2v10v20q0 9 -1 12q-2 4 -6 6q-5 3 -13 3q-10 0 -16 -5q-5 -5 -5 -10q0 -3 1 -5q2 -1 4 -1t4 1q1 2 1 5v4q0 2 3 5q2 2 6 2q6 0 8 -4q3 -3 3 -12v-2
q-15 -5 -22 -9q-6 -4 -9 -9q-2 -3 -2 -7q0 -7 4 -11t10 -4q4 0 8 1q2 1 11 8zM672 539v0h-3l-18 -8l1 -2q2 1 4 1t3 -1t1 -3q1 -2 1 -12v-23v-6q-1 -2 -3 -3q-2 -2 -6 -2v-2h30v2q-4 0 -6 1l-3 3q-1 3 -1 8v28q3 6 6 9q1 1 2 1t4 -2t5 -2q3 0 4 1q2 2 2 5q0 2 -2 5

<glyph glyph-name=".notdef" 
d="M1154 957l-53 171l142 111h-179l-60 173l-55 -173h-181l143 -105l-53 -177l146 105zM1038 1239h-62l28 92zM921 1155l-79 59h97zM1004 1095l-60 43l23 76h75l27 -74zM1090 1155l-17 59h95zM904 1020l33 93l44 -35zM1106 1020l-77 58l48 35zM1735 -334h-1469
q-101 0 -173 72t-72 174v1469q0 101 72 173t173 72h1469q102 0 174 -72t72 -173v-1469q0 -102 -72 -174t-174 -72zM401 518v0q0 8 4 12q5 4 10 4q4 0 7 -2t5 -6q1 -2 1 -8h-27zM401 515v0h40q0 11 -6 17q-6 7 -16 7q-12 0 -20 -9q-8 -8 -8 -23q0 -14 8 -23q8 -8 18 -8t16 7
q7 8 8 16l-2 2q-3 -8 -7 -11t-10 -3q-9 0 -15 7q-7 8 -6 21zM469 570v0h-2l-18 -8l1 -2q3 1 4 1q2 0 3 -1t1 -3q1 -2 1 -12v-54q0 -5 -1 -7t-2 -3q-2 -1 -6 -1v-2h29v2q-5 0 -6 1q-2 1 -3 3t-1 7v79zM487 512v0v-9h33v9h-33zM547 570v0h-3l-18 -8l1 -2q3 1 5 1q1 0 2 -1
t2 -3v-12v-54v-7q-1 -2 -2 -2q-3 -2 -7 -2v-2h30v2q-5 0 -7 1t-2 3q-1 1 -1 7v31q5 6 8 7q4 2 7 2t5 -2q2 -1 3 -4t1 -13v-21v-6q-1 -2 -2 -3q-2 -2 -6 -2h-1v-2h29v2q-4 0 -6 1q-1 1 -2 3t-1 7v21q0 11 -1 15q-2 6 -6 9q-3 3 -8 3q-4 0 -9 -3q-4 -2 -11 -10v44zM629 491v0
q-8 -7 -13 -7q-3 0 -6 3t-3 8q0 4 2 7q3 3 8 6q2 1 12 5v-22zM629 486v0q0 -5 2 -7t5 -2q7 0 14 9v4l-5 -5h-2t-2 1q-1 0 -1 2v10v20q0 9 -1 12q-2 4 -6 6q-5 3 -13 3q-10 0 -16 -5q-5 -5 -5 -10q0 -3 1 -5q2 -1 4 -1t4 1q1 2 1 5v4q0 2 3 5q2 2 6 2q6 0 8 -4q3 -3 3 -12v-2
q-15 -5 -22 -9q-6 -4 -9 -9q-2 -3 -2 -7q0 -7 4 -11t10 -4q4 0 8 1q2 1 11 8zM672 539v0h-3l-18 -8l1 -2q2 1 4 1t3 -1t1 -3q1 -2 1 -12v-23v-6q-1 -2 -3 -3q-2 -2 -6 -2v-2h30v2q-4 0 -6 1l-3 3q-1 3 -1 8v28q3 6 6 9q1 1 2 1t4 -2t5 -2q3 0 4 1q2 2 2 5q0 2 -2 5
q-3 2 -6 2q-8 0 -15 -14v14zM715 539v0h-2l-18 -8l1 -2q2 1 4 1t3 -1t1 -3q1 -2 1 -12v-23v-6q-1 -2 -3 -3q-2 -2 -6 -2v-2h30v2q-4 0 -6 1l-3 3q-2 3 -2 8v28l6 9q2 1 3 1t4 -2t5 -2t4 1q2 2 2 5q0 2 -2 5q-3 2 -6 2q-8 0 -16 -14v14zM776 491v0q-8 -7 -13 -7q-4 0 -7 3
q-2 3 -2 8q0 4 2 7t7 6q3 1 13 5v-22zM776 486v0q0 -5 1 -7q2 -2 6 -2q6 0 13 9v4l-5 -5h-2t-1 1q-1 0 -1 2q-1 2 -1 10v20q0 9 -1 12q-2 4 -6 6q-5 3 -12 3q-11 0 -16 -5q-6 -5 -6 -10q0 -3 1 -5q2 -1 4 -1q3 0 4 1q2 2 2 5v4q0 2 2 5q3 2 7 2q5 0 8 -4q3 -3 3 -12v-2
q-16 -5 -22 -9q-7 -4 -9 -9q-2 -3 -2 -7q0 -7 4 -11t10 -4q4 0 7 1q2 1 12 8zM818 570v0h-3l-17 -8l1 -2q2 1 4 1q1 0 3 -1q1 -1 1 -3v-12v-54q0 -5 -1 -7q0 -2 -2 -3t-6 -1v-2h30v2q-5 0 -7 1q-1 1 -2 3t-1 7v20l18 -23q3 -4 3 -5t-1 -2t-3 -1v-2h28v2q-4 0 -5 1q-3 1 -6 4
q-2 2 -8 10l-15 19l15 14q4 4 7 5q4 2 9 2v2h-25v-2q2 0 3 -1t1 -2v-2q-1 -1 -6 -5l-15 -14v59zM879 490v0q-3 0 -5 -2t-2 -5t2 -5t5 -2t5 2t2 5t-2 5t-5 2zM916 523v0q4 4 6 5q4 2 7 2q7 0 12 -7q5 -6 5 -17q0 -12 -5 -19q-5 -6 -11 -6q-4 0 -7 2q-4 1 -7 4v36zM916 527v0
v43h-3l-18 -8l1 -2q3 1 5 1q1 0 2 -1t2 -3v-12v-61q6 -4 11 -6t10 -2q11 0 20 8q11 10 11 26q0 13 -7 21t-16 8q-10 0 -18 -12zM986 570v0h-3l-18 -8l1 -2q3 1 5 1q1 0 2 -1t2 -3v-12v-54q0 -5 -1 -7t-2 -3t-6 -1v-2h29v2q-4 0 -6 1t-2 3q-1 2 -1 7v79zM1029 535v0
q7 0 12 -7q6 -9 6 -24q0 -13 -4 -18t-10 -5q-8 0 -13 9t-5 22q0 8 2 13t5 7q4 3 7 3zM1031 539v0q-7 0 -14 -4q-6 -4 -10 -12t-4 -16q0 -11 6 -20q8 -11 21 -11q9 0 15 4q7 4 11 13q3 8 3 16q0 11 -6 20q-9 10 -22 10zM1095 536v0q5 0 9 -5t4 -16q0 -8 -3 -11q-3 -4 -8 -4
t-9 4q-4 6 -4 16q0 8 3 12t8 4zM1083 478v0q8 -1 23 -2q10 0 13 -1q3 -2 3 -5q0 -5 -5 -9q-6 -4 -17 -4q-13 0 -19 4q-4 3 -4 6q0 2 2 5q1 3 4 6zM1084 499v0q-7 -5 -9 -8q-1 -3 -1 -5t1 -4t5 -4q-6 -6 -7 -6q-3 -5 -4 -7t-1 -3q0 -4 5 -7q8 -5 21 -5q16 0 26 9q7 6 7 14
q0 5 -4 8q-3 4 -9 5q-4 0 -17 1h-10q-3 1 -4 2t-1 2t1 3t4 4q5 -1 9 -1q11 0 17 6t6 14q0 7 -3 12h7h4v0q1 1 1 3q0 1 -1 2v0q-1 1 -4 1h-12q-6 4 -15 4q-10 0 -17 -7q-6 -6 -6 -15q0 -5 3 -10t8 -8zM1172 539v0h-2l-1 -2q-1 -1 -2 -1t-4 1q-5 2 -9 2q-8 0 -13 -5t-5 -12
q0 -6 3 -10q3 -3 13 -8q9 -5 12 -8t3 -7t-3 -6q-2 -3 -7 -3q-6 0 -11 5q-5 4 -7 13h-2v-21h2q1 2 2 2t4 -1q7 -2 12 -2q8 0 14 5t6 13q0 11 -13 17l-10 4q-6 3 -8 6t-2 6t3 6q3 2 7 2q6 0 10 -4q4 -3 6 -12h2v20zM1202 521v0q5 6 7 7q4 1 7 1q5 0 9 -5q6 -7 6 -20
q0 -12 -5 -19q-4 -5 -10 -5t-9 3q-4 3 -5 6v10v22zM1181 531v0l1 -2q2 1 4 1t3 -1l2 -2v-7v-56q0 -7 -1 -8q0 -2 -1 -3q-3 -1 -7 -1h-1v-2h31v2q-5 0 -7 1t-2 3q-1 1 -1 7v18q3 -3 6 -3q3 -2 8 -2q11 0 18 8q9 10 9 26q0 13 -7 22q-6 7 -15 7q-5 0 -10 -3q-5 -4 -9 -11v13
h-3zM1278 535v0q7 0 12 -7q7 -9 7 -24q0 -13 -4 -18t-11 -5q-8 0 -13 9t-5 22q0 8 2 13t5 7q4 3 7 3zM1280 539v0q-7 0 -14 -4q-6 -4 -10 -12t-4 -16q0 -11 6 -20q8 -11 22 -11q8 0 14 4q7 4 11 13q4 8 4 16q0 11 -7 20q-8 10 -22 10zM1335 556v0h-2q-3 -6 -5 -9l-6 -8
q-4 -3 -7 -4v-3h9v-39q0 -7 1 -10q2 -3 4 -4q3 -2 6 -2q5 0 9 3t6 10h-2q-2 -3 -4 -4q-2 -2 -4 -2t-4 2q-1 2 -1 8v38h13v5h-13v19zM1366 490v0q-3 0 -5 -2t-2 -5t2 -5t5 -2t5 2q3 2 3 5t-3 5q-2 2 -5 2zM1437 500v0l-2 1q-3 -8 -7 -10q-5 -5 -11 -5q-9 0 -14 8t-5 19
q0 10 5 17q4 4 10 4q4 0 7 -2q2 -2 2 -5q1 -4 2 -5q2 -3 5 -3t5 2q1 1 1 4q0 4 -5 9q-6 5 -14 5q-12 0 -20 -9q-9 -9 -9 -23t8 -22q7 -9 17 -9q9 0 16 6q7 7 9 18zM1472 535v0q7 0 12 -7q7 -9 7 -24q0 -13 -4 -18t-11 -5q-8 0 -13 9t-5 22q0 8 2 13t6 7q3 3 6 3zM1474 539v0
q-7 0 -14 -4q-6 -4 -10 -12t-4 -16q0 -11 7 -20q7 -11 21 -11q8 0 15 4q6 4 10 13q4 8 4 16q0 11 -7 20q-8 10 -22 10zM1529 526v0v13h-3l-18 -8l1 -2q3 1 5 1q1 0 2 -1q1 0 2 -3v-12v-23v-7q-1 -2 -3 -3t-6 -1v-2h30v2q-5 0 -7 1q-1 1 -2 3t-1 7v32q3 3 8 6q4 2 7 2
q5 0 8 -4q2 -3 2 -10v-26v-6q-1 -2 -3 -4q-1 -1 -6 -1v-2h29v2q-4 0 -6 1t-2 3q-1 1 -1 7v28v3v1q5 5 8 6q4 2 7 2q6 0 8 -4q2 -3 2 -10v-26v-6q-1 -2 -3 -3q-2 -2 -5 -2h-2v-2h29v2q-4 0 -5 1q-2 1 -3 3v7v26q0 8 -2 11q-2 6 -6 8q-3 3 -8 3t-9 -3q-5 -2 -12 -10q-1 6 -5 9
q-4 4 -9 4q-4 0 -7 -2q-3 -1 -6 -3q-2 -1 -8 -8zM592 747v0h18v6h-18v5q0 15 1 19t4 6q2 2 5 2t6 -2q2 -1 5 -5q2 -4 4 -5q2 -2 4 -2t4 2t2 4q0 5 -4 8q-7 5 -15 5t-15 -4q-6 -5 -10 -12q-3 -7 -3 -17v-4h-13v-6h13v-44q0 -7 -1 -10q-1 -2 -3 -4q-3 -1 -6 -1h-3v-3h41v3h-6
q-5 0 -8 3q-2 3 -2 12v44zM647 750v0q8 0 13 -7q8 -10 8 -28q0 -15 -5 -21q-4 -6 -11 -6q-10 0 -16 11t-6 26q0 9 3 14q2 6 6 9q4 2 8 2zM649 755v0q-8 0 -16 -5q-7 -4 -12 -13q-4 -9 -4 -19q0 -12 7 -23q9 -12 24 -12q10 0 17 5q8 5 12 14q5 9 5 18q0 13 -8 23
q-9 12 -25 12zM711 740v0v15h-3l-20 -9l1 -2q3 1 5 1t3 -1t2 -4v-14v-26q0 -7 -2 -10q-1 -2 -7 -2h-1v-3h33v3q-5 0 -7 1t-3 3t-1 8v36q9 10 18 10q6 0 8 -4q2 -5 2 -14v-28v-6q-1 -3 -3 -5q-1 -1 -6 -1h-2v-3h34v3q-5 0 -7 1t-2 3q-2 2 -2 8v29q0 9 -1 14q-2 6 -6 9t-10 3
q-11 0 -23 -15zM787 775v0h-2q-4 -7 -5 -10q-4 -6 -8 -9q-4 -4 -8 -6v-2h11v-46q0 -7 1 -11q2 -3 5 -5t7 -2q5 0 9 4q5 3 8 11h-3q-1 -3 -4 -5q-2 -1 -4 -1q-3 0 -5 2t-2 9v44h16v5h-16v22zM853 755v0h-3q-1 -2 -1 -3h-2t-5 1q-6 2 -10 2q-9 0 -14 -6q-6 -5 -6 -14
q0 -6 3 -10q3 -5 14 -10t14 -9q4 -3 4 -8t-3 -8t-9 -3q-7 0 -13 6q-5 5 -7 15h-3v-24h3q0 2 2 2t4 -1q8 -2 14 -2q9 0 16 6q7 5 7 15q0 12 -15 19l-11 5q-7 4 -9 7q-2 2 -2 7q0 3 3 6q3 2 8 2q7 0 11 -4q5 -3 7 -14h3v23zM917 732v0q1 8 6 13q4 5 11 5q4 0 7 -3q4 -2 6 -6
q1 -3 1 -9h-31zM917 727v0h47q0 13 -8 20q-7 8 -18 8q-14 0 -23 -10q-8 -10 -8 -27q0 -16 8 -25q9 -10 21 -10q11 0 19 8q7 9 9 19l-3 1q-3 -9 -8 -12q-5 -4 -11 -4q-10 0 -18 9q-7 8 -7 23zM996 790v0h-3l-21 -8l2 -3q3 1 5 1q1 0 3 -1q1 -1 1 -3q1 -3 1 -14v-62
q0 -6 -1 -8t-3 -3t-6 -1v-3h33v3q-5 0 -7 1t-3 3t-1 8v90zM1072 790v0h-3l-20 -8l1 -3q3 1 5 1t3 -1t1 -3q1 -3 1 -14v-62q0 -6 -1 -8t-2 -3q-3 -1 -7 -1v-3h33v3q-5 0 -7 1t-3 3t-1 8v36q6 6 10 8t7 2q4 0 6 -2q3 -2 4 -5q1 -4 1 -15v-24v-6q-1 -3 -3 -5q-2 -1 -6 -1h-2v-3
h33v3q-4 0 -6 1t-3 3t-1 8v24q0 13 -1 18q-2 6 -6 10q-4 3 -10 3q-5 0 -10 -3q-5 -2 -13 -11v49zM1166 700v0q-9 -8 -15 -8q-4 0 -7 4q-3 3 -3 9q0 4 2 7q3 4 9 7q3 2 14 6v-25zM1166 695v0q0 -6 2 -9q3 -2 6 -2q8 0 16 11v4q-4 -4 -6 -5q-1 -1 -2 -1t-2 1t-1 3q-1 2 -1 12
v23q0 9 -1 13q-2 4 -6 7q-6 3 -15 3q-12 0 -18 -6q-7 -5 -7 -11q0 -4 2 -5q2 -2 4 -2q3 0 5 1q2 2 2 6l-1 4q0 3 3 6q3 2 8 2q6 0 9 -4q3 -3 3 -13v-3q-17 -6 -25 -11q-7 -4 -10 -9q-2 -4 -2 -9q0 -8 4 -12q5 -5 12 -5q4 0 8 2q3 1 13 9zM1215 755v0h-3l-21 -9l1 -2q3 1 5 1
t3 -1q2 -1 2 -3q1 -3 1 -14v-27q0 -6 -1 -7l-2 -4q-3 -1 -8 -1v-3h35v3q-5 0 -7 1q-3 2 -4 4t-1 8v32q3 7 7 10q1 2 2 2q2 0 5 -3q3 -2 6 -2t5 2q1 2 1 5t-2 5q-3 3 -7 3q-9 0 -17 -15v15zM1265 755v0h-3l-21 -9l1 -2q3 1 5 1t4 -1q1 -1 1 -3q1 -3 1 -14v-27q0 -6 -1 -7
q0 -2 -2 -4q-3 -1 -8 -1v-3h35v3q-5 0 -7 1q-3 2 -4 4t-1 8v32q4 7 7 10q1 2 3 2q1 0 4 -3q4 -2 6 -2q3 0 5 2t2 5t-3 5q-3 3 -7 3q-9 0 -17 -15v15zM1334 700v0q-9 -8 -15 -8q-4 0 -7 4q-3 3 -3 9q0 4 2 7q3 4 8 7q4 2 15 6v-25zM1334 695v0q0 -6 2 -9q2 -2 6 -2q7 0 16 11
v4q-5 -4 -6 -5t-2 -1q-2 0 -2 1q-1 1 -2 3v12v23q0 9 -1 13q-2 4 -7 7q-6 3 -15 3q-11 0 -18 -6q-6 -5 -6 -11q0 -4 2 -5q1 -2 4 -2t5 1q1 2 1 6v4q0 3 3 6q3 2 7 2q6 0 10 -4q3 -3 3 -13v-3q-18 -6 -25 -11q-8 -4 -11 -9q-2 -4 -2 -9q0 -8 5 -12q4 -5 11 -5q5 0 9 2
q2 1 13 9zM1383 790v0h-4l-20 -8l1 -3q3 1 5 1t3 -1t2 -3v-14v-62q0 -6 -1 -8t-2 -3q-3 -1 -8 -1v-3h34v3q-5 0 -7 1t-3 3v8v23l20 -27q3 -3 3 -5t-1 -2q-1 -1 -4 -1v-3h33v3q-4 0 -6 1q-3 1 -6 4t-10 12l-17 22l17 16q5 4 9 6q4 1 10 1v3h-30v-3q3 0 4 -1q2 -1 2 -2t-1 -2
l-6 -6l-17 -16v67zM326 294v0v23q3 1 5 1q4 0 6 -1q3 -2 5 -5q1 -3 1 -7q0 -5 -3 -9q-3 -3 -8 -3h-2q-2 1 -4 1zM326 292v0q2 -1 5 -1q2 -1 4 -1q8 0 13 5q5 4 5 11q0 5 -3 9q-3 3 -8 5q-4 2 -12 2h-20v-2h2q3 0 5 -2q1 -1 1 -6v-37q0 -5 -1 -6q-2 -2 -5 -2h-2v-2h24v2h-2
q-4 0 -5 2q-1 1 -1 6v17zM380 273v0q-5 -4 -9 -4q-2 0 -4 2q-1 2 -1 5t1 5t5 3q1 1 8 4v-15zM380 271v0q0 -4 1 -5q1 -2 3 -2q4 0 9 7v2l-3 -3h-1h-2v2v6v13q0 6 -1 8t-4 4q-3 1 -8 1q-7 0 -10 -3q-4 -3 -4 -6q0 -2 1 -3t2 -1q2 0 3 1t1 3v2q0 2 2 3q1 2 4 2t5 -2t2 -8v-2
q-10 -3 -14 -6q-5 -2 -6 -5q-1 -2 -1 -5q0 -4 2 -7q3 -3 7 -3q2 0 4 1t8 6zM394 303v0v-1q2 -1 3 -1l2 -2l2 -4l13 -28l-2 -7q-2 -4 -3 -5q-2 -1 -3 -1h-2q-3 1 -4 1q-2 0 -3 -1t-1 -3q0 -1 1 -3q2 -1 4 -1q4 0 7 3q4 2 6 8l16 38l1 3q1 2 2 2q1 1 2 1v1h-12v-1q2 0 2 -1h2
v-1q0 -2 -1 -4l-8 -21l-10 19q-1 3 -1 5q0 1 1 2t3 1h1v1h-18zM453 294v0v23q4 1 6 1q3 0 6 -1q3 -2 4 -5q2 -3 2 -7q0 -5 -3 -9q-4 -3 -8 -3h-3q-1 1 -4 1zM453 292v0q3 -1 5 -1q3 -1 5 -1q8 0 13 5q4 4 4 11q0 5 -3 9q-3 3 -7 5t-12 2h-21v-2h2q4 0 5 -2q1 -1 1 -6v-37v-6
q-2 -2 -6 -2h-2v-2h24v2h-2q-3 0 -5 2q-1 1 -1 6v17zM507 273v0q-5 -4 -8 -4q-2 0 -4 2t-2 5t2 5q1 2 4 3l8 4v-15zM507 271v0q0 -4 2 -5q1 -2 3 -2q4 0 9 7v2q-3 -2 -4 -3h-1h-1v2q-1 1 -1 6v13v8l-4 4q-3 1 -8 1q-7 0 -11 -3q-3 -3 -3 -6q0 -2 1 -3t2 -1q2 0 3 1t1 3v2
q0 2 1 3q2 2 4 2q4 0 6 -2q1 -2 1 -8v-2q-9 -3 -14 -6q-4 -2 -6 -5q-1 -2 -1 -5q0 -4 3 -7q2 -3 6 -3q3 0 5 1t7 6zM537 324v0h-2l-11 -4v-2q2 1 3 1t2 -1l1 -2v-8v-34q0 -4 -1 -5q0 -1 -1 -2h-4v-2h19v2h-4l-2 2v5v50zM590 324v0h-4l-20 -60h3zM662 323v0h-1q-1 -2 -2 -3
t-2 -1t-2 1q-6 3 -12 3q-8 0 -15 -4q-6 -4 -10 -11t-4 -15q0 -11 6 -19q7 -10 21 -10q8 0 14 3q5 4 10 11l-2 1q-5 -7 -9 -9t-9 -2q-7 0 -12 3t-7 8q-3 6 -3 13q0 10 3 16t7 9q5 3 10 3q7 0 12 -4t7 -12h1zM688 302v0q4 0 7 -4q5 -6 5 -16q0 -8 -3 -12q-3 -3 -7 -3
q-5 0 -8 6q-4 6 -4 14q0 6 2 9q1 3 3 4q2 2 5 2zM689 304v0q-5 0 -9 -2q-4 -3 -7 -8q-2 -5 -2 -10q0 -7 4 -13q5 -7 13 -7q6 0 10 3q4 2 7 8q2 5 2 10q0 7 -4 13q-5 6 -14 6zM724 296v0v8h-2l-11 -4v-2q2 1 3 1t2 -1q1 0 1 -2v-8v-14q0 -4 -1 -6q-1 -1 -4 -1h-1v-2h19v2h-4
l-2 2v5v20q5 5 10 5q3 0 4 -2q2 -2 2 -8v-15v-4q-1 -2 -2 -2q-1 -1 -4 -1v0v-2h18v2h-3l-2 2v5v16q0 5 -1 8q-2 3 -4 5q-2 1 -5 1q-6 0 -13 -8zM767 316v0h-2q-1 -4 -2 -6q-2 -3 -5 -5q-2 -2 -4 -3v-2h6v-25q0 -4 1 -6q0 -2 2 -3t4 -1q3 0 5 2q3 2 5 6h-2q-1 -2 -2 -3t-3 -1
q-1 0 -2 2q-1 1 -1 5v24h8v3h-8v13zM801 273v0q-5 -4 -9 -4q-2 0 -4 2t-2 5t2 5q1 2 5 3q1 1 8 4v-15zM801 271v0q0 -4 1 -5q1 -2 3 -2q4 0 9 7v2l-3 -3h-1h-2v2v6v13q0 6 -1 8t-4 4q-3 1 -8 1q-7 0 -10 -3q-4 -3 -4 -6q0 -2 1 -3t2 -1q2 0 3 1t1 3v2q0 2 1 3q2 2 5 2t5 -2
t2 -8v-2q-10 -3 -14 -6q-5 -2 -6 -5q-2 -2 -2 -5q0 -4 3 -7t7 -3q2 0 4 1t8 6zM849 280v0h-1q-2 -5 -4 -7q-4 -2 -8 -2q-5 0 -9 5q-3 5 -3 12q0 6 3 11q3 3 7 3q3 0 4 -2q1 -1 2 -3q0 -3 1 -4t3 -1t3 1t1 2q0 3 -3 6q-4 3 -10 3q-7 0 -13 -5q-5 -6 -5 -15t5 -15q5 -5 11 -5
t10 4q5 4 6 12zM866 316v0h-2q-1 -4 -2 -6q-2 -3 -4 -5q-3 -2 -5 -3v-2h6v-25q0 -4 1 -6t2 -3q2 -1 4 -1q3 0 6 2q2 2 4 6h-2q-1 -2 -2 -3t-2 -1q-2 0 -3 2q-1 1 -1 5v24h9v3h-9v13zM909 304v0q-2 0 -3 -1q-2 -1 -2 -3t2 -3q1 -2 3 -2t3 2q2 1 2 3t-2 3q-1 1 -3 1zM909 273
v0q-2 0 -3 -1q-2 -1 -2 -3t2 -4q1 -1 3 -1t3 1q2 2 2 4t-2 3q-1 1 -3 1zM971 272v0q-3 -3 -7 -3t-8 4q-4 5 -4 13t4 13q3 3 7 3q2 0 4 -1t3 -4q1 -2 1 -5v-20zM971 269v0v-5h2l12 5l-1 1q-2 -1 -3 -1t-1 1q-1 1 -1 2q-1 2 -1 8v44h-2l-11 -4l1 -2q1 1 3 1q1 0 1 -1q1 0 1 -2
v-8v-7q-3 3 -8 3q-8 0 -13 -6q-5 -7 -5 -15q0 -9 4 -14q5 -5 11 -5q3 0 6 1q3 2 5 4zM1009 273v0q-5 -4 -9 -4q-2 0 -4 2t-2 5t2 5q1 2 5 3q1 1 8 4v-15zM1009 271v0q0 -4 1 -5q1 -2 3 -2q4 0 9 7v2l-3 -3h-1h-2v2v6v13q0 6 -1 8t-4 4q-3 1 -8 1q-7 0 -10 -3q-4 -3 -4 -6
q0 -2 1 -3t2 -1q2 0 3 1t1 3v2q0 2 1 3q2 2 5 2t5 -2t2 -8v-2q-10 -3 -14 -6q-5 -2 -6 -5q-1 -2 -1 -5q0 -4 2 -7q3 -3 7 -3q2 0 4 1t8 6zM1036 304v0h-2l-11 -4v-2q2 1 3 1t2 -1q1 0 1 -2v-7v-15v-4q0 -2 -1 -2q-2 -1 -5 -1v-2h20v2h-4q-2 1 -2 2q-1 2 -1 5v18q2 4 4 6
q1 1 2 1l2 -2q2 -1 4 -1q1 0 2 1t1 3t-1 3q-2 1 -4 1q-5 0 -10 -8v8zM1064 304v0h-1l-12 -4l1 -2q1 1 2 1q2 0 2 -1q1 0 1 -2q1 -1 1 -7v-15q0 -4 -1 -4q0 -2 -1 -2q-2 -1 -4 -1v-2h19v2h-4l-2 2q-1 2 -1 5v18q2 4 4 6q1 1 2 1t3 -2q1 -1 3 -1q1 0 2 1q2 1 2 3t-2 3
q-1 1 -4 1q-5 0 -10 -8v8zM1103 273v0q-5 -4 -8 -4q-2 0 -4 2t-2 5t1 5q2 2 5 3l8 4v-15zM1103 271v0q0 -4 1 -5q2 -2 4 -2q4 0 9 7v2q-3 -2 -4 -3h-1h-1q-1 1 -1 2v6v13q0 6 -1 8t-3 4q-4 1 -9 1q-6 0 -10 -3t-4 -6q0 -2 1 -3t3 -1t3 1v3v2q0 2 2 3q2 2 4 2q4 0 5 -2
q2 -2 2 -8v-2q-10 -3 -14 -6q-4 -2 -6 -5q-1 -2 -1 -5q0 -4 3 -7q2 -3 6 -3q3 0 5 1q1 1 7 6zM1130 316v0h-1q-2 -4 -2 -6q-2 -3 -5 -5q-2 -2 -4 -3v-2h6v-25v-6q1 -2 3 -3t4 -1q3 0 5 2q3 2 5 6h-2q-1 -2 -2 -3t-3 -1q-1 0 -2 2q-2 1 -2 5v24h9v3h-9v13zM1153 324v0
q-2 0 -3 -1t-1 -3t1 -3t3 -1t3 1t1 3t-1 3t-3 1zM1156 304v0h-2l-11 -4v-2q2 1 3 1t2 -1q1 0 1 -1v-9v-14v-5l-2 -2h-4v-2h19v2h-4q-1 1 -1 2q-1 1 -1 5v30zM1174 316v0l1 -1q2 1 4 1q1 0 2 -1q1 0 1 -2v-7v-31v-6l-2 -2h-5v-2h21v2h-5q-1 1 -1 2q-1 1 -1 6v48h-1zM1218 292
v0q0 7 1 15q1 7 4 10q2 3 5 3q2 0 4 -1q3 -2 4 -7q2 -7 2 -16q0 -13 -2 -20q-1 -5 -4 -7q-2 -2 -4 -2q-5 0 -7 6q-3 7 -3 19zM1210 293v0q0 -11 4 -19q6 -10 14 -10q4 0 8 3q5 3 7 10q3 7 3 17q0 14 -6 22q-5 7 -12 7q-4 0 -8 -3t-7 -10t-3 -17zM1293 303v0q2 0 4 -1
q1 -2 1 -5q0 -4 -2 -10q-1 -4 -4 -8t-6 -6q-2 -2 -5 -2q-2 0 -3 2q-2 2 -2 4q0 4 3 10q3 8 8 13q3 3 6 3zM1308 305v0l-7 -1l-1 -4q-1 2 -3 4q-2 1 -4 1q-4 0 -9 -3q-6 -5 -10 -12q-4 -8 -4 -14q0 -4 2 -7t5 -3t7 3q4 2 10 9q-1 -3 -1 -6t2 -4q1 -1 4 -1q6 0 11 3t9 11
q3 7 3 15t-3 14q-4 7 -11 11q-7 3 -15 3q-11 0 -20 -5t-15 -15q-5 -9 -5 -20t5 -19q5 -9 13 -13q9 -5 18 -5q13 0 23 7t14 18h-3q-5 -11 -14 -17q-8 -6 -19 -6q-9 0 -17 4q-7 4 -12 12q-4 8 -4 18t5 19q5 10 13 15t18 5q7 0 14 -3q6 -3 9 -9q4 -6 4 -13q0 -8 -3 -15
q-3 -6 -8 -9q-4 -4 -7 -4q-1 0 -2 1t-1 3q0 1 1 4q0 2 3 11zM1348 302v0q3 0 5 -2q3 -4 3 -11q0 -5 -2 -7t-5 -2q-4 0 -6 2q-3 4 -3 10t3 8q2 2 5 2zM1340 265v0q5 0 14 -1q7 0 9 -1t2 -3q0 -3 -3 -6q-4 -2 -11 -2q-8 0 -13 2q-2 2 -2 4q0 1 1 3t3 4zM1340 279v0
q-4 -3 -5 -5t-1 -4q0 -1 1 -2t3 -2l-4 -5q-3 -3 -3 -4q-1 -1 -1 -2q0 -2 3 -5q6 -3 14 -3q10 0 17 6q4 4 4 9q0 3 -2 5q-2 3 -6 3q-3 1 -11 1h-6q-2 0 -3 1t-1 2l1 2l2 2q3 -1 6 -1q7 0 11 4t4 9t-2 8h5h2v0q1 1 1 2t-1 1v1h-2h-8q-4 2 -10 2t-11 -4q-4 -4 -4 -9q0 -4 2 -7
t5 -5zM1384 296v0v8h-2l-11 -4l1 -2q1 1 2 1t2 -1q1 0 1 -2v-8v-14v-5l-2 -2h-3v-2h18v2h-4q-1 1 -1 2q-1 1 -1 5v20q2 3 5 4q3 2 5 2q3 0 5 -3q1 -2 1 -7v-16v-4q0 -2 -1 -3h-5v-2h19v2h-4q-1 1 -1 2q-1 1 -1 5v18v2v0q3 3 6 4q2 1 4 1q4 0 5 -2t1 -7v-16v-4q0 -2 -1 -2
q-2 -1 -4 -1h-1v-2h19v2h-4q-1 1 -1 2q-1 1 -1 5v16q0 5 -1 8t-3 5q-3 1 -6 1t-6 -1q-3 -2 -7 -7q-1 4 -3 6q-3 2 -7 2h-4q-2 -1 -4 -3zM1461 273v0q-6 -4 -9 -4q-2 0 -4 2t-2 5t2 5q1 2 5 3q1 1 8 4v-15zM1461 271v0q0 -4 1 -5q1 -2 3 -2q4 0 9 7v2l-3 -3h-2h-1v2
q-1 1 -1 6v13v8q-1 2 -4 4q-3 1 -8 1q-7 0 -10 -3q-4 -3 -4 -6q0 -2 1 -3t2 -1q2 0 3 1t1 3v2q0 2 1 3q2 2 5 2t5 -2t2 -8v-2q-10 -3 -14 -6q-5 -2 -6 -5q-2 -2 -2 -5q0 -4 3 -7t6 -3t5 1t8 6zM1487 324v0q-2 0 -3 -1q-2 -1 -2 -3t2 -3q1 -1 3 -1q1 0 3 1q1 1 1 3t-1 3
q-2 1 -3 1zM1490 304v0h-2l-11 -4v-2q2 1 3 1t2 -1l1 -1v-9v-14v-5l-2 -2h-4v-2h19v2h-4q-1 1 -1 2q-1 1 -1 5v30zM1514 324v0h-2l-12 -4l1 -2q2 1 3 1t1 -1q1 0 1 -2q1 -1 1 -8v-34q0 -4 -1 -5q0 -1 -1 -2h-4v-2h19v2h-4l-2 2v5v50zM1532 273v0q-2 0 -3 -1t-1 -3t1 -4
q1 -1 3 -1t3 1q2 2 2 4t-2 3q-1 1 -3 1zM1578 280v0h-1q-3 -5 -5 -7q-3 -2 -7 -2q-6 0 -9 5q-4 5 -4 12q0 6 4 11q2 3 6 3q3 0 5 -2q1 -1 1 -3q0 -3 1 -4t4 -1q2 0 3 1t1 2q0 3 -4 6t-9 3q-8 0 -13 -5q-5 -6 -5 -15t5 -15q4 -5 11 -5q5 0 10 4q4 4 6 12zM1601 302v0
q4 0 7 -4q4 -6 4 -16q0 -8 -2 -12q-3 -3 -7 -3q-5 0 -9 6q-3 6 -3 14q0 6 2 9q1 3 3 4q2 2 5 2zM1602 304v0q-5 0 -9 -2q-4 -3 -7 -8t-3 -10q0 -7 5 -13q5 -7 13 -7q6 0 10 3q4 2 7 8q2 5 2 10q0 7 -4 13q-6 6 -14 6zM1637 296v0v8h-2l-11 -4v-2q2 1 3 1t2 -1q1 0 1 -2v-8
v-14v-5l-2 -2h-4v-2h19v2h-4q-1 1 -1 2q-1 1 -1 5v20q2 3 5 4q3 2 5 2q3 0 5 -3q1 -2 1 -7v-16v-4q0 -2 -1 -3h-5v-2h19v2h-4q-1 1 -1 2q-1 1 -1 5v18v2v0q3 3 6 4q2 1 4 1q4 0 5 -2t1 -7v-16v-4q0 -2 -1 -2q-2 -1 -4 -1h-1v-2h19v2h-4q-1 1 -1 2q-1 1 -1 5v16q0 5 -1 8
t-3 5q-3 1 -6 1t-6 -1q-3 -2 -7 -7q-1 4 -4 6q-2 2 -6 2h-4q-2 -1 -4 -3zM676 -106v0h3l59 129v-102q0 -13 -2 -17q-4 -6 -14 -6h-5v-4h65v4h-6q-9 0 -13 5q-3 4 -3 18v100q0 12 2 16q4 6 14 6h6v4h-44l-54 -120l-56 120h-43v-4q9 0 14 -2q4 -3 5 -6q3 -4 3 -14v-100
q0 -13 -3 -17q-4 -6 -14 -6h-5v-4h53v4h-5q-9 0 -13 5q-3 4 -3 18v102zM841 -7v0q12 0 20 -11q12 -15 12 -43q0 -22 -7 -31t-18 -9q-15 0 -24 16q-9 17 -9 39q0 14 4 23t10 13q6 3 12 3zM844 0v0q-13 0 -24 -6q-12 -7 -19 -21t-7 -28q0 -20 12 -35q14 -19 37 -19q14 0 26 7
t18 22q7 14 7 28q0 19 -12 35q-14 17 -38 17zM939 0v0h-4l-32 -12l1 -4q5 1 8 1t5 -1q2 -2 3 -5q1 -4 1 -22v-40q0 -9 -1 -11q-1 -4 -4 -5q-4 -3 -12 -3v-4h53v4q-7 0 -10 2q-4 2 -6 5q-2 5 -2 13v50q6 10 11 15q2 2 4 2t7 -4t9 -4t7 3q3 4 3 8q0 5 -4 9q-4 3 -10 3
q-14 0 -27 -23v23zM1033 -7v0q12 0 20 -11q12 -15 12 -43q0 -22 -7 -31t-18 -9q-15 0 -24 16q-9 17 -9 39q0 14 4 23t10 13q6 3 12 3zM1036 0v0q-12 0 -24 -6q-11 -7 -18 -21q-8 -14 -8 -28q0 -20 12 -35q14 -19 37 -19q14 0 26 7t18 22q7 14 7 28q0 19 -12 35
q-14 17 -38 17zM1189 -67v0l-3 2q-6 -14 -12 -19q-9 -7 -20 -7q-16 0 -25 14t-9 32q0 19 9 30q7 8 19 8q7 0 10 -3q4 -4 5 -11q1 -6 3 -9q3 -4 10 -4q5 0 7 3q3 2 3 7q0 8 -10 16t-25 8q-20 0 -35 -15q-14 -15 -14 -39q0 -25 13 -40t31 -15q14 0 27 11q12 11 16 31z
M1291 -67v0l-3 2q-6 -14 -12 -19q-9 -7 -20 -7q-15 0 -24 14t-9 32q0 19 9 30q7 8 18 8q7 0 11 -3q4 -4 4 -11q1 -6 3 -9q3 -4 10 -4q5 0 8 3q3 2 3 7q0 8 -10 16t-25 8q-21 0 -35 -15q-15 -15 -15 -39q0 -25 14 -40q13 -15 30 -15q15 0 27 11t16 31zM1353 -7v0q13 0 21 -11
q11 -15 11 -43q0 -22 -7 -31t-18 -9q-14 0 -23 16q-9 17 -9 39q0 14 3 23q4 9 10 13q6 3 12 3zM1357 0v0q-13 0 -25 -6q-11 -7 -18 -21t-7 -28q0 -20 11 -35q14 -19 37 -19q15 0 26 7q12 7 19 22q6 14 6 28q0 19 -12 35q-14 17 -37 17z" />
    <glyph glyph-name=".null" horiz-adv-x="0" 
 />
    <glyph glyph-name=".null" horiz-adv-x="0" 
 />
    <glyph glyph-name="nonmarkingreturn" horiz-adv-x="508" 
 />
    <glyph glyph-name="space" unicode=" " horiz-adv-x="508" 
 />
    <glyph glyph-name="space" unicode="&#xa0;" horiz-adv-x="508" 
 />
    <glyph glyph-name="exclam" unicode="!" 
d="M996 63q48 0 98 9q163 27 289 135q20 16 20 51q0 10 -3 19q-22 104 -147 252q-111 135 -248 246q-6 4 -9 4q-4 0 -10 -4q-223 -181 -352 -393q-34 -51 -43 -112q-3 -9 -3 -16q0 -27 21 -47q167 -141 387 -144zM1463 297q1 0 4 2t3 3q115 164 117 335q0 260 -170 434
q-9 11 -24 11q-30 0 -62 -20q-88 -56 -162 -132q-3 -2 -3 -5q0 -2 4 -5q125 -153 215 -327q55 -98 79 -207q5 -20 5 -42q0 -19 -6 -42v-5zM528 297q-4 30 -4 52q0 83 69 220q95 186 228 349q3 3 3 5q0 5 -5 9q-112 115 -197 144q-10 6 -19 6q-22 0 -38 -19
q-161 -178 -161 -403q0 -203 115 -358q2 -1 4 -3t5 -2zM996 1068q3 0 8 3q81 50 171 80q39 14 79 14q19 0 36 -3q3 0 5 3q-140 82 -299 82q-160 0 -301 -83l5 -2q4 2 7 2.5t26 0.5q47 0 91 -16q86 -29 163 -78q5 -3 9 -3zM1735 -334h-1469q-101 0 -173 72t-72 174v1469
q0 101 72 173t173 72h1469q102 0 174 -72t72 -173v-1469q0 -102 -72 -174t-174 -72z" />
    <glyph glyph-name="quotedbl" unicode="&#x22;" 
d="M1426 18q88 0 150.5 63t62.5 151v850q0 88 -62.5 151t-150.5 63h-852q-86 0 -149 -63t-63 -151v-383h2q72 -29 206 -87l132 -53q4 0 4 1q44 27 91 27q11 0 11.5 0.5t40.5 57.5q116 167 116 171q0 71 37.5 130.5t102.5 90.5q50 23 102 23l23 -2q170 -24 215 -187
q7 -29 7 -58q0 -89 -67 -161q-49 -55 -123 -72q-24 -6 -46 -6h-10q-2 0 -167 -117q-60 -43 -60 -48q0 -58 -34.5 -105t-92.5 -65q-23 -7 -48 -7q-135 5 -174 136q0 2 -5 4q-263 107 -263 110v-250q0 -88 62.5 -151t149.5 -63h852zM801 273q24 0 51 10q56 24 76 76
q10 24 10 50q0 29 -14 59q-41 78 -123 78q-24 0 -47 -9q0 -1 3 -1l76 -31q64 -30 64 -95q0 -18 -7 -37q-27 -63 -93 -63q-27 0 -98 32l-20 7q21 -44 70 -65q25 -11 52 -11zM1206 655q68 0 115 47.5t47 113.5q0 68 -46.5 115.5t-113.5 47.5t-114.5 -47.5t-47.5 -115.5
q0 -66 47.5 -113.5t112.5 -47.5zM1208 695q-52 2 -86 37t-35 86q0 49 34.5 84.5t86.5 35.5q51 0 86.5 -35.5t35.5 -86.5q0 -49 -36 -85t-86 -36zM1735 -334h-1469q-101 0 -173 72t-72 174v1469q0 101 72 173t173 72h1469q102 0 174 -72t72 -173v-1469q0 -102 -72 -174
t-174 -72z" />
    <glyph glyph-name="numbersign" unicode="#" 
d="M999 -5q67 0 115 15.5t48 36.5q0 22 -48 37.5t-115 15.5t-115 -15.5t-48 -37.5q0 -21 48 -36.5t115 -15.5zM1000 263q15 0 27 16l4 1q9 21 298 451q47 80 47 184q0 157 -109.5 267.5t-266.5 110.5t-268 -110.5t-111 -267.5q0 -112 58.5 -201t120.5 -178l170 -257
q13 -16 30 -16zM1006 723q-63 0 -107 39q-50 43 -50 112q0 59 37 99q45 53 109 53q61 0 105 -39q50 -44 50 -109q0 -61 -38.5 -105.5t-105.5 -49.5zM1735 -334h-1469q-101 0 -173 72t-72 174v1469q0 101 72 173t173 72h1469q102 0 174 -72t72 -173v-1469q0 -102 -72 -174
t-174 -72z" />
    <glyph glyph-name="dollar" unicode="$" 
d="M653 296q261 0 280 248q0 74 -39.5 138t-149.5 126q-106 52 -135 90q-24 31 -24 69q0 36 29 71t107 35q92 0 170 -39l6 -2q9 0 9 67t-3 70q-54 36 -186 36q-265 0 -270 -244q0 -153 176 -255q109 -53 141 -95q25 -34 25 -73q0 -41 -31.5 -73.5t-104.5 -32.5
q-104 0 -191 59q-3 3 -4 3q-2 0 -2 -70.5v-73t3 -3.5q77 -43 194 -51zM1067 104l123 12q15 0 15 9v180l30 -2q126 0 227.5 88t101.5 268q0 137 -73.5 227.5t-210.5 90.5q-139 0 -228 -46h-1q1 -6 4 -77v-740q0 -10 12 -10zM1241 428q-17 0 -30 3q-6 2 -6 410q0 10 63 10
q148 0 153 -201q0 -119 -56 -170.5t-124 -51.5zM1735 -334h-1469q-101 0 -173 72t-72 174v1469q0 101 72 173t173 72h1469q102 0 174 -72t72 -173v-1469q0 -102 -72 -174t-174 -72z" />
    <glyph glyph-name="percent" unicode="%" 
d="M1059 206q9 0 9 8q0 2 -131.5 446.5t-133.5 446.5t-178 2q-6 0 -9 -8q0 -29 -1.5 -43t-120.5 -428.5t-119 -417.5q0 -6 70 -6q67 0 70 3t67 252h262l67 -246q5 -9 13 -9h135zM813 594h-198q77 291 98 385q10 -48 29 -119.5t38.5 -144t32.5 -121.5zM1401 195q101 0 164 30
q9 9 9 68q0 57 -1 58t-3 1l-5 -2q-60 -25 -134 -25q-178 0 -178 186h215q134 0 143.5 9t9.5 93q0 62 -22.5 124.5t-76 105t-143.5 42.5q-131 0 -203 -103t-72 -249q0 -88 29 -166.5t94.5 -125t173.5 -46.5zM1463 624h-209q14 141 120 141q43 0 66 -22t32 -51.5t9 -52.5
q0 -15 -18 -15zM1735 -334h-1469q-101 0 -173 72t-72 174v1469q0 101 72 173t173 72h1469q102 0 174 -72t72 -173v-1469q0 -102 -72 -174t-174 -72z" />
    <glyph glyph-name="ampersand" unicode="&#x26;" 
d="M985 385q63 0 106.5 44t43.5 105q-2 64 -43.5 106t-105.5 44q-65 -1 -107 -43t-43 -107q2 -62 45 -105.5t104 -43.5zM986 71q47 0 94 9q78 19 128 49q241 141 241 404q0 66 -20 137q-2 7 -2 20q52 251 52 286v4l-201 -541q-38 -100 -116.5 -156t-177.5 -56
q-146 6 -225.5 99.5t-79.5 206.5q0 24 3 49q30 182 203 242q55 19 107 19q109 0 202 -83l39 -35l205 535q-12 -5 -175 -324q-9 -14 -16 -14q-6 0 -15 6q-117 71 -245 71q-188 0 -327 -134q-70 -74 -89 -119q-43 -92 -46 -144t-3 -75q0 -40 6 -65q34 -178 161 -283
q94 -77 220 -102q38 -6 77 -6zM1735 -334h-1469q-101 0 -173 72t-72 174v1469q0 101 72 173t173 72h1469q102 0 174 -72t72 -173v-1469q0 -102 -72 -174t-174 -72z" />
    <glyph glyph-name="quotesingle" unicode="'" 
d="M555 329q77 0 157.5 35.5t135.5 120.5t55 234q0 160 -84 260.5t-255 100.5q-73 0 -132 -2l-45 -1q-6 0 -7 -2t-1 -371q0 -373 6 -373q35 -2 170 -2zM1362 334l108 2q11 0 11 7l136 540q0 4 -112 4q-14 -3 -54 -264l-28 -161q-8 66 -51 281q-11 61 -23 133q-2 1 -3 2.5
t-2 3.5t-60 2q-64 0 -65 -3.5t-1 -4.5q-71 -338 -81 -413h-6q-5 58 -67 416q0 5 -62 5q-61 0 -61 -1q0 -10 58 -274q61 -273 63 -274t9 -1q117 0 119 7q68 288 87 412q11 -77 37 -204q17 -89 36 -205q0 -10 12 -10zM558 437q-17 0 -30 1h-27l1 531q31 3 63 4q89 0 152 -59
t63 -198q-6 -141 -67 -210t-155 -69zM1735 -334h-1469q-101 0 -173 72t-72 174v1469q0 101 72 173t173 72h1469q102 0 174 -72t72 -173v-1469q0 -102 -72 -174t-174 -72z" />
    <glyph glyph-name="parenleft" unicode="(" 
d="M532 966q-97 0 -165 -67.5t-68 -164.5v-150q0 -96 68 -164t165 -68h933q97 0 165 68t68 164v150q0 97 -68 164.5t-165 67.5h-933zM1674 736v-156q0 -84 -60 -144t-146 -60h-643q86 0 146 60t60 144v156q0 87 60.5 146.5t145.5 59.5h231q86 0 146 -59.5t60 -146.5z
M868 723v-219h66v219h-66zM861 792q0 -17 11.5 -28t27.5 -11t28.5 11t12.5 28t-12.5 28.5t-28.5 11.5t-27.5 -11.5t-11.5 -28.5zM419 824l86 -320h55l65 220l63 -220h58l83 320h-65l-48 -211l-61 211h-59l-62 -206l-45 206h-70zM1137 824v-320h70v125h159v64h-159v65h169v66
h-239zM1424 723v-219h67v219h-67zM1418 793q0 -16 11.5 -27.5t27.5 -11.5t28.5 11.5t12.5 27.5t-12.5 27.5t-28.5 11.5t-27.5 -11.5t-11.5 -27.5zM1735 -334h-1469q-101 0 -173 72t-72 174v1469q0 101 72 173t173 72h1469q102 0 174 -72t72 -173v-1469q0 -102 -72 -174
t-174 -72z" />
    <glyph glyph-name="parenright" unicode=")" 
d="M1394 3q-6 0 -12 2l-382 226l-390 -224q-7 -4 -14 -4q-10 0 -17 6q-12 9 -12 22q0 3 80 449l-319 294q-11 8 -11 21q0 3 2 7q6 18 24 20l432 49l196 408q9 17 25 17q18 0 26 -17l189 -417l436 -40q25 -3 25 -28q0 -12 -7 -20l-316 -294l8 -61q-33 -4 -79 -4q-77 0 -193 8
l-183 15l437 306q-126 32 -275 32q-11 0 -98.5 -1t-210.5 -15q-131 -17 -139 -19h2q16 0 109 -4.5t207 -12.5t192 -21l-433 -318h10q62 -8 263 -16q43 -2 84 -2q159 0 309 25q49 9 91 27q-18 -19 -41 -33l-42 -21q58 -331 58 -335q0 -13 -12 -21q-10 -6 -19 -6zM1735 -334
q102 0 174 72t72 174v1469q0 101 -72 173t-174 72h-1469q-101 0 -173 -72t-72 -173v-1469q0 -102 72 -174t173 -72h1469z" />
    <glyph glyph-name="asterisk" unicode="*" 
d="M1001 72q162 0 296 79t213 213t79 298q0 162 -79 296t-213 213t-296 79q-164 0 -297 -79t-213 -213t-80 -296q0 -164 80 -298t213 -213t297 -79zM1003 127q-147 0 -268.5 72t-194 194t-72.5 269q0 148 72.5 269t194 193t268.5 72t268.5 -72t194 -193t72.5 -269
q0 -147 -72.5 -269t-194 -194t-268.5 -72zM770 298q103 0 122 84q3 17 4 397q0 21 20 25l294 58q14 0 16 -16v-258q-5 -24 -27 -27l-35 -8q-110 -17 -110 -98l1 -12q5 -26 24 -46q24 -23 66 -23q73 0 104 42q17 26 20 56v552q-8 22 -24 22l-9 -2q-18 -5 -146 -28
q-109 -23 -205 -43q-25 -3 -31 -28l-2 -422q0 -32 -26 -37l-36 -9q-22 0 -66 -20q-42 -23 -42 -76q0 -17 4 -27q22 -56 84 -56zM1735 -334h-1469q-101 0 -173 72t-72 174v1469q0 101 72 173t173 72h1469q102 0 174 -72t72 -173v-1469q0 -102 -72 -174t-174 -72z" />
    <glyph glyph-name="plus" unicode="+" 
d="M580 115q4 3 4 383q471 0 471 356q0 143 -93 241t-294 98q-140 0 -249 -4q-9 0 -9 -538q0 -534 3 -536.5t85 -2.5zM1384 122l4 622q61 19 182 21q12 0 12 78t-12 78q-272 -7 -360 -69l-3 -9q4 -77 4 -397t3 -323t87 -3zM663 657h-79l1 376l90 8q197 -5 215 -189
q0 -195 -227 -195zM1735 -334h-1469q-101 0 -173 72t-72 174v1469q0 101 72 173t173 72h1469q102 0 174 -72t72 -173v-1469q0 -102 -72 -174t-174 -72z" />
    <glyph glyph-name="comma" unicode="," 
d="M964 71q284 10 472 160q15 11 16 28q-2 34 -36 34l-29 -8q-194 -94 -419 -95q-274 21 -497 171l-26 10q-27 0 -28 -28q1 -14 12 -24q212 -221 535 -248zM1486 170q48 1 81 99q18 51 18 92q0 53 -92 53q-150 -11 -156 -66q0 -24 26 -24l99 11q35 -3 35 -11
q0 -23 -12 -58.5t-18 -50t-6 -20.5q0 -25 25 -25zM844 392q149 0 249 109q15 -32 40 -58q44 -45 63 -45q10 0 26 11.5t49.5 42t49 43t15.5 23.5q0 12 -6.5 18.5t-6.5 12.5q-18 25 -33 52t-15 333t-306 306q-265 -14 -318 -230q0 -30 24 -30l140 -19q19 10 29 30
q25 86 115 92q90 0 101 -86l2 -84q-436 0 -436 -291q0 -115 64 -172.5t154 -57.5zM932 538q-90 11 -90 108q0 149 221 149v-43q2 -40 -2.5 -75t-29.5 -79.5t-78 -57.5zM1735 -334h-1469q-101 0 -173 72t-72 174v1469q0 101 72 173t173 72h1469q102 0 174 -72t72 -173v-1469
q0 -102 -72 -174t-174 -72z" />
    <glyph glyph-name="hyphen" unicode="-" 
d="M1237 264q-204 0 -204 261q27 257 218 257h-4q61 0 61 -9v-496q-27 -13 -71 -13zM589 128q84 0 87 4.5t3 930.5q0 133 -1.5 135t-85.5 2q-82 0 -85 -2.5t-3 -532.5t3 -533.5t82 -3.5zM1227 110q114 0 258 61l9 2q-9 44 -9 1026l-88 1q-86 0 -86 -6v-262h-51
q-186 0 -295 -120t-109 -295q0 -203 105 -305t266 -102zM1735 -334h-1469q-101 0 -173 72t-72 174v1469q0 101 72 173t173 72h1469q102 0 174 -72t72 -173v-1469q0 -102 -72 -174t-174 -72z" />
    <glyph glyph-name="hyphen" unicode="&#xad;" 
d="M1237 264q-204 0 -204 261q27 257 218 257h-4q61 0 61 -9v-496q-27 -13 -71 -13zM589 128q84 0 87 4.5t3 930.5q0 133 -1.5 135t-85.5 2q-82 0 -85 -2.5t-3 -532.5t3 -533.5t82 -3.5zM1227 110q114 0 258 61l9 2q-9 44 -9 1026l-88 1q-86 0 -86 -6v-262h-51
q-186 0 -295 -120t-109 -295q0 -203 105 -305t266 -102zM1735 -334h-1469q-101 0 -173 72t-72 174v1469q0 101 72 173t173 72h1469q102 0 174 -72t72 -173v-1469q0 -102 -72 -174t-174 -72z" />
    <glyph glyph-name="period" unicode="." 
d="M983 309q67 0 70 2q-249 839 -249 841.5t-87 2.5q-92 0 -92 -5q0 -43 -5 -48l-220 -782q0 -7 131 -7l65 237l246 -5l69 -232q0 -4 72 -4zM813 679h-184q75 273 90 361zM1205 309q63 0 66 2t3 505q37 15 86 15q104 0 104 -92l-2 -220q0 -196 2 -198.5t67 -2.5
q62 0 64.5 2.5t2.5 408.5q0 227 -229 227q-106 0 -236 -53q-7 -1 -9 -9q4 -69 6.5 -325t5 -258t69.5 -2zM1735 -334h-1469q-101 0 -173 72t-72 174v1469q0 101 72 173t173 72h1469q102 0 174 -72t72 -173v-1469q0 -102 -72 -174t-174 -72z" />
    <glyph glyph-name="slash" unicode="/" 
d="M419 223q77 0 77 7l67 253l268 2q73 -256 76.5 -257t78.5 -1q73 0 74 3q0 3 -135.5 460.5t-137.5 457.5q-186 0 -188 -1.5t-2 -4.5q0 -68 -7 -68l-240 -844q0 -7 69 -7zM799 619l-35 133q-50 188 -66 261q-27 -133 -77 -317l-20 -77h198zM1359 206q154 0 286 58
q3 1 3.5 2.5t2.5 2t2 4.5l-4 88l-27 1l-3 539q0 8 -9 8h-70q-72 0 -74 -2t-2 -546q-35 -16 -93 -16q-114 0 -114 102l1 234q0 221 -7 221h-130q-10 0 -10 -9v-439q0 -248 248 -248zM1735 -334h-1469q-101 0 -173 72t-72 174v1469q0 101 72 173t173 72h1469q102 0 174 -72
t72 -173v-1469q0 -102 -72 -174t-174 -72z" />
    <glyph glyph-name="zero" unicode="0" 
d="M1174 1293q-29 -17 -76 -109q-66 -161 -118 -161h-372q-10 0 -12 -12v-300q0 -11 12 -11h203q23 -13 23 -23v-4q-223 -402 -238 -449v-215q0 -11 12 -11h231q15 3 65 91q78 178 113 178h377q11 0 11 11v303q0 10 -11 10h-203q0 22 -17 22q200 371 231 454v215
q0 10 -11 11h-220zM1735 -334h-1469q-101 0 -173 72t-72 174v1469q0 101 72 173t173 72h1469q102 0 174 -72t72 -173v-1469q0 -102 -72 -174t-174 -72z" />
    <glyph glyph-name="one" unicode="1" 
d="M1252 274q20 0 65.5 1t110.5 28q69 31 125 79.5t89 112.5t33 143q0 181 -159 288q-135 91 -308 91q-9 0 -54.5 -1t-113.5 -30t-107 -84q20 2 37 2q34 0 64 -10q45 -17 45 -47q0 -10 -10 -18q-22 -13 -49 -13q-33 0 -100 17q-121 33 -226 33q-242 0 -257 -104q57 20 89 20
q4 0 25 -1t21 -20q0 -13 -21 -24q-50 -29 -85 -34q-22 -5 -44 -14q-96 -42 -96 -129q90 58 225 58q50 0 113 -15t96 -76q-51 -9 -80 -31t-31 -35q80 -4 152 -32.5t139 -63.5q62 -32 123 -56q86 -35 189 -35zM1735 -334h-1469q-101 0 -173 72t-72 174v1469q0 101 72 173
t173 72h1469q102 0 174 -72t72 -173v-1469q0 -102 -72 -174t-174 -72z" />
    <glyph glyph-name="two" unicode="2" 
d="M742 952q41 -9 67 -40q28 -32 28 -80q0 -40 -20 -70q-19 -31 -52 -45q-32 -13 -131 -13h-90v254h79q90 0 119 -6zM980 695q27 56 27 138q0 107 -49 175q-47 67 -117 87q-46 14 -198 14h-265v-896h166v338h108q113 0 171 13q44 10 87 42q42 32 70 89zM1548 262
q69 65 69 154q0 82 -49 128q-50 46 -177 76q-125 32 -146 49q-15 12 -15 30q0 23 16 35q28 20 90 20q49 0 76 -21q26 -20 35 -58l150 30q-23 86 -83 128q-59 44 -181 44q-128 0 -189 -57q-61 -58 -61 -142q0 -93 70 -146q52 -38 243 -84q39 -11 51 -23q11 -12 11 -32
q0 -29 -20 -46q-30 -24 -91 -24q-56 0 -87 26q-30 26 -41 76l-159 -26q23 -93 93 -146q72 -55 192 -55q134 0 203 64zM1735 -334h-1469q-101 0 -173 72t-72 174v1469q0 101 72 173t173 72h1469q102 0 174 -72t72 -173v-1469q0 -102 -72 -174t-174 -72z" />
    <glyph glyph-name="three" unicode="3" 
d="M1552 149q21 0 40 13q49 29 49 77v832q0 21 -10 37q-32 52 -79 52h-1116q-7 0 -21 -7q-60 -29 -60 -80v-834q0 -20 12 -38q30 -52 78 -52h1107zM999 729q-304 240 -311 247h621zM1457 335h-917v521l459 -365l458 365v-521zM1735 -334h-1469q-101 0 -173 72t-72 174v1469
q0 101 72 173t173 72h1469q102 0 174 -72t72 -173v-1469q0 -102 -72 -174t-174 -72z" />
    <glyph glyph-name="four" unicode="4" 
d="M1004 569q-73 39 -191 113q-134 84 -189 115q205 134 380 236q68 -47 366 -229q-65 -51 -182 -120q-148 -89 -184 -115zM1508 695q-126 102 -126 109q4 0 65 48q117 92 187 163q-174 109 -365 239h-13q-44 -41 -126 -109q-90 -72 -126 -108q-120 90 -259 217h-18
q-21 -16 -360 -239q39 -48 123 -113q95 -72 130 -105q-227 -181 -259 -209q67 -36 190 -122q123 -82 189 -120q39 32 131 112q81 69 133 105q227 -192 265 -217q201 138 365 242q-19 23 -126 107zM1377 371l-116 -71q-37 33 -125 107q-83 68 -126 109q-50 -23 -135 -102
q-93 -82 -142 -108q-17 8 -54 33q-33 23 -55 32v-84q53 -29 189 -112q118 -72 191 -111q53 32 184 113q120 71 189 110v84zM1735 -334h-1469q-101 0 -173 72t-72 174v1469q0 101 72 173t173 72h1469q102 0 174 -72t72 -173v-1469q0 -102 -72 -174t-174 -72z" />
    <glyph glyph-name="five" unicode="5" 
d="M1032 924v-564q6 -10 10 -10h495q109 0 161 142v56l-16 43q-55 101 -145 101h-25q-12 0 -51 -9h-4q-7 57 -21 87q-96 188 -285 188q-109 -13 -119 -34zM975 898q0 -148 -6 -371q6 -109 6 -157q0 -11 13 -20h11q12 5 15 16q0 49 8 140q-6 131 -8 390q0 11 -15 20h-11
q-10 -6 -13 -18zM917 873q0 -105 -4 -381q4 -65 4 -119q0 -3 4 -9q-4 0 -4 -4q9 -10 12 -10h12l6 3q7 0 13 160q-6 285 -9 360l-10 9h-12zM746 832l-9 -322q0 -28 3 -28q0 -132 16 -132h6l12 9l7 151q0 43 -7 321q-8 10 -12 10h-6zM802 825q0 -56 -7 -298l-1 -19
q8 -86 8 -144q0 -9 11 -14h9l10 9l9 151l-9 312q-4 10 -16 13zM689 822l-9 -312q0 -36 4 -36q0 -124 16 -124h9q8 0 17 160q-9 269 -12 297q3 0 3 4q-7 18 -14 20h-3zM866 822q-9 0 -14 -304q4 -25 10 -159q2 -9 17 -9h2l12 9q0 19 7 149l-7 305q-5 12 -20 12zM632 788
l-8 -280q0 -20 3 -20q0 -133 14 -138h11q4 5 17 160q-7 75 -10 284q-9 11 -13 11h-5q-6 0 -9 -17zM567 508q0 -16 3 -16q4 -142 16 -142h4q13 0 20 156q0 36 -12 238q-5 6 -8 6h-6q-9 0 -17 -242zM457 510q7 -157 17 -157h2q10 0 21 153q-8 163 -21 163h-2q-9 0 -17 -159z
M400 508q13 -149 21 -149h2q5 2 19 149q-13 157 -21 157q-9 0 -21 -157zM510 508q12 -121 12 -148q0 -7 5 -7h9q6 0 16 153q-2 55 -5 55q0 100 -14 100h-2q-10 0 -21 -153zM346 510q11 -130 21 -130q5 0 19 130q-12 119 -19 131q-10 0 -21 -131zM299 508q8 -80 14 -80
q10 0 16 80q-6 85 -16 85q-6 0 -14 -85zM1735 -334h-1469q-101 0 -173 72t-72 174v1469q0 101 72 173t173 72h1469q102 0 174 -72t72 -173v-1469q0 -102 -72 -174t-174 -72z" />
    <glyph glyph-name="six" unicode="6" 
d="M987 233q-91 0 -158 24.5t-124 81.5q-51 45 -51 99q0 40 25 60t55 20q50 0 108 -76q16 -18 30.5 -27.5t46.5 -21.5q47 -16 96 -16q72 0 114 47q26 27 26 51q0 4 -3 20.5t-31 36.5q-49 37 -145 49q-134 23 -215 77q-98 62 -98 157l2 20q11 114 84 173.5t167 68.5
q34 3 67 3q163 0 266 -97q53 -41 53 -94q0 -35 -28 -58q-23 -19 -46 -19q-20 0 -42.5 18.5t-51 42.5t-66.5 48t-87 24q-48 0 -86 -23q-59 -36 -59 -79q0 -18 14 -42t74 -39t122 -27q225 -46 279 -180q15 -34 15 -70q0 -21 -10.5 -59t-53 -83.5t-102 -74.5t-127.5 -32
q-31 -3 -60 -3zM1275 43q138 0 239 100t101 242q0 105 -61 190q7 40 7 78q0 118 -45 222q-91 210 -301 301q-105 45 -222 45q-69 0 -92 -6q-83 55 -184 55q-138 0 -237.5 -99.5t-99.5 -241.5q0 -100 55 -188q-11 -43 -11 -88q0 -118 45.5 -221.5t121.5 -180.5t180 -121
t222 -44q53 0 105 8q82 -51 177 -51zM1735 -334h-1469q-101 0 -173 72t-72 174v1469q0 101 72 173t173 72h1469q102 0 174 -72t72 -173v-1469q0 -102 -72 -174t-174 -72z" />
    <glyph glyph-name="seven" unicode="7" 
d="M956 44q6 0 41 8q79 29 122 92q25 0 59 22q69 49 101 139q3 15 11 15v-2q14 2 27 12q10 4 34 57q22 62 22 107q24 16 24 27q33 20 88 73q60 72 71 107q30 60 36 122q2 0 3 23q1 0 1 10l-1 1q1 1 3 15l-2 1l2 8q0 22 -2 28q2 0 2 1q-2 15 -3 15h1l-1 9q-16 83 -38 130
q-19 41 -57 93q-34 33 -54 33q-16 0 -35 -8q-31 -24 -31 -47l1 -14q27 -69 27 -85q-3 0 -3 -3q3 -5 3 -35l-3 -11q3 0 3 -1q-3 -2 -3 -11q-8 -37 -16 -47q-3 1 -19 29q-30 34 -31 37q-29 26 -29 28q23 14 23 40q0 31 -63 78q-61 40 -114 44q0 -2 -3 -2q0 2 -7 3l-1 -1
q0 1 -22 1q-17 0 -21 -1v1q-10 -1 -11 -3v2q-14 0 -52 -10q18 26 18 41q0 4 -3 17q-16 33 -43 33q-8 0 -14 -4q-62 -19 -116 -71q-38 -39 -50 -81h-6q-1 2 -5 2l-2 -2q0 3 -16 3q-1 1 -17 1q-52 0 -101 -23q-50 -20 -50 -50t27 -46q21 -7 21 -8q-21 -15 -42 -41
q-25 -31 -26 -31q-14 23 -20 65l-2 7l2 3l-5 6l3 2l-3 5v18l3 6q-3 0 -3 2l5 8h-2q2 0 2 7q5 27 12 46q12 30 12 42q0 16 -12 35q-22 22 -38 24v-2q0 2 -12 2q-21 0 -52 -27q-54 -66 -83 -149q-9 -35 -19 -80q3 0 3 -1q-2 0 -4 -19l1 -4l-1 -11q0 -45 4 -53h-3
q10 -69 15 -78q0 -22 45 -105q64 -96 126 -130q16 -77 38 -77q8 -34 16 -62q48 -113 82 -113l17 -42q15 -28 56 -65q50 -35 92 -35q19 -21 22 -30q1 -28 5 -35q18 -30 40 -30zM964 93h-5q0 35 -24 65q-46 42 -46 100q-10 -22 -10 -55q0 -6 2 -17l-20 8q-60 25 -89 95
q-23 64 -23 110l-1 1q-16 -42 -16 -70q-12 13 -21 28q-33 64 -39 126h3q-3 2 -4 11l1 2l-1 9q0 20 1 27h-1q1 18 4 26v12l-6 -5q-14 -27 -23 -63h-4l-17 76h1q0 2 -3 7l2 1l-3 17l1 1q-1 3 -1 38q1 31 3 38l-2 1q14 86 61 152q-15 0 -66 -34q15 62 60 117q40 42 69 54
q17 8 20 8v3q-43 50 -84 54q26 17 69 28q14 2 15 3v-1l11 1l26 -1q0 1 1 1q0 -1 5 -3l3 2q0 -2 11 -4q0 2 1 2l42 -13q0 54 49 106q41 42 91 58q0 -3 -10 -20q-25 -60 -28 -106h3q44 34 108 46v-1l16 2v-1q11 1 13 3q0 -2 2 -2q23 0 29 2q0 -3 17 -3l4 -1l2 1q21 -7 47 -18
q37 -12 75 -55q-22 0 -34 -2v2l-18 -2q-23 -2 -53 -20q30 -8 59 -27q28 -15 81 -72q41 -53 57 -95l-20 3q0 3 -28 3l-1 -3q49 -91 54 -145q-1 0 -1 -1q1 -6 1 -8.5t2 -12.5l-2 -7l2 -6l-2 -7q0 -3 2 -10q-4 -18 -4 -32q-11 -50 -28 -81q0 12 -9.5 38.5t-18.5 39.5l4 -46
l-1 -1q2 -12 2 -29q0 -19 -2 -28q1 0 1 -3q0 -22 -13 -81q-11 -34 -28 -63q-1 14 -24 99h-1v-16l-2 -5h2q0 -45 -23 -117q-37 -101 -109 -135q6 20 6 38q0 27 -9 40q-12 -38 -27 -69q-25 -47 -77 -85q-26 -15 -59 -23zM577 594q-16 12 -23 20q-57 60 -82 125q-17 45 -25 91
q-1 14 -3 16h2l-2 12q0 45 2 57l-2 2q2 0 3 9q-1 0 -1 2q1 0 2 4t2 6q-3 0 -3 3q11 48 20 71q11 42 59 111q21 24 31 27q19 -4 19 -21q0 -8 -11 -28q-16 -43 -16 -65l3 -3q-3 0 -3 -20q0 -18 3 -22h-3q3 -21 5 -24h-1l1 -4q4 -44 35 -93q-21 -55 -21 -71q0 -27 26 -42v-3
q-18 -53 -18 -111q0 -38 1 -49zM1423 594h-1q8 44 8 80q-2 30 -3 33h1q0 27 -25 98q21 20 21 39q0 14 -9 32q35 75 35 115l-3 3q3 0 3 18q0 13 -3 20h3q0 13 -11 57q-15 35 -15 49q4 8 17 12q5 0 14 -7q48 -60 65 -99t30 -97h-1q1 -9 3 -14h-2q0 -3 3 -7h-1l1 -10
q0 -10 1 -11l-1 -3q1 -8 1 -21q0 -12 -1 -23q1 0 1 -1q-1 -1 -1 -11q-1 -1 -1 -9l1 -2q-1 0 -3 -5h2q-1 0 -3 -12l1 -2q-28 -136 -127 -222zM850 723q2 0 9 3q30 9 30 36q0 30 -38 38q-38 -9 -38 -36v-10q12 -31 37 -31zM1133 723l11 3q28 12 28 32v10q-9 32 -38 32
q-1 -1 -7 -1q-28 -11 -28 -33q0 -12 1 -16q13 -27 33 -27zM1010 377q20 2 23 4v-1q59 11 100 47q39 40 39 80v10q0 47 -58 95q-43 28 -94 32v-1q0 1 -43 1q-24 -1 -27 -4v3q-16 0 -64 -23q-73 -45 -73 -107q0 -56 52 -98q61 -36 104 -36q0 -2 8 -2l1 2v-2q26 0 30 2
q0 -2 2 -2zM1001 425q-1 2 -7 2q-4 0 -9 -2q-57 8 -85 24q-41 31 -41 64q0 32 46 64q23 14 72 23l1 -2l14 2l15 -2l1 2q34 -6 53 -14q62 -32 62 -73q0 -34 -36 -62q-38 -24 -73 -24q-11 0 -13 -2zM917 495q11 0 15 18q0 11 -15 17l-1 -1l-7 1q-15 -8 -15 -17q0 -12 18 -18h5
zM1076 495q12 0 15 19q-4 16 -16 16q-17 -4 -17 -21q0 -14 18 -14zM1735 -334h-1469q-101 0 -173 72t-72 174v1469q0 101 72 173t173 72h1469q102 0 174 -72t72 -173v-1469q0 -102 -72 -174t-174 -72z" />
    <glyph glyph-name="eight" unicode="8" 
d="M1055 1281q-63 0 -85 -85v-21q0 -28 46 -152q-230 -80 -238 -80h-7q-39 187 -121 187h-18q-88 0 -101 -101v-6l41 -154q-192 -40 -192 -124q0 -112 99 -112h13q28 0 153 44q67 -222 80 -236q-194 -53 -194 -133q16 -114 94 -114q45 0 158 41h9q40 -192 137 -192
q106 17 106 99q0 20 -46 159q77 33 238 87q39 -194 140 -194q87 0 105 107q0 8 -46 152q192 41 192 132v21q0 69 -99 92q-10 0 -152 -47q-14 0 -87 232v7q187 46 187 121v32q0 64 -87 87h-27q-28 0 -133 -41h-5q-52 192 -126 192h-34zM842 738q23 14 234 86q10 -5 85 -245
q-232 -74 -245 -74q0 13 -74 233zM1735 -334h-1469q-101 0 -173 72t-72 174v1469q0 101 72 173t173 72h1469q102 0 174 -72t72 -173v-1469q0 -102 -72 -174t-174 -72z" />
    <glyph glyph-name="nine" unicode="9" 
d="M998 65q121 0 222 90q337 256 449 760l5 64q0 231 -231 231q-77 0 -159 -40q-154 -72 -196 -255q55 30 95 30q97 0 97 -133q0 -106 -102 -265q-55 -81 -90 -81q-55 0 -136 269l-18 85q-77 407 -205 407q-64 0 -104.5 -11t-57.5 -20l-16 -13q-60 -55 -111.5 -116.5
t-81.5 -105.5l-29 -46l46 -47l46 42q31 18 61 18q51 0 69 -60q123 -462 225 -671q90 -132 222 -132zM1735 -334h-1469q-101 0 -173 72t-72 174v1469q0 101 72 173t173 72h1469q102 0 174 -72t72 -173v-1469q0 -102 -72 -174t-174 -72z" />
    <glyph glyph-name="colon" unicode=":" 
d="M1096 66q140 0 223 31l28 11q111 61 156 127l21 31q59 91 72 294q0 17 -25 17q-99 0 -194 -29q-237 -71 -283 -336q-14 -110 -16 -131q0 -15 18 -15zM1204 989v70q-8 84 -66 141t-140 57q-83 0 -141 -57t-65 -141h-1v-70h413zM900 66q18 0 18 15q-2 21 -18 131
q-48 265 -282 336q-95 29 -193 29q-17 0 -21 -3t-4 -11q15 -208 72 -297q10 -17 19 -31t49 -51q61 -58 137 -87q83 -31 223 -31zM1058 68v418q103 20 170.5 90.5t75.5 168.5q3 30 3 62v61h-103v64h-413v-64h-103q0 -62 2 -123q8 -98 76 -168.5t172 -90.5v-418h120zM1058 540
v59h-1q62 20 102 70t45 118v20h47l-1 -37q-7 -86 -59 -147.5t-133 -82.5zM937 540q-81 21 -133 82.5t-59 147.5l-2 37h48q1 -84 45 -139q40 -51 102 -69h-1v-59zM1735 -334h-1469q-101 0 -173 72t-72 174v1469q0 101 72 173t173 72h1469q102 0 174 -72t72 -173v-1469
q0 -102 -72 -174t-174 -72z" />
    <glyph glyph-name="semicolon" unicode=";" 
d="M750 993q66 249 210 249q11 0 21 -7q-88 -31 -132 -210zM806 213q-62 0 -104 18.5t-62 38.5l-21 19l33 110l39 -28q46 -28 80 -28q52 0 52 49q0 40 -57 83q-83 61 -83 146q0 88 63.5 160t191.5 72q50 0 74 -9l24 -10l-48 -143l-13 6q-12 5 -33.5 10.5t-46.5 5.5
q-81 0 -81 -59q0 -28 60 -70q111 -73 111 -173q0 -181 -179 -198zM899 1041q43 134 109 155q17 -38 17 -110v-7zM1169 23l390 85l-68 463q-68 452 -70 465t-8.5 13.5t-54.5 3.5l-50 4l-60 60q-19 19 -29 19l-50 -12q-41 123 -133 123h-6q-33 39 -66 39q-122 0 -184.5 -110
t-80.5 -198q-130 -40 -140.5 -45.5t-14 -33.5t-49.5 -381l-47 -361zM1068 1092v14q0 59 -15 98q48 -8 76 -93zM1735 -334h-1469q-101 0 -173 72t-72 174v1469q0 101 72 173t173 72h1469q102 0 174 -72t72 -173v-1469q0 -102 -72 -174t-174 -72z" />
    <glyph glyph-name="semicolon" unicode="&#x37e;" 
d="M750 993q66 249 210 249q11 0 21 -7q-88 -31 -132 -210zM806 213q-62 0 -104 18.5t-62 38.5l-21 19l33 110l39 -28q46 -28 80 -28q52 0 52 49q0 40 -57 83q-83 61 -83 146q0 88 63.5 160t191.5 72q50 0 74 -9l24 -10l-48 -143l-13 6q-12 5 -33.5 10.5t-46.5 5.5
q-81 0 -81 -59q0 -28 60 -70q111 -73 111 -173q0 -181 -179 -198zM899 1041q43 134 109 155q17 -38 17 -110v-7zM1169 23l390 85l-68 463q-68 452 -70 465t-8.5 13.5t-54.5 3.5l-50 4l-60 60q-19 19 -29 19l-50 -12q-41 123 -133 123h-6q-33 39 -66 39q-122 0 -184.5 -110
t-80.5 -198q-130 -40 -140.5 -45.5t-14 -33.5t-49.5 -381l-47 -361zM1068 1092v14q0 59 -15 98q48 -8 76 -93zM1735 -334h-1469q-101 0 -173 72t-72 174v1469q0 101 72 173t173 72h1469q102 0 174 -72t72 -173v-1469q0 -102 -72 -174t-174 -72z" />
    <glyph glyph-name="less" unicode="&#x3c;" 
d="M1101 87q11 0 11 12q0 9 -11 21q-21 26 -21 59v218q21 0 21 -64l2 -146q0 -45 53 -64q19 -5 40 -5q26 0 27 8q0 4 -16 17q-36 21 -39 51v28q3 13 3 107q0 75 -12.5 110.5t-47.5 55.5q213 13 276 147h16q85 0 261 -44l6 4q0 4 -4 4q-175 46 -263 46h-11l9 25h38
q116 0 207 -19l22 -4v-1q5 0 5 5q0 4 -3 4q-84 24 -229 24h-37q13 55 16 130q-5 130 -68 193q-8 9 -11 15q7 44 7 76q0 23 -4 40q-7 39 -16 52h-15q-59 0 -165 -68q-63 16 -151 16q-110 0 -169 -21q-105 71 -163 71h-20l-9 -23q-14 -31 -14 -78q0 -36 12 -80l-4 -1
q-28 -35 -46.5 -72t-18.5 -108q0 -79 20 -142q-160 0 -256 -24q-4 0 -4 -4q0 -5 5 -5l2 1q101 23 235 23h22l10 -25q-124 -4 -219 -31q-18 -7 -34.5 -11t-18 -5.5t-1.5 -3.5q0 -4 6 -4q5 2 13 4q62 20 121 29q49 10 137 12q65 -123 280 -147q-44 -35 -49 -82
q-28 -16 -71 -16q-26 0 -50 7q-32 16 -59 54q-43 64 -89 64q-30 0 -30 -10q0 -9 12 -17q42 -21 71 -84q32 -97 143 -97q30 0 49 2l18 2v-123q0 -23 -34 -49q-19 -11 -19 -22q0 -8 31 -8q22 0 55 17.5t33 48.5v163q0 26 11 44q4 6 8 8l4 3v-116q0 -114 -5.5 -138t-18.5 -34
q-8 -8 -8 -15q0 -9 12 -9q21 0 44.5 15t36 41.5t12.5 145.5l-1 117h19l1 -106l-1 -71q0 -82 25 -108q35 -35 68 -35zM575 502q-10 0 -10 8q0 6 10 6q11 0 11 -6q0 -8 -11 -8zM607 484q-10 0 -10 7q0 8 10 8q11 0 11 -8q0 -7 -11 -7zM628 462q-11 0 -11 6q0 7 11 7
q10 0 10 -7q0 -6 -10 -6zM645 435q-11 0 -11 6q0 7 11 7t11 -7q0 -6 -11 -6zM665 409q-11 0 -11 7t11 7t11 -7t-11 -7zM692 388q-11 0 -11 7q0 6 11 6t11 -6q0 -7 -11 -7zM729 373q-10 0 -10 8q0 7 10 7q11 0 11 -7q0 -8 -11 -8zM767 373q-11 0 -11 8q0 7 11 7q10 0 10 -7
q0 -8 -10 -8zM804 380q-9 0 -9 7q0 6 9 6q11 0 11 -6q0 -7 -11 -7zM1005 526q-49 0 -95 2q-245 15 -245 188q0 48 35 94q51 59 142 59l25 -2q60 -5 139 -5q73 0 124 5l20 2q96 0 135.5 -51t39.5 -109q0 -168 -225 -181q-47 -2 -95 -2zM545 428q10 0 10 9l-6 26q-4 12 -4 21
q-2 -9 -6.5 -21.5t-4.5 -26.5q0 -8 11 -8zM997 559q16 0 26.5 9.5t10.5 21.5q-1 4 -5 4t-4 -6t-8 -13.5t-20 -7.5q-13 2 -22.5 9t-9.5 12.5t-4 5.5q-5 0 -5 -4q0 -5 5 -12q12 -19 36 -19zM996 611q16 2 16 17q0 16 -16 16q-8 0 -9.5 -2t-4 -5t-2.5 -9q0 -4 4 -9.5t12 -7.5z
M822 618q25 0 42 20q25 27 25 73t-25 76q-17 21 -42 23q-27 0 -46.5 -29t-19.5 -70q0 -42 19.5 -67.5t46.5 -25.5zM1180 618q29 0 48 25.5t19 67.5q0 41 -19 70t-48 29q-26 0 -45.5 -29t-19.5 -70q0 -42 19.5 -67.5t45.5 -25.5zM1735 -334h-1469q-101 0 -173 72t-72 174
v1469q0 101 72 173t173 72h1469q102 0 174 -72t72 -173v-1469q0 -102 -72 -174t-174 -72z" />
    <glyph glyph-name="equal" unicode="=" 
d="M950 784q-113 10 -155.5 28t-42.5 74q0 34 27 60q43 52 171 63v-225zM1062 308v242q126 -10 165.5 -27t39.5 -65q0 -119 -205 -150zM1115 11v24q-53 14 -53 53v49q191 11 305 101.5t114 231.5q0 268 -392 304h-27v231q96 -7 184 -52q60 -33 78.5 -53.5t18.5 -46.5l19 -10
l119 238l-17 13q-25 -20 -36 -20q-20 0 -32 10q-238 92 -334 92v46q0 37 53 51v22h-208v-22q43 -14 43 -51v-40q-191 -6 -297 -91.5t-106 -230.5q0 -146 89.5 -208t313.5 -83v-254q-146 14 -226.5 63t-80.5 106l-21 10l-107 -249l17 -9q22 14 32 14q17 0 24 -7
q191 -95 362 -106v-49q0 -39 -43 -53v-24h208zM1735 -334h-1469q-101 0 -173 72t-72 174v1469q0 101 72 173t173 72h1469q102 0 174 -72t72 -173v-1469q0 -102 -72 -174t-174 -72z" />
    <glyph glyph-name="greater" unicode="&#x3e;" 
d="M1377 69q12 0 12 11v675q60 20 166 20h36q8 0 10.5 2.5t2.5 161.5q0 11 -10 11q-219 0 -393 -73q-9 -3 -9 -14q6 -85 6 -104l-1 -677q0 -13 10 -13h170zM702 69q296 0 301.5 4t18.5 83t13 82q0 8 -9 8h-438q0 991 -2.5 994t-177.5 3q-13 0 -13 -11q0 -1154 3 -1158.5
t304 -4.5zM1735 -334h-1469q-101 0 -173 72t-72 174v1469q0 101 72 173t173 72h1469q102 0 174 -72t72 -173v-1469q0 -102 -72 -174t-174 -72z" />
    <glyph glyph-name="question" unicode="?" 
d="M1001 1261q-125 0 -234.5 -47t-192.5 -130t-130 -192.5t-47 -234.5t47 -234.5t130 -192.5t192.5 -130t234.5 -47t234.5 47t192.5 130t130 192.5t47 234.5t-47 234.5t-130 192.5t-192.5 130t-234.5 47zM1456 911q32 -58 48 -122h-202q-11 63 -33 122h187zM1247 570
l-58 173l36 16l42 -134l31 86h40l31 -86l40 134l36 -16l-56 -173l-36 -15l-35 118l-36 -118zM1251 525q-12 -63 -37 -122h-187v122h224zM1369 1025q31 -30 55 -63h-176q-52 114 -145 206q153 -30 266 -143zM1027 1170q106 -90 165 -208h-165v208zM1027 911h187
q25 -59 37 -122h-224v122zM975 1168v-206h-163q57 116 163 206zM753 789q12 63 35 122h187v-122h-222zM813 743l-58 -173l-35 -15l-36 118l-35 -118l-36 15l-56 173l36 16l40 -134l31 86h40l31 -86l42 134zM633 1025q113 113 266 143q-93 -92 -144 -206h-177q24 33 55 63z
M546 911h188q-22 -59 -34 -122h-202q16 64 48 122zM546 403q-32 58 -48 122h202q12 -61 34 -122h-188zM633 289q-31 30 -55 65h176q52 -116 145 -208q-153 30 -266 143zM975 146q-106 90 -165 208h165v-208zM975 403h-187q-23 59 -35 122h222v-122zM1001 673l-36 -118
l-35 15l-58 173l36 16l42 -134l31 86h40l31 -86l40 134l37 -16l-57 -173l-36 -15zM1027 144v210h165q-58 -118 -165 -210zM1369 289q-113 -113 -266 -143q93 92 145 208h176q-24 -35 -55 -65zM1456 403h-187q22 61 33 122h202q-16 -64 -48 -122zM1735 -334h-1469
q-101 0 -173 72t-72 174v1469q0 101 72 173t173 72h1469q102 0 174 -72t72 -173v-1469q0 -102 -72 -174t-174 -72z" />
    <glyph glyph-name="at" unicode="@" 
d="M1735 -334q102 0 174 72t72 174v1469q0 101 -72 173t-174 72h-1469q-101 0 -173 -72t-72 -173v-1469q0 -102 72 -174t173 -72h1469z" />
    <glyph glyph-name="A" unicode="A" 
d="M1006 2l47 184q75 -15 137 -15q59 0 109 14q101 27 147 155q17 53 17 98q0 120 -118 171q132 22 143 197q0 149 -225 224l46 183l-112 28l-44 -179q-45 12 -89 22l43 179l-111 28l-45 -183l-73 15v2l-153 38l-30 -120l81 -18q54 -15 54 -60l-54 -215l13 -4h-4q-4 3 -9 3
l-73 -292q-9 -28 -37 -28q-14 1 -95 21l-56 -128l226 -58l-47 -184l113 -28l44 184q46 -13 90 -23l-45 -183zM1088 333q-69 0 -200 36l61 248l29 -8q256 -49 256 -165q0 -14 -3 -29q-18 -61 -63.5 -71.5t-79.5 -10.5zM1140 699q-71 0 -162 31l55 222q9 -4 23 -5
q213 -40 213 -144q-7 -82 -58 -95q-40 -9 -71 -9zM1735 -334h-1469q-101 0 -173 72t-72 174v1469q0 101 72 173t173 72h1469q102 0 174 -72t72 -173v-1469q0 -102 -72 -174t-174 -72z" />
    <glyph glyph-name="B" unicode="B" 
d="M1735 -334h-1469q-101 0 -173 72t-72 174v1469q0 101 72 173t173 72h1469q102 0 174 -72t72 -173v-1469q0 -102 -72 -174t-174 -72zM909 439l68 425h-110l-68 -425h110zM548 828q-8 35 -49 36h-177l-2 -9q65 -17 116 -47l98 -369h116l173 425h-116l-108 -290l-12 59z
M1678 439l-88 425h-86q-42 0 -58 -35l-163 -390h115l24 63h141l13 -63h102zM1101 433q86 0 138 39.5t52 108.5t-92 113q-62 28 -62 51q0 10 6.5 18t20.5 14t37 6q49 0 91 -21l14 92q-40 17 -97 17q-81 0 -133 -38.5t-53 -101.5q0 -73 97 -116q56 -27 56 -52q-2 -42 -66 -42
q-59 0 -117 29l-16 -95q44 -20 124 -22zM1545 589l-33 160l-59 -160h92z" />
    <glyph glyph-name="C" unicode="C" 
d="M976 778h-117l53 228h122q32 0 54 -16q33 -25 33 -68q0 -59 -47 -103q-41 -41 -98 -41zM976 860q18 0 38 15q24 20 24 40l1 6q0 3 -61 3l-16 -64h14zM970 73h-416l42 187h-184l224 997h489q152 0 253 -115q36 -38 54 -114q151 -80 151 -252q0 -40 -9 -88
q-107 -338 -430 -338h-113zM763 342l61 276h181q153 0 258 106q63 66 87 168q8 34 8 64q0 64 -25 108q-34 57 -92 84t-116 27h-422l-188 -833h248zM904 155l61 277h179q125 0 221 71t128 202q5 38 5 69q0 98 -59 150q-2 -24 -8 -50q-107 -338 -429 -338h-114l-59 -276h-148
l-24 -105h247zM1735 -334q102 0 174 72t72 174v1469q0 101 -72 173t-174 72h-1469q-101 0 -173 -72t-72 -173v-1469q0 -102 72 -174t173 -72h1469z" />
    <glyph glyph-name="D" unicode="D" 
d="M1359 138q48 0 59 47l194 932q1 20 -12.5 32t-28.5 12q-6 0 -1157 -430q-29 -11 -29 -41q3 -28 30 -37l280 -87l113 -340q11 -30 44 -30q16 0 28 12l159 150l286 -209q17 -11 34 -11zM847 310l-85 283q611 390 615 390q16 0 16 -11q0 -1 -0.5 -4.5t-526.5 -478.5z
M1735 -334h-1469q-101 0 -173 72t-72 174v1469q0 101 72 173t173 72h1469q102 0 174 -72t72 -173v-1469q0 -102 -72 -174t-174 -72z" />
    <glyph glyph-name="E" unicode="E" 
d="M1524 168q85 0 119.5 25.5t34.5 85.5v762q0 46 -33 79t-79 33h-1137v-1q-46 0 -79 -32.5t-33 -78.5v-762q0 -46 33 -78.5t79 -32.5h1095zM996 766l-484 359h972zM495 221v625l452 -311zM1485 195h-977l464 324q15 -11 24 -11q4 0 23 11zM1496 221l-452 314l452 311v-625z
M1735 -334h-1469q-101 0 -173 72t-72 174v1469q0 101 72 173t173 72h1469q102 0 174 -72t72 -173v-1469q0 -102 -72 -174t-174 -72z" />
    <glyph glyph-name="F" unicode="F" 
d="M1361 346q94 0 161 66t67 160q0 96 -68.5 161.5t-159.5 65.5q-56 0 -103 -24q-124 -71 -124 -203q0 -94 66 -160t161 -66zM998 436q0 196 144 348q103 107 219 107l-43 33q-131 103 -320 103q-190 0 -321 -103l-43 -33q116 0 217 -106q147 -153 147 -349zM634 346
q94 0 161 66t67 160q0 135 -130 204q-44 23 -98 23q-88 0 -151 -58q-76 -68 -76 -169q0 -94 66 -160t161 -66zM1361 254q-159 0 -273 136l-90 -136l-92 136q-113 -136 -272 -136q-140 0 -229 89t-89 229q0 103 91 227q-83 21 -91 92h227q183 182 455 182t454 -182h227
l-5 -26q-19 -49 -85 -66q27 -38 54 -92q36 -73 36 -135q0 -140 -89 -229t-229 -89zM1361 526q-19 0 -32.5 13.5t-13.5 32.5t13.5 32.5t32.5 13.5t32.5 -13.5t13.5 -32.5t-13.5 -32.5t-32.5 -13.5zM1361 482q37 0 64 26.5t27 63.5q0 38 -27 64.5t-64 26.5q-38 0 -64.5 -26.5
t-26.5 -64.5q0 -37 26.5 -63.5t64.5 -26.5zM1361 436q-57 0 -96.5 40t-39.5 96q0 57 39.5 96.5t96.5 39.5q56 0 96 -39.5t40 -96.5q0 -56 -40 -96t-96 -40zM634 526q-19 0 -32.5 13.5t-13.5 32.5t13.5 32.5t32.5 13.5t32.5 -13.5t13.5 -32.5t-13.5 -32.5t-32.5 -13.5z
M634 482q38 0 65 26.5t27 63.5q0 38 -27 64.5t-65 26.5t-64.5 -26.5t-26.5 -64.5q0 -37 26.5 -63.5t64.5 -26.5zM634 436q-57 0 -96.5 40t-39.5 96q0 57 39.5 96.5t96.5 39.5q56 0 96 -39.5t40 -96.5q0 -56 -40 -96t-96 -40zM1736 -334q102 0 174 72t72 174v1469
q0 101 -72 173t-174 72h-1469q-101 0 -173 -72t-72 -173v-1469q0 -102 72 -174t173 -72h1469z" />
    <glyph glyph-name="G" unicode="G" 
d="M1338 685q1 3 1 14q0 66 -63 66q-26 0 -43 -12.5t-21 -25.5t-4 -20q0 -8 4 -15q21 6 46 6q55 0 80 -13zM1298 52h-42q-148 0 -213 46q-51 44 -51 143q0 45 15 70q38 49 79 58t69 9l34 -2v-88l-32 1q-13 0 -26.5 -1.5t-16.5 -16t-3 -23.5q0 -48 42 -48q26 0 47 -2.5
t36 -2.5q30 0 49 11q21 20 21.5 46t0.5 36q0 34 -8 68q-14 43 -36 57q-35 16 -99 30q-113 23 -126 48q-7 14 -13.5 30.5t-10.5 16.5t-7 -25q-12 -78 -44 -100q-12 -6 -40 -6q-95 0 -236 42q-84 23 -105 52q-11 22 -33 118q-48 216 -48 302q0 12 2 23.5t18.5 32.5t53.5 23
q36 0 66.5 -1t52.5 -1q46 0 57 16q14 40 14 124v69q0 63 150 63q163 0 179 -94q36 -2 66 -3.5t79 -4.5q41 -3 112 -5q84 -9 117 -69q22 -41 22 -88v-28l6 -99q7 -97 7 -187q0 -528 -159 -631q-15 -7 -46 -9zM692 1025l-38 -1q-61 0 -97 2q-26 3 -26 5l91 96q87 93 99 93
q11 -5 11 -92q0 -35 -2 -63.5t-9 -33.5t-29 -6zM1736 -334q102 0 174 72t72 174v1469q0 101 -72 173t-174 72h-1469q-101 0 -173 -72t-72 -173v-1469q0 -102 72 -174t173 -72h1469z" />
    <glyph glyph-name="H" unicode="H" 
d="M1368 260q-104 0 -200 32.5t-147 109.5q-43 78 -76 174q-50 140 -106.5 223.5t-161.5 83.5q-205 0 -205 -246q0 -96 47 -164q51 -75 154 -75q58 0 98 20t60.5 41t22.5 23l66 -131q-4 -11 -25 -31t-72.5 -38t-149.5 -18q-184 0 -268.5 118t-84.5 230q0 183 61.5 272.5
t145 118t150.5 28.5q128 0 206 -65t125 -157.5t79 -181t66 -149.5q56 -84 213 -84q42 0 80 8q83 24 83 76q0 31 -33.5 50t-118.5 44q-85 21 -166 67.5t-81 159.5q0 84 58.5 148.5t161.5 80.5q24 4 48 4q77 0 152 -35q95 -49 134 -157l-145 -45q-35 88 -145 88q-20 0 -51 -11
q-65 -22 -65 -73q0 -26 32.5 -43.5t110.5 -40.5q90 -22 176 -70t86 -167q0 -156 -195 -204q-58 -14 -120 -14zM1736 -334q102 0 174 72t72 174v1469q0 101 -72 173t-174 72h-1469q-101 0 -173 -72t-72 -173v-1469q0 -102 72 -174t173 -72h1469z" />
    <glyph glyph-name="I" unicode="I" 
d="M1663 488h-376l-12 7l-429 740h376q10 0 441 -747zM1469 73h-863q195 334 202 334h855zM533 111l-197 336l434 749l197 -337zM1736 -334q102 0 174 72t72 174v1469q0 101 -72 173t-174 72h-1469q-101 0 -173 -72t-72 -173v-1469q0 -102 72 -174t173 -72h1469z" />
    <glyph glyph-name="J" unicode="J" horiz-adv-x="1999" 
d="M908 979h-1q-3 0 -3 5q0 10 21 10q-8 0 -11.5 -7.5t-5.5 -7.5zM988 984h-1q-3 0 -7.5 4t-8.5 4h-4q8 4 13 4q7 0 10 -6v-2q0 -2 -2 -4zM715 636q3 0 9 5q7 8 10 19l1 4q2 5 2 6q0 5 -4 5t-6.5 -10.5t-11.5 -19.5q-3 -4 -3 -6q0 -3 3 -3zM879 65q18 10 18 29q0 16 -13 38
q-3 6 -7.5 11.5t-7 8.5t-2.5 4v0q6 9 15 9q5 0 9 -3q26 -29 83 -29q17 0 38 3q95 11 127 63q14 23 22 23q10 0 10 -29q0 -25 -17 -77q-4 -13 -4 -22q0 -2 1 -8.5t17 -7.5q2 14 10 56q10 52 10 71q0 15 -5 47q-5 34 -5 64q0 3 0.5 20.5t16.5 36.5q11 13 36 13q1 27 25 38
q19 9 39 9q36 0 57 -17q0 12 -40 29q3 12 5.5 21t4 18.5t2 14.5t0.5 11q0 3 -0.5 10t-0.5 11t-2.5 16t-3 14.5t-3.5 18t-4 19.5q-7 34 -33.5 74t-52.5 54q18 -14 41 -60q46 -86 46 -153q0 -25 -6 -48q-9 -31 -43 -31q-17 0 -22 15t-5.5 59.5t-8.5 77.5q-19 84 -48 111l-6 5
q-20 87 -43 115q-30 34 -30 61q0 13 6 31q4 15 4 25q0 6 -2.5 14.5t-30.5 14.5q-11 2 -32.5 13t-25.5 11q-9 1 -9 27q0 15 8 31.5t30 16.5q23 0 32 -21q5 -15 5 -27q0 -8 -2 -15q-4 -8 -4 -12q0 -10 11 -10q6 0 14.5 3t8.5 26q0 62 -26 84q-15 14 -36 16q-66 -4 -66 -72
q0 -11 2 -24q0 -11 -1 -11q-9 8 -33 8q-8 0 -13 -1h-3q-6 0 -8 4v7q0 36 -12 59.5t-33 23.5q-18 0 -29 -21q-12 -24 -12 -47q0 -9 3 -23.5t9 -25t10 -10.5q8 0 13 10l1 4q0 2 -5 2h-1q-5 0 -11.5 11t-6.5 26q0 34 29 34q14 0 21.5 -15t7.5 -28q-1 -13 -2 -16
q-15 -11 -22 -20.5t-20.5 -17.5t-13.5 -9q-12 -12 -12 -23q0 -7 5 -9q20 -13 29.5 -28t45.5 -15q32 0 68 11q1 1 16.5 5t25.5 7.5t21 10t15 13t10 6.5q2 0 6 -2t4 -7q0 -10 -15 -14q-26 -8 -75 -30q-42 -18 -69 -18q-15 0 -38 3l-4 1q-2 0 -2 -2q0 -3 12 -14q18 -16 47 -16
q12 0 27 5q27 8 51 23q39 24 49 24q7 0 9 -9q0 -5 -7.5 -10t-12.5 -6l-15 -8q-20 -10 -48 -31q-47 -36 -68 -36q-8 0 -16 3q-15 9 -46 54q-12 17 -16 17q-2 0 -2 -9q0 -27 -32 -80q-11 -18 -16 -43q-1 -7 -1 -13q0 -17 9 -33q-16 -4 -44.5 -65t-34.5 -101q-1 -9 -1 -28v-34
q0 -26 -4 -31q-3 -10 -9 -10q-5 0 -12 7q-26 26 -26 78q0 15 4 31v9q0 4 -1 4h-1q-14 -18 -14 -50q0 -33 18 -74q4 -9 19 -20t17 -15q15 -16 75.5 -64.5t67.5 -55.5q12 -11 12 -31q0 -14 -10.5 -28t-32.5 -16q6 -11 21.5 -32t20.5 -39t5 -52zM896 1011q3 0 3 13q0 6 -4 14
t-9 8t-5 -5q1 -4 4 -4q5 0 5 -6v-11q0 -9 6 -9zM1189 851q6 0 9 5t3 11q0 14 -14 16.5t-22 14.5q-5 7 -7 9l-4 -2q-3 -5 -3 -11q0 -8 11 -24q16 -19 27 -19zM1065 1021q2 0 6 2l1 2q0 8 -3.5 14t-7.5 9t-7 3q-7 0 -7 -3q0 -1 2 -3q13 -4 16 -23v-1zM1066 1173q1 0 3 1.5
t7.5 5.5t11.5 7h6t10 1.5t8 5.5q0 1 -2.5 3t-7 5t-5.5 5q-12 10 -18 10q-10 0 -10 -11l2 -8q0 -4 -5 -11t-5 -9q0 -1 2 -3t3 -2zM1257 -5q-66 0 -86 47q-9 20 -51 21q-31 1 -94 1q-105 0 -140 -15q-25 -10 -38 -20q-34 -30 -68 -30q-22 0 -82.5 22t-106.5 32l-72 13
q-39 8 -53.5 17.5t-14.5 28.5q0 14 10 40.5t10 36.5q0 11 -3 26.5t-6.5 27.5t-3.5 24v9t7 15q10 8 41 9.5t44 9.5q22 12 30.5 24.5t8.5 37.5q4 -16 4 -28q0 -33 -27 -49q-19 -12 -47 -12l-22 1q-26 0 -26 -20q0 -16 13 -41q10 -21 10 -36q0 -16 -12 -41q-10 -22 -10 -32
q0 -14 27 -22q14 -4 61 -13t72 -14q17 -5 54 -17q64 -19 89 -19h10q31 4 47 20.5t16 40.5q0 17 -6 38t-13 35t-14 27q-88 138 -122 174.5t-60 36.5q-12 0 -22 -7q-2 -2 -3 -2q-9 0 -9 34q0 37 24 78q11 17 16 31q37 100 41 108q23 56 49 83q80 103 90 141q-9 81 -11 224v12
q0 57 18 99.5t75 73.5q29 15 84 15q34 0 70.5 -10t62.5 -30q41 -29 66 -87q22 -50 22 -94l-1 -31q0 -169 118 -295q39 -42 72 -118q47 -109 47 -185q0 -7 -1 -23t-8 -30.5t-14 -16t-17 -13.5t-20 -25.5t-29 -24t-41 -10.5q-15 0 -27 3.5t-24 20.5q-10 12 -16 30
q-13 21 -25 21q-2 0 -10.5 -2.5t-14.5 -33.5q-3 -10 -3 -22q0 -22 7.5 -48t7.5 -62q0 -34 -6 -79q-2 -12 -2 -23q0 -30 15 -49q19 -24 48 -24q2 0 19.5 1t46.5 25q43 35 65 47.5t75 31.5q69 22 69 47q0 1 -2 8t-16 16.5t-37.5 17t-35 33t-11.5 48.5q0 3 0.5 17.5t10.5 22.5
q1 -23 6 -41q9 -34 26 -50q13 -14 30 -23q24 -13 33.5 -24t9.5 -24q0 -5 -2 -12q-3 -9 -28 -28q-16 -13 -44 -25l-24 -11q-71 -35 -136 -97q-15 -15 -60 -15zM1735 -334q102 0 174 72t72 174v1469q0 101 -72 173t-174 72h-1469q-101 0 -173 -72t-72 -173v-1469
q0 -102 72 -174t173 -72h1469z" />
    <glyph glyph-name="K" unicode="K" 
d="M741 188q-33 0 -55.5 23t-22.5 55t22.5 55t55.5 23q32 0 54.5 -23t22.5 -55t-22.5 -55t-54.5 -23zM1287 187q-32 0 -54.5 22.5t-22.5 54.5q0 33 22.5 55.5t54.5 22.5q33 0 55.5 -22.5t22.5 -55.5q0 -32 -22.5 -54.5t-55.5 -22.5zM569 712q-32 0 -55 22.5t-23 54.5
q1 33 23.5 55.5t54.5 22.5t54.5 -23t22.5 -55t-22.5 -54.5t-54.5 -22.5zM1017 1032q-33 0 -55.5 22.5t-22.5 54.5q1 34 23 56t55 22q32 0 54.5 -22.5t22.5 -55.5q0 -32 -22.5 -54.5t-54.5 -22.5zM1456 712q-32 0 -54.5 22.5t-22.5 54.5t22.5 55t54.5 23t55 -23t23 -55
t-23 -54.5t-55 -22.5zM950 701l150 193q3 2 58 2q60 0 60 -7q0 -3 -91.5 -117.5t-91.5 -117.5q0 -2 103.5 -129t103.5 -129q0 -8 -6 -8q-107 0 -108 3l-178 211l-23 3q0 -213 -2 -214q-1 -3 -47 -3q-47 0 -48 2t-1 256q0 255 1 256t48 1q46 0 47 -1q2 -1 2 -201h23z
M1736 -334q102 0 174 72t72 174v1469q0 101 -72 173t-174 72h-1469q-101 0 -173 -72t-72 -173v-1469q0 -102 72 -174t173 -72h1469zM994 1301q166 0 323.5 -85t246.5 -243t89 -331q0 -171 -86.5 -327t-243.5 -243t-329 -87q-170 0 -327 87t-243.5 243t-86.5 327
q0 173 88.5 331t245.5 243t323 85z" />
    <glyph glyph-name="L" unicode="L" 
d="M1304 1286v0h295l-439 -774l284 -499h-297l-284 499zM737 1053v0l164 -292l-220 -364h-279l220 364l-165 292h280zM1736 -334q102 0 174 72t72 174v1469q0 101 -72 173t-174 72h-1469q-101 0 -173 -72t-72 -173v-1469q0 -102 72 -174t173 -72h1469z" />
    <glyph glyph-name="M" unicode="M" 
d="M625 1097q54 0 58 3.5t4 27.5q0 25 -4 28.5t-58 3.5t-58.5 -3.5t-4.5 -28.5q0 -24 4.5 -27.5t58.5 -3.5zM1029 413q61 0 110.5 29t78.5 79t29 110q0 59 -29 108.5t-78.5 79.5t-110.5 30q-60 0 -109 -30t-78.5 -79.5t-29.5 -108.5q0 -60 29.5 -110t78.5 -79t109 -29z
M998 164q560 0 573 1q37 3 68 25q44 32 44 98v623q0 66 -44 98q-31 22 -68 25q-13 1 -261 1l-63 125h-435l-62 -125h-311l-14 -1q-36 -3 -67 -25q-44 -32 -44 -98v-623q0 -66 44 -98q31 -22 67 -25q14 -1 573 -1zM1372 786q-26 0 -44 18t-18 45q0 25 18 43.5t44 18.5
q25 0 44 -18.5t19 -43.5q0 -27 -19 -45t-44 -18zM1029 350q-76 0 -140 38.5t-101.5 101.5t-37.5 141t37.5 141t101.5 101t140 38q78 0 142 -38t101.5 -101t37.5 -141t-37.5 -141t-101.5 -101.5t-142 -38.5zM1735 -334h-1469q-101 0 -173 72t-72 174v1469q0 101 72 173
t173 72h1469q102 0 174 -72t72 -173v-1469q0 -102 -72 -174t-174 -72z" />
    <glyph glyph-name="N" unicode="N" 
d="M585 380q4 0 17 5.5t33.5 10.5t61 19.5t134.5 41.5q33 9 33 15q41 10 47 56q0 51 -41 67q0 4 -77 33q-144 56 -164 64t-28.5 12t-12.5 5l-3 -3h-9q-65 0 -65 -181q0 -145 64 -145h10zM951 8q10 0 15 6q30 4 46 35q0 20 3 33t3 272q0 67 -73 67q-29 0 -46 -22t-21 -25.5
t-9 -11.5t-12 -11q-77 -95 -100.5 -119.5t-31.5 -37t-17 -22t-9 -22.5q0 -58 125 -108q81 -34 127 -34zM955 666q11 0 16 4q47 14 47 82l-32 497q-13 42 -75 42q-68 0 -194 -48q-105 -39 -105 -82q268 -495 343 -495zM1160 563q27 0 160 36q38 10 63.5 15t45 13t23.5 8
q33 0 33 55q-10 67 -94 168q-48 62 -84 64q-34 0 -40 -14t-16 -24t-77 -106q-94 -125 -94 -150q0 -54 54 -65h26zM1303 105q38 0 85 57q103 114 103 168q0 29 -18 41l-22.5 15t-49.5 15q-23 4 -55.5 17t-76.5 26t-70 22.5t-42 9.5q-26 0 -45.5 -23t-19.5 -45q0 -28 175 -293
q14 -10 36 -10zM1735 -334h-1469q-101 0 -173 72t-72 174v1469q0 101 72 173t173 72h1469q102 0 174 -72t72 -173v-1469q0 -102 -72 -174t-174 -72z" />
    <glyph glyph-name="O" unicode="O" 
d="M423 69q-5 16 -5 34v1093q0 20 5 34l611 -580zM501 8q-13 0 -25 3l616 582l185 -175l-718 -393q-30 -17 -58 -17zM1350 460l-200 188l197 186l190 -106q56 -32 56 -88q0 -41 -58 -78zM1094 704l-615 584q9 3 20 3q28 0 60 -19l715 -397zM1736 -334q102 0 174 72t72 174
v1469q0 101 -72 173t-174 72h-1469q-101 0 -173 -72t-72 -173v-1469q0 -102 72 -174t173 -72h1469z" />
    <glyph glyph-name="P" unicode="P" 
d="M549 513q-195 0 -208.5 7.5t-16.5 20.5t-3 89v75q2 39 48 42h295zM430 65q-11 0 -11 18l18 127q1 15 14 15q6 0 57 -28.5t51 -36.5q0 -9 -61 -52t-68 -43zM591 205l-7 -2q-4 0 -96 51q-15 11 -16 30l6 16q132 224 262 451t141 228h11l16 -5q89 -50 92 -66l-1 -24
l-227 -386q-165 -293 -181 -293zM1208 522h-344l115 225h115zM1373 408q-13 0 -33.5 12t-69.5 108q-100 196 -173 383l-27 63q-110 238 -110 291q0 24 13 25q38 0 211 -316q57 -87 176 -312v-5q5 -5 5 -9t3 -4v-4l5 -19l10 -8l4 -15l54 -100l7 -22q0 -40 -43 -54v-5
q-13 -9 -32 -9zM1471 240q-20 0 -30 11q-54 82 -54 93v10q5 9 38.5 27.5t42.5 18.5q19 0 32 -19l36 -76q5 -10 5 -32q-5 -9 -30 -21t-40 -12zM1640 24q-7 16 -50 36q-92 46 -92 97q0 10 8 18l12 12t4 8q29 15 48 15q66 0 73 -102zM1636 513h-138l-109 234q262 0 275.5 -7.5
t16.5 -20.5t3 -89t-3 -86q-8 -31 -45 -31zM1736 -334q102 0 174 72t72 174v1469q0 101 -72 173t-174 72h-1469q-101 0 -173 -72t-72 -173v-1469q0 -102 72 -174t173 -72h1469z" />
    <glyph glyph-name="Q" unicode="Q" 
d="M998 13q-107 0 -208 44q-177 82 -259 254q-45 100 -49 208v721q0 61 68 61q73 0 73 -61q0 -240 4 -340q151 161 372 161q127 0 248 -67q26 -14 50 -31q217 -151 217 -421q0 -181 -108 -326q-161 -203 -408 -203zM1002 157q146 0 258.5 110t112.5 268q0 77 -30 151
q-110 230 -347 230q-108 0 -192 -57q-178 -106 -178 -315l1 -76q0 -67 77 -167q120 -144 298 -144zM785 434q-32 0 -68.5 29t-36.5 81q0 31 14 57q37 50 96 50q99 -9 99 -107q-4 -110 -104 -110zM1736 -334q102 0 174 72t72 174v1469q0 101 -72 173t-174 72h-1469
q-101 0 -173 -72t-72 -173v-1469q0 -102 72 -174t173 -72h1469z" />
    <glyph glyph-name="R" unicode="R" 
d="M997 1296q266 0 453 -187t187 -453q0 -267 -187 -454t-453 -187q-250 0 -428 162l-213 -34l90 183q-90 150 -90 330q0 266 187 453t454 187zM1040 356q166 0 232 82.5t66 217.5q0 134 -68 216.5t-230 82.5h-257v-599h257zM1040 827q153 0 170 -171q0 -155 -170 -172h-130
v343h130zM1736 -334q102 0 174 72t72 174v1469q0 101 -72 173t-174 72h-1469q-101 0 -173 -72t-72 -173v-1469q0 -102 72 -174t173 -72h1469z" />
    <glyph glyph-name="S" unicode="S" 
d="M999 19q-220 0 -389 157.5t-169 397.5q0 158 59 261q92 160 251 235q171 88 188 140q7 26 13 87q68 -82 128 -128q51 -34 113 -68q119 -65 190 -126q168 -140 170 -414q0 -244 -165 -393t-389 -149zM1101 80q69 0 112 17q74 28 74 52q0 15 -9 15q-4 0 -10 -3
q-37 -44 -158 -44q-100 0 -141 34q-1 3 -2.5 3.5t-2.5 1.5t-3 1q-8 0 -15 -7.5t-8 -15.5q0 -7 7 -13q40 -32 98 -38q30 -3 58 -3zM1070 209q7 0 27 20q14 16 29.5 24.5t46.5 8.5q49 0 60 -33q8 -17 11 -17q19 0 19 21q0 4 -5 8.5t-9 14.5q-9 18 -22 29.5t-54 11.5
q-59 0 -105 -52q-12 -8 -12 -19q0 -6 8 -11q2 -6 6 -6zM1386 232q48 0 87 61q32 55 32 153q0 18 -8.5 48.5t-27.5 55t-47 24.5q-33 0 -106 -64t-107 -64q-46 0 -115 47q-48 28 -105.5 54.5t-120.5 26.5q-88 0 -151 -49t-63 -123q0 -40 27 -74q36 -42 65 -58q46 -37 122 -37
q50 0 104 23.5t105 51.5q81 50 132 53q32 -4 95 -71q23 -23 42.5 -40.5t39.5 -17.5zM1736 -334q102 0 174 72t72 174v1469q0 101 -72 173t-174 72h-1469q-101 0 -173 -72t-72 -173v-1469q0 -102 72 -174t173 -72h1469z" />
    <glyph glyph-name="T" unicode="T" 
d="M1434 1138l-10 11zM365 773l1 7l5 6q-3 -5 -6 -13zM555 1084q-11 8 -20 18q88 89 203 139t248 50q203 0 366 -115q-62 33 -142 46q-109 42 -224 42q-123 0 -236 -48.5t-195 -131.5zM868 435h-17v1q-86 55 -86 155l3 28q32 -39 101 -56q17 -4 34 -4q32 0 62 17
q34 19 67 19q58 0 86 -29q14 -17 14 -30q0 -2 -0.5 -10.5t-13.5 -8.5q-5 0 -12.5 1t-12.5 1q-14 0 -26 -9q-70 -52 -105 -67q-31 -8 -94 -8zM855 801q-44 61 -44 108q0 33 7 54q14 -14 31 -18q17 -3 50 -3q67 0 74 -7t7 -19q0 -30 -15 -47q-6 -5 -48 -26.5t-62 -41.5z
M835 700zM1035 17h-21q-65 0 -163 36q14 -15 43 -25l-25 4q-75 14 -173 71q-175 100 -254 249q-73 136 -77 252q-16 -38 -16 -66v62q0 131 22 164q-26 -32 -30 -53l10 41q27 112 70 183q2 8 45 52q52 52 117 65l-1 1q19 4 49 6q32 0 59 -7q-8 -26 -11 -69q7 31 35 59v-2
l13 16q59 67 141 67l19 -1l-19 -20q-48 -48 -74 -124q-10 -28 -10 -69q0 -53 50 -125q8 -5 8 -42q0 -25 -5 -38q-14 24 -55 44q-27 12 -50 12q-42 0 -84 -35q-49 -45 -49 -121q0 -34 17 -70q26 -58 85 -100q-91 73 -91 166q0 69 49 111q37 25 71 25q24 0 53 -17
q-18 -9 -27 -33q-1 -2 -8 -28t-9 -67q0 -112 91 -173q12 -27 60 -32q32 -6 59 -14.5t27 -13.5l-28 5q-13 0 -18 -5l14 -9q25 -17 73 -17q55 0 145 26q-2 -16 -13 -23q31 10 52 42q14 20 26 21l7 -2q-3 -7 -3 -15l4 -2q8 0 37 25q33 32 60 132q9 37 9 61h4q15 -16 15 -40
q20 81 20 113q0 7 -15 145q40 -25 56 -63v22q0 200 -131 297l17 -1q46 -4 104 -59l-23 34q-60 93 -173 160q66 -20 110 -39q72 -33 172 -145q37 -43 55 -96l-10 27q-25 76 -138 183v28q76 -58 83 -79v18q108 -95 121 -225q3 -32 3 -72q-1 -8 -1 -35l-2 -8q23 33 23 59
q22 -72 22 -138q0 -14 -2.5 -43.5t-26.5 -84.5q-10 -20 -38 -86q8 -30 8 -52q0 -62 -70 -143q-48 -56 -120 -94q-37 -55 -70.5 -79t-129.5 -45q-86 -19 -190 -19q6 -12 21 -20zM424 983q3 118 68 184q1 -60 48 -100q-64 -24 -116 -84zM1736 -334q102 0 174 72t72 174v1469
q0 101 -72 173t-174 72h-1469q-101 0 -173 -72t-72 -173v-1469q0 -102 72 -174t173 -72h1469z" />
    <glyph glyph-name="U" unicode="U" 
d="M989 294q-16 0 -28 13l-338 337q-13 14 -13 30t13 30l99 98q10 13 30 13q19 0 29 -13l209 -210l479 480q10 12 30 12q19 0 30 -12l98 -98q13 -14 13 -30t-13 -30l-607 -607q-10 -13 -31 -13zM994 19q-57 0 -106 44l-488 488q-44 49 -44 106t44 108l488 482q49 44 106 44
q59 0 108 -44l222 -223l-334 -333l-158 158q-36 35 -80 35q-46 0 -82 -35l-99 -97q-33 -38 -33 -82q0 -45 33 -80l343 -339q24 -21 54 -30l5 -4h21q46 0 82 34l512 514q49 -51 49 -108t-49 -106l-486 -488q-49 -44 -108 -44zM1736 -334q102 0 174 72t72 174v1469
q0 101 -72 173t-174 72h-1469q-101 0 -173 -72t-72 -173v-1469q0 -102 72 -174t173 -72h1469z" />
    <glyph glyph-name="V" unicode="V" 
d="M1234 6h-340v173q-47 -11 -85 -11q-145 0 -209 128q-37 72 -92 136q-36 26 -36 35q1 10 22 10l14 -3q59 0 97 -42l32 -41q62 -102 167 -102q56 0 90 15q0 93 41 128q-145 18 -242.5 99.5t-97.5 240.5q0 184 44 251q20 28 40 50q-21 38 -21 99q0 47 21 114l54 -17
q60 -27 118 -111q23 20 65 29t84 10.5t63 1.5q165 0 212 -41q78 110 171 128q24 -65 24 -112q0 -54 -24 -103q23 -20 42 -49t32 -86t13 -164q0 -159 -99 -240.5t-241 -99.5q18 -19 29.5 -61t11.5 -67v-298zM1736 -334q102 0 174 72t72 174v1469q0 101 -72 173t-174 72h-1469
q-101 0 -173 -72t-72 -173v-1469q0 -102 72 -174t173 -72h1469z" />
    <glyph glyph-name="W" unicode="W" 
d="M789 1125h-60v55h-51v-55h-61v171h61v-55h51v55h60v-171zM939 1125h-56v116h-51v55h158v-55h-51v-116zM1218 1125h-60v86l-38 -65l-39 65v-86h-60v171h60l39 -59l38 59h60v-171zM1390 1125h-142v171h61v-116h81v-55zM1004 8l-387 85l-85 945h945l-87 -945zM1004 179
l214 87l44 387h-409l-21 85h450l22 128h-602l43 -343h387l-20 -172l-108 -43l-107 43l-22 87h-120l34 -172zM1736 -334q102 0 174 72t72 174v1469q0 101 -72 173t-174 72h-1469q-101 0 -173 -72t-72 -173v-1469q0 -102 72 -174t173 -72h1469z" />
    <glyph glyph-name="X" unicode="X" 
d="M1270 33h-183q-13 0 -16 8l-91 332h-352q-88 -336 -91.5 -338t-92.5 -2q-90 0 -91.5 2t-1.5 8q0 3 157 553q160 561 163 580.5t4 57.5q0 12 9 12q237 0 240 -2.5t179.5 -601.5t176.5 -602q0 -7 -10 -7zM934 551l-37 146q-70 267 -94 373h-2q-30 -159 -127 -519h260z
M1540 1051q-110 5 -110 113q0 53 32.5 83t80.5 30q111 -13 111 -113q0 -54 -32 -83.5t-82 -29.5zM1630 33h-172q-14 0 -14 14l-1 869q0 11 14 11h176q10 0 10 -13v-868q0 -13 -13 -13zM1736 -334q102 0 174 72t72 174v1469q0 101 -72 173t-174 72h-1469q-101 0 -173 -72
t-72 -173v-1469q0 -102 72 -174t173 -72h1469z" />
    <glyph glyph-name="Y" unicode="Y" 
d="M1015 46q-147 25 -246 61q-4 4 -11 4t-41 16q-41 11 -41 40q2 24 14.5 46.5t13.5 34.5q43 100 121 230q9 -261 190 -432zM676 743q-206 0 -299 136q-47 64 -47 120q0 22 7 43q46 118 221 118q290 0 448 -317q9 0 9 -8t4 -8q-201 -84 -343 -84zM1102 861q-36 71 -36 160
q0 37 9 68q44 156 165 156q92 0 92 -107q0 -172 -230 -277zM1545 228q-29 0 -60 17q-199 162 -199 419q0 123 100 123q16 0 30 -7q147 -53 216 -203q32 -81 32 -158q0 -191 -119 -191zM1290 42q-206 0 -309 242q-46 97 -46 198q0 159 131 248q95 50 106 50t15 3h9
q-28 -44 -28 -130q0 -131 58 -262q64 -150 190 -246q30 -25 78 -34q-5 0 -5 -2t-5 -2t-10 -9q-88 -56 -184 -56zM1736 -334q102 0 174 72t72 174v1469q0 101 -72 173t-174 72h-1469q-101 0 -173 -72t-72 -173v-1469q0 -102 72 -174t173 -72h1469z" />
    <glyph glyph-name="Z" unicode="Z" 
d="M1282 27q-112 0 -214.5 57t-102.5 161.5t-6 156.5v153q0 139 -148 139q-162 0 -180 -151v-414q0 -91 -125 -91q-119 0 -119 85q0 559 5 1117q72 25 91 25q111 0 148 -150v-362q22 84 111 119.5t151 35.5q243 0 304 -303v-375q0 -75 80 -75q86 0 86 70v573q0 96 101 96
q141 0 141 -79v-544q0 -130 -104 -187t-219 -57zM1484 1008q-39 0 -80 19t-59 117v5q0 34 26.5 74t107.5 40q37 0 76.5 -17.5t55.5 -108.5q-20 -124 -127 -129zM1736 -334q102 0 174 72t72 174v1469q0 101 -72 173t-174 72h-1469q-101 0 -173 -72t-72 -173v-1469
q0 -102 72 -174t173 -72h1469z" />
    <glyph glyph-name="bracketleft" unicode="[" 
d="M1225 594q0 -7 -7 -17l-245 -245q-7 -6 -16 -6q-11 0 -17 6l-246 247q-7 6 -7 15q0 10 7 16q7 7 16 7h157v246q0 9 7 16q6 6 15 6h134q9 0 16 -6q6 -7 6 -16v-246h158q9 0 15 -7q7 -6 7 -16zM1673 437q0 94 -58 168q-58 73 -149 95q27 42 27 97q0 74 -51 126
q-53 52 -127 52q-66 0 -116 -44q-41 102 -132 163q-92 61 -200 61q-149 0 -254 -106q-104 -104 -104 -252q0 -10 1 -31q-83 -38 -132 -116q-49 -77 -49 -168q0 -129 93 -221q91 -92 220 -92h763q111 0 189 79q79 78 79 189zM1735 -334h-1469q-101 0 -173 72t-72 174v1469
q0 101 72 173t173 72h1469q102 0 174 -72t72 -173v-1469q0 -102 -72 -174t-174 -72z" />
    <glyph glyph-name="backslash" unicode="\" 
d="M965 23q32 0 169 85q250 158 384 308q141 152 141 329q0 149 -89 270t-239 193.5t-332 72.5q-183 0 -333 -72.5t-239 -193.5t-89 -270q0 -198 154.5 -346t398.5 -182q17 -3 34.5 -11t22.5 -21.5t5 -30.5q0 -21 -14 -105q0 -26 16 -26h10zM842 574q29 0 32.5 4t3.5 154
q0 148 -3.5 152t-9.5 4q-51 0 -55.5 -4t-4.5 -152q0 -150 4.5 -154t32.5 -4zM1161 574q28 0 32 4t4 154q0 148 -4 152t-9 4q-52 0 -56 -4t-4 -179q-132 179 -133.5 180t-4.5 2l-27 1q-29 0 -32.5 -4t-3.5 -152q0 -150 3.5 -154t32.5 -4q35 0 35 13v172l136 -182q5 -3 31 -3z
M752 574q13 0 13 37q0 35 -13 35h-125v230q0 12 -35 12q-37 0 -37 -12v-289q0 -13 12 -13h185zM1440 574q13 0 13 37q0 35 -13 35h-127v49q131 0 135.5 4t4.5 33q0 35 -13 35h-127v49h127q13 0 13 35q0 37 -13 37q-191 0 -194.5 -3.5t-3.5 -152.5q0 -150 3.5 -154t9.5 -4
h185zM1735 -334h-1469q-101 0 -173 72t-72 174v1469q0 101 72 173t173 72h1469q102 0 174 -72t72 -173v-1469q0 -102 -72 -174t-174 -72z" />
    <glyph glyph-name="bracketright" unicode="]" 
d="M927 596h-86v425h-245l-276 -449v-120h348v-147h173v147h86v144zM668 871v-275h-170l167 275h3zM1422 1021l-226 -295h-2v295h-186v-716h186v311h2l240 -311h242l-311 377l286 339h-231zM1735 -334h-1469q-101 0 -173 72t-72 174v1469q0 101 72 173t173 72h1469
q102 0 174 -72t72 -173v-1469q0 -102 -72 -174t-174 -72z" />
    <glyph glyph-name="asciicircum" unicode="^" 
d="M1444 299q-78 0 -130.5 55.5t-52.5 180.5q0 222 193 236q33 0 54 -8l-2 -454q-30 -10 -62 -10zM1438 156q115 0 235 54q6 3 6 10q-6 53 -6 508q0 423 -1.5 424.5t-80.5 1.5q-77 0 -80 -2.5t-3 -6.5v-238q-19 2 -48 2q-169 0 -266 -110.5t-97 -270.5q0 -187 96 -279.5
t245 -92.5zM957 165q86 0 86 7q0 3 -259 505q243 465 244 472q0 6 -7 6h-148q-16 0 -183 -375q-63 136 -127 269q-50 103 -53 104.5t-89 1.5q-87 0 -87 -9l245 -485l-251 -483q-3 -3 -3 -6q1 -6 160 -6q21 0 190 387h3q181 -381 186 -384.5t93 -3.5zM1735 -334h-1469
q-101 0 -173 72t-72 174v1469q0 101 72 173t173 72h1469q102 0 174 -72t72 -173v-1469q0 -102 -72 -174t-174 -72z" />
    <glyph glyph-name="underscore" unicode="_" 
d="M1486 101q71 0 77 77q0 54 -33 70l-2 6q0 2 5 2q54 19 59 79q0 61 -48 85l-1 6q0 3 3 3q72 23 72 92q-4 57 -63 92l-3 3l3 4q63 19 63 108q0 34 -14 55q-28 38 -71 38h-301q-13 0 -26 5l-9 9l2 5l7 9q4 13 21 51q54 120 54 191q0 60 -15 99l-14 40l-20 31q-27 30 -71 35
q-73 -6 -73 -73q-3 -52 -3 -116q0 -11 -36 -48q-24 -22 -87 -96q-158 -182 -158 -393v-422q2 -33 16 -41l20 -6h646zM676 8q16 0 27 10.5t11 619.5q0 36 -38 36h-257q-37 0 -38 -36v-594q0 -36 38 -36h257zM1735 -334h-1469q-101 0 -173 72t-72 174v1469q0 101 72 173
t173 72h1469q102 0 174 -72t72 -173v-1469q0 -102 -72 -174t-174 -72z" />
    <glyph glyph-name="grave" unicode="`" 
d="M999 56q343 246 516 467q158 201 158 370q0 46 -11 91q-31 108 -113.5 172.5t-205.5 76.5q-23 3 -42 3q-73 0 -129.5 -25t-99.5 -67t-73 -98q-29 58 -73.5 99.5t-104.5 64.5t-134 23q-98 0 -172 -35q-137 -66 -178 -229q-9 -42 -9 -84q0 -175 166 -372.5t505 -456.5z
M1735 -334h-1469q-101 0 -173 72t-72 174v1469q0 101 72 173t173 72h1469q102 0 174 -72t72 -173v-1469q0 -102 -72 -174t-174 -72z" />
    <glyph glyph-name="a" unicode="a" 
d="M529 396q33 0 55.5 22.5t22.5 58.5v336q0 34 -22.5 57.5t-55.5 23.5q-34 0 -58 -23.5t-24 -57.5v-336q0 -36 24 -58.5t58 -22.5zM1471 396q33 0 55.5 22.5t22.5 58.5v336q0 34 -22.5 57.5t-55.5 23.5q-35 0 -58 -23.5t-23 -57.5v-336q0 -36 23 -58.5t58 -22.5zM1361 906
q0 94 -50.5 171t-133.5 118l52 95l2 5q0 11 -12 11q-6 0 -64 -100q-78 33 -157 33q-82 0 -154 -33q-60 100 -65 100q-13 0 -13 -10q0 -2 58 -98q-85 -43 -136.5 -119.5t-51.5 -172.5h725zM833 1037q-12 0 -21 9t-9 23q0 11 9 20t21 9q13 0 22 -9t9 -20q0 -14 -9 -23t-22 -9z
M1162 1037q-27 0 -27 32q0 11 8 20t19 9q14 0 23.5 -9t9.5 -20q0 -32 -33 -32zM1135 11q33 0 57 24t24 60v175h56q37 0 61.5 25.5t24.5 59.5v522h-718v-522q0 -34 25 -59.5t60 -25.5h59v-175q0 -36 23.5 -60t56.5 -24q32 0 56 24t24 60v175h109v-175q0 -36 23 -60t59 -24z
M1735 -334h-1469q-101 0 -173 72t-72 174v1469q0 101 72 173t173 72h1469q102 0 174 -72t72 -173v-1469q0 -102 -72 -174t-174 -72z" />
    <glyph glyph-name="b" unicode="b" 
d="M996 808h-209q-33 0 -54 20t-21 51t21 52t54 21h209q32 0 53 -21t21 -52t-21 -51t-53 -20zM1214 370h-427q-33 0 -54 22.5t-21 50.5q0 33 21 52t54 19h427q30 0 50.5 -19t20.5 -52q0 -28 -20.5 -50.5t-50.5 -22.5zM1595 763l-9 21l-17 12q-9 5 -31.5 6.5t-47.5 3.5
t-48.5 4.5t-35.5 11.5q-17 14 -21.5 41t-9.5 62q-10 68 -17 87t-19 43q-18 42 -53.5 78.5t-76 63.5t-84.5 43t-79 22h-266q-80 0 -149.5 -29.5t-121 -81.5t-81 -121.5t-29.5 -148.5v-443q0 -80 29.5 -149t81 -121t121 -81.5t149.5 -29.5h438q79 0 146.5 29.5t119.5 81.5
t83 121t31 149v308zM1735 -334h-1469q-101 0 -173 72t-72 174v1469q0 101 72 173t173 72h1469q102 0 174 -72t72 -173v-1469q0 -102 -72 -174t-174 -72z" />
    <glyph glyph-name="c" unicode="c" 
d="M1247 964h122v122h-122v-122zM1002 964q-50 0 -97 -17t-87 -44h-307v61q0 78 52.5 130.5t130.5 52.5h612q78 0 132.5 -52.5t54.5 -130.5v-61h-310q-41 27 -85.5 44t-95.5 17zM1002 840q75 0 129.5 -52.5t54.5 -131.5q0 -78 -54.5 -130.5t-129.5 -52.5q-79 0 -133 52.5
t-54 130.5q0 79 54 131.5t133 52.5zM1306 165h-612q-78 0 -130.5 54.5t-52.5 129.5v491h244q-27 -40 -44 -86t-17 -98q0 -63 24.5 -118.5t65 -97.5t98 -66.5t120.5 -24.5t119 24.5t96 66.5t64.5 97.5t24.5 118.5q0 52 -17 98t-42 86h246v-491q0 -75 -54.5 -129.5
t-132.5 -54.5zM1613 1027q0 102 -70.5 173t-173.5 71h-738q-102 0 -173 -71t-71 -173v-738q0 -103 71 -173.5t173 -70.5h738q103 0 173.5 70.5t70.5 173.5v738zM1735 -334h-1469q-101 0 -173 72t-72 174v1469q0 101 72 173t173 72h1469q102 0 174 -72t72 -173v-1469
q0 -102 -72 -174t-174 -72z" />
    <glyph glyph-name="d" unicode="d" 
d="M1080 1071q-4 -20 -4 -43q0 -133 146 -167q46 -10 86 -10q157 0 162 188v12q0 204 -181 204q-21 0 -42 -1q-142 -15 -167 -183zM573 912q36 -11 63 -11q92 0 100 115v9q0 110 -122 121h-15q-111 0 -111 -123q0 -86 85 -111zM760 1054v-18q7 -115 103 -141q40 -10 72 -10
q110 0 110 134v14q-4 153 -125 153q-28 0 -64 -10q-96 -23 -96 -122zM1086 742q-23 96 -148 111q-22 3 -43 3q-92 0 -143 -63q-27 83 -121 83q-22 0 -46 -3q-136 -25 -139 -131v-325h255q9 -104 9 -124v-5h292v-246q420 13 527 13l25 -4v119q0 340 -17 423q-53 225 -252 225
q-34 0 -73 -8q-8 -1 -126 -68zM1735 -334h-1469q-101 0 -173 72t-72 174v1469q0 101 72 173t173 72h1469q102 0 174 -72t72 -173v-1469q0 -102 -72 -174t-174 -72z" />
    <glyph glyph-name="e" unicode="e" 
d="M462 620q-1 19 -1 39q0 111 46 207q134 -348 255 -680q-280 131 -300 434zM1178 161q-82 -37 -172 -37q-76 0 -157 27q29 86 78 228q60 164 81 229q32 -79 86 -224q57 -155 84 -223zM1351 688q-4 -31 -45 -165q-27 -88 -48 -160q-4 7 -49 141q-132 377 -145 421
q78 7 78 29v3q-4 14 -49 14q-14 0 -33 -3q-49 -1 -95 -1q-45 0 -84 1q-15 3 -28 3q-43 0 -43 -19v-1q0 -14 76 -26l-2 7l87 -232q-121 -357 -121 -355l3 12q-68 190 -196 568q80 12 80 21v2q0 19 -59 19h-28q-41 -1 -111 -1q147 218 407 237q23 1 46 1q202 0 354 -137h-4
q-48 0 -73 -42q-15 -26 -15 -54q0 -20 9 -44q88 -236 88 -239zM1289 211q32 98 87 249q71 193 91 248q25 75 25 157q0 21 -2 44h2v-2q65 -114 65 -244q0 -18 -3 -35q-16 -271 -265 -417zM1629 693q-20 243 -184 408q-166 164 -405 184h-79q-241 -20 -405 -184
q-167 -169 -185 -408v-75q20 -241 185 -407q164 -165 405 -185h79q239 20 405 185q164 166 184 407v75zM1735 -334h-1469q-101 0 -173 72t-72 174v1469q0 101 72 173t173 72h1469q102 0 174 -72t72 -173v-1469q0 -102 -72 -174t-174 -72z" />
    <glyph glyph-name="f" unicode="f" 
d="M1100 3v587h198l29 228h-227v128q0 54 6 67q0 5 10 23q22 40 114 40h105v204q-83 10 -175 10q-178 0 -253 -130q-44 -73 -44 -168v-174h-196v-228h196v-587h237zM1735 -334h-1469q-101 0 -173 72t-72 174v1469q0 101 72 173t173 72h1469q102 0 174 -72t72 -173v-1469
q0 -102 -72 -174t-174 -72z" />
    <glyph glyph-name="g" unicode="g" 
d="M755 213q136 0 256 81q154 120 154 353q0 25 -2 53v3q-409 0 -409 -3v-143q13 -1 244 -2q0 -11 -15 -44q-8 -32 -63 -86q-76 -53 -166 -53q-115 0 -202 91q-63 74 -63 178q0 76 36 138q27 48 68 77q65 53 156 53q92 0 181 -57q3 0 14 11q70 69 94 100v1
q-136 105 -267 105h-18q-138 0 -251 -82q-117 -85 -158 -219q-19 -52 -19 -135q0 -69 25 -138q53 -139 176 -219q105 -63 229 -63zM1548 457l1 123l123 1v122h-123l-1 123h-120v-123h-123v-122l123 -1v-123h120zM1735 -334h-1469q-101 0 -173 72t-72 174v1469q0 101 72 173
t173 72h1469q102 0 174 -72t72 -173v-1469q0 -102 -72 -174t-174 -72z" />
    <glyph glyph-name="h" unicode="h" 
d="M814 35q31 1 53.5 9.5t46.5 17t50.5 16t64.5 7.5q55 0 112 -24.5t103 -24.5q57 0 114 48q40 34 88 101q44 60 68 119q20 49 20 57q-50 20 -86 53q-88 77 -88 192q0 118 101 207q32 26 40 26q-28 39 -64 62.5t-69.5 36.5t-62.5 17.5t-42 5t-24 0.5q-54 0 -121 -25
q-83 -31 -107 -31q-20 0 -70 18q-93 33 -145 33q-85 -1 -156 -41t-115 -111q-55 -89 -55 -209q0 -104 41 -220q35 -100 97 -186q51 -71 92 -106q54 -48 104 -48h10zM1010 973q50 0 100.5 24t84.5 64q68 78 68 168l-2 26q-107 -6 -190 -91q-72 -78 -72 -161q0 -15 2 -30h9z
M1735 -334h-1469q-101 0 -173 72t-72 174v1469q0 101 72 173t173 72h1469q102 0 174 -72t72 -173v-1469q0 -102 -72 -174t-174 -72z" />
    <glyph glyph-name="i" unicode="i" 
d="M1069 737q0 4 4 4v-4h-4zM654 856h-270v-808h270v808zM519 969q69 0 111.5 40t42.5 97q-4 62 -44.5 100.5t-105.5 38.5q-70 0 -112 -38.5t-42 -100.5q0 -57 40 -97t110 -40zM1623 510q0 189 -86.5 277.5t-220.5 88.5q-112 0 -164 -46t-79 -89v115h-269v-434v-374h269v451
v36t7 30q16 38 49 68.5t90 30.5q73 0 104 -52t31 -133v-431h269v462zM1735 -334h-1469q-101 0 -173 72t-72 174v1469q0 101 72 173t173 72h1469q102 0 174 -72t72 -173v-1469q0 -102 -72 -174t-174 -72z" />
    <glyph glyph-name="j" unicode="j" 
d="M1550 541h-9q-18 0 -81 -7v243h84q6 -178 6 -225v-11zM1328 885v-462q158 -6 203 -6h13v-51h-216v-104h350v623h-350zM1054 534v243h83v-243h-83zM919 885v-462q163 -6 206 -6h17l-5 -51h-218v-104h352v623h-352zM726 885v-462h135v462h-135zM726 1074v-130
q101 -8 126 -8q12 0 12 3h-3v135h-135zM450 534l-2 -6v19q0 50 6 230h84v-243h-88zM543 1074l-5 -189h-218v-462h350v651h-127zM1735 -334h-1469q-101 0 -173 72t-72 174v1469q0 101 72 173t173 72h1469q102 0 174 -72t72 -173v-1469q0 -102 -72 -174t-174 -72z" />
    <glyph glyph-name="k" unicode="k" 
d="M327 1074q-6 0 -7 -6v-834q0 -7 7 -7h313q136 0 201 17q173 68 173 237v3q0 147 -125 198q100 57 100 170q0 18 -4 47q-43 175 -244 175h-414zM1179 1027q-4 0 -5 -6v-76q0 -7 5 -7h359q8 0 8 7v76q0 6 -8 6h-359zM492 926h201q124 0 124 -90v-2q0 -14 -8 -44
q-18 -49 -152 -49h-165v185zM1370 873q-68 0 -130 -26q-179 -83 -179 -287v-50q0 -94 46 -170q100 -133 263 -133q117 0 191 48q110 89 110 148q0 11 -6 11h-158q-41 -73 -127 -73q-15 0 -39 6q-116 31 -116 148h450q6 0 6 5v52q0 30 -5 62q-49 259 -306 259zM1232 606
q0 9 8 33q30 94 130 94q21 0 47 -5q92 -36 92 -122h-277zM492 600h206q135 0 135 -100v-11q0 -111 -120 -111h-221v222zM1735 -334h-1469q-101 0 -173 72t-72 174v1469q0 101 72 173t173 72h1469q102 0 174 -72t72 -173v-1469q0 -102 -72 -174t-174 -72z" />
    <glyph glyph-name="l" unicode="l" 
d="M626 342q63 0 120 24t99.5 66.5t66.5 99.5t24 120q0 65 -24 121.5t-66.5 99.5t-99.5 67t-120 24q-65 0 -121.5 -24t-99.5 -67t-67 -99.5t-24 -121.5q0 -63 24 -120t67 -99.5t99.5 -66.5t121.5 -24zM1370 342q65 0 121.5 24t99.5 66.5t67 99.5t24 120q0 65 -24 121.5
t-67 99.5t-99.5 67t-121.5 24q-64 0 -120.5 -24t-99 -67t-67 -99.5t-24.5 -121.5q0 -63 24.5 -120t67 -99.5t99 -66.5t120.5 -24zM1735 -334h-1469q-101 0 -173 72t-72 174v1469q0 101 72 173t173 72h1469q102 0 174 -72t72 -173v-1469q0 -102 -72 -174t-174 -72z" />
    <glyph glyph-name="m" unicode="m" 
d="M1330 953q-179 11 -253 11l2 309h-187q-47 -279 -251 -344v-163q90 -13 118 -13q11 0 11 3v-80q0 -63 -6 -151q-2 -60 -2 -105q0 -61 5 -100q26 -204 224 -275q72 -25 142 -25q117 0 228 73q-14 45 -63 181q-58 -28 -101 -28q-96 0 -118 144q0 5 8 376h243v187z
M1735 -334h-1469q-101 0 -173 72t-72 174v1469q0 101 72 173t173 72h1469q102 0 174 -72t72 -173v-1469q0 -102 -72 -174t-174 -72z" />
    <glyph glyph-name="n" unicode="n" 
d="M607 586q28 0 33 44h-11q-38 0 -38 -25q2 -19 16 -19zM1315 586q28 0 33 44h-11q-38 0 -38 -25q1 -19 16 -19zM983 659l1 5q0 25 -20 25q-22 0 -30 -30h49zM1551 592q37 8 37 59q-1 34 -25 34q-15 0 -25 -16.5t-10 -42.5q0 -34 23 -34zM1275 248q171 0 292 121.5
t121 293.5q0 171 -121 292t-292 121q-159 0 -276 -105q-117 105 -275 105q-173 0 -294 -121t-121 -292q0 -172 121 -293.5t294 -121.5q158 0 275 106q117 -106 276 -106zM528 554h-44l26 161l-58 -161h-30l-4 160l-27 -160h-42l35 209h64l3 -129l43 129h70zM589 550
q-41 6 -41 47q5 67 79 67l18 -3l2 14q0 13 -29 13t-47 -7l6 39q29 8 53 8q58 0 60 -50q-6 -52 -15 -101q-2 -17 -2 -23h-38l1 17q-17 -21 -47 -21zM728 550q-36 2 -46 6l6 39q20 -7 40 -7q26 0 26 17q0 7 -20 18q-35 14 -35 51q0 54 67 54q14 0 40 -3l-6 -40q-18 3 -33 3
q-22 -1 -22 -14q0 -9 6 -12t15 -8q33 -11 33 -48q0 -56 -71 -56zM840 550q-35 1 -35 41q0 10 25 159h45l-6 -25h23l-6 -42h-23l-12 -80q0 -11 14 -11q9 0 12 2l-6 -38q-15 -6 -31 -6zM964 550q-77 1 -77 76q0 44 22 73t56 29q60 -5 60 -62q0 -19 -5 -42h-89q0 -35 39 -35
q24 0 47 11l-9 -43q-21 -7 -44 -7zM1070 554h-45q22 145 25 171h42q0 -14 -4 -27q20 28 37 28l7 -1q-10 -15 -17 -50l-5 1q-8 0 -15 -8.5t-11.5 -35t-13.5 -78.5zM1202 550q-77 7 -77 91q11 127 100 127q25 0 50 -11l-7 -45q-22 11 -40 11q-57 -8 -57 -78q2 -51 41 -51
q17 0 39 11l-9 -48q-20 -7 -40 -7zM1297 550q-41 6 -41 47q4 67 78 67l19 -3l2 14q0 13 -29 13t-47 -7l6 39q28 8 53 8q57 0 58 -50q0 -13 -2 -33q-3 -14 -6 -32.5t-5.5 -35.5t-2.5 -23h-37l1 17q-17 -21 -47 -21zM1440 554h-45q1 12 10 64.5t15 106.5h42q0 -14 -3 -27
q17 28 35 28l8 -1q-10 -15 -17 -50l-5 1q-9 0 -16 -9.5t-24 -112.5zM1536 550q-54 7 -54 71q0 43 21.5 74t51.5 31q25 0 42 -23l11 60h44l-34 -209h-42l2 15q-17 -19 -42 -19zM1735 -334h-1469q-101 0 -173 72t-72 174v1469q0 101 72 173t173 72h1469q102 0 174 -72t72 -173
v-1469q0 -102 -72 -174t-174 -72z" />
    <glyph glyph-name="o" unicode="o" 
d="M963 837q-217 -66 -503 -70q57 260 298 381q61 -75 205 -311zM588 289q-140 149 -140 371v10q292 0 549 77h3q0 -12 53 -91q-292 -94 -465 -367zM1208 152q-129 -69 -245 -69q-166 0 -304 141q139 238 429 339q71 -162 120 -411zM1071 867q-66 119 -203 321q76 20 146 20
q193 0 342 -142q-90 -122 -285 -199zM1301 200q-28 155 -105 390q66 10 128 10q110 0 212 -34q-44 -239 -235 -366zM1542 660q-133 26 -252 26q-67 0 -128 -9q-6 18 -25 55q-17 35 -24 54q189 74 304 214q120 -141 125 -340zM1636 690q-21 254 -187 419q-173 169 -418 187
h-75q-247 -21 -416 -187q-169 -172 -187 -416v-78q69 -535 603 -602h77q247 21 416 187q166 168 187 415v75zM1735 -334h-1469q-101 0 -173 72t-72 174v1469q0 101 72 173t173 72h1469q102 0 174 -72t72 -173v-1469q0 -102 -72 -174t-174 -72z" />
    <glyph glyph-name="p" unicode="p" 
d="M703 1181q-24 -13 -64 -51q-37 -40 -51 -64q-78 -117 -78 -240q0 -124 57 -205q16 -23 47 -50q42 -25 56 -25h4q5 0 12 2q8 8 10 22q17 61 17 69t-9 16q-53 61 -53 150q0 124 75 220q21 28 52 53q100 77 228 77q132 0 216 -68q91 -80 91 -211q0 -130 -48 -237
q-14 -32 -29 -54q-66 -95 -154 -95q-42 0 -76 24q-42 34 -42 84v6q0 23 24 100q43 135 43 184q0 33 -12 59q-28 50 -86 50q-53 0 -92 -48q-48 -59 -48 -138q0 -65 24 -116l-87 -371q-19 -73 -19 -151v-15q0 -62 9 -131q0 -12 7 -14h3h4q3 6 23 31q43 58 68 104q20 42 42 91
q17 66 52 215q7 -10 20 -26q21 -18 33 -25q62 -40 124 -40q5 1 6 1h1q63 0 124 24q106 43 177 148q87 141 87 326q0 70 -25 141q-55 131 -177 206q-114 71 -260 71q-188 0 -326 -99zM1735 -334h-1469q-101 0 -173 72t-72 174v1469q0 101 72 173t173 72h1469q102 0 174 -72
t72 -173v-1469q0 -102 -72 -174t-174 -72z" />
    <glyph glyph-name="q" unicode="q" 
d="M1512 515q-51 53 -54 71v6q0 20 22 53q17 27 80 111q51 65 80 111q37 66 37 98q0 7 -1 12q-9 20 -54 20h-6q-76 -2 -158 -2q-72 0 -79 -3q-16 -5 -29 -42q-31 -77 -70 -143q-53 -88 -86 -125q-26 -27 -45 -27h-1q-28 1 -33 64q-2 12 -2 37q0 51 7 153v17q0 53 -12 71
q-22 37 -157 37q-25 0 -51 -3q-112 -4 -127 -54q53 -15 66 -39q18 -31 18 -151q0 -45 -6 -80q-9 -51 -33 -55h-6q-17 0 -39 24q-13 15 -32 41q-67 96 -122 225q-16 35 -26 45q-17 10 -90 10h-65q-107 0 -113 -20q-3 -2 -3 -8q0 -16 21 -62q115 -245 237 -411
q91 -122 193 -177q105 -59 207 -59h11q105 5 114 19q7 5 12 64q3 35 12 57q15 36 42 39h3q25 0 60 -39q4 -3 48 -55q62 -72 119 -85q9 -1 87 -1h38l38 1q107 0 113 38q3 4 3 6q0 27 -43 81q-26 33 -125 130zM1735 -334h-1469q-101 0 -173 72t-72 174v1469q0 101 72 173
t173 72h1469q102 0 174 -72t72 -173v-1469q0 -102 -72 -174t-174 -72z" />
    <glyph glyph-name="r" unicode="r" 
d="M379 1308v-253q265 -35 479 -156q88 -54 177.5 -131t162.5 -184t123 -249.5t60 -324.5h243q-4 347 -132 620q-57 119 -145.5 235t-222.5 209t-316.5 157t-428.5 77zM379 617q154 -19 278 -84q54 -31 104 -77.5t93 -110.5t70 -147.5t34 -194.5h241q-7 233 -95 422
q-40 77 -99 155.5t-146 142t-205 104t-275 46.5v-256zM561 3q76 0 129 53t53 129q0 74 -53 128t-129 54q-74 0 -128 -54t-54 -128q0 -76 54 -129t128 -53zM1735 -334h-1469q-101 0 -173 72t-72 174v1469q0 101 72 173t173 72h1469q102 0 174 -72t72 -173v-1469
q0 -102 -72 -174t-174 -72z" />
    <glyph glyph-name="s" unicode="s" 
d="M1009 77q57 0 95.5 19.5t73.5 42.5q61 39 100 49q12 3 50 3q39 0 70 -6q11 -4 28 -4q23 0 23 28q0 7 3 14q10 37 18 37q144 25 162 59v9l1 5q0 6 -12 10q-69 10 -117 45q-86 61 -131 135q-19 29 -19 36q-11 15 -11 31q0 38 41 53l62 21q59 27 59 50q-7 25 -35 33
q-6 5 -21 5q-13 0 -18 -5q-41 -15 -64 -15q-15 0 -23 5t-11 5q10 86 10 170q0 131 -97 216q-82 70 -173 83q-41 4 -64 4q-39 0 -78 -4q-96 -13 -175 -83q-97 -86 -97 -216q0 -56 8 -170q-3 0 -12 -5t-24 -5q-26 0 -65 15l-16 5q-15 0 -33.5 -8.5t-18.5 -32.5q0 -16 22 -29
t99 -39q38 -14 38 -51q0 -15 -11 -33q0 -7 -15.5 -36t-49.5 -67q-94 -100 -200 -113q-12 -4 -12 -10l1 -5v-9q18 -34 162 -59q8 0 18 -37q3 -7 3 -14q0 -31 24 -31q7 0 25 7q31 6 72 6q38 0 54 -3q29 -8 95 -49q34 -23 73.5 -42.5t94.5 -19.5h18zM1735 -334h-1469
q-101 0 -173 72t-72 174v1469q0 101 72 173t173 72h1469q102 0 174 -72t72 -173v-1469q0 -102 -72 -174t-174 -72z" />
    <glyph glyph-name="t" unicode="t" 
d="M766 129q271 0 482 176q150 136 216 320q43 126 43 236v45q23 14 72 63q38 41 58 72h-1q-99 -41 -146 -41v3q16 7 55 42q42 52 57 100q-51 -31 -107 -48q-50 -15 -59 -15q-87 81 -189 81q-105 0 -184 -74q-79 -79 -79 -187q0 -26 7 -59q-30 0 -114 14q-143 36 -251 104
q-83 51 -174 155q-33 -65 -33 -126q0 -97 61 -173q31 -37 51 -47v-2q-52 0 -115 31q0 -108 79 -190q50 -44 91 -56q30 -12 36 -12q0 -2 -29 -7l-30 -1h-10q-20 0 -46 4q31 -92 107 -140q67 -41 136 -41q-39 -31 -74 -50q-121 -62 -240 -62q-44 0 -71 3q182 -118 401 -118z
M1735 -334h-1469q-101 0 -173 72t-72 174v1469q0 101 72 173t173 72h1469q102 0 174 -72t72 -173v-1469q0 -102 -72 -174t-174 -72z" />
    <glyph glyph-name="u" unicode="u" 
d="M904 15l186 321l-6 -1q-30 -15 -85 -15q-98 0 -177.5 52.5t-119.5 135.5l-262 459q-80 -152 -80 -320q0 -240 156 -418t388 -214zM680 727q28 109 119 178q88 62 200 62h550q-86 147 -232 233t-318 86q-149 0 -281 -64t-225 -183zM1006 8q263 3 447.5 189.5t184.5 449.5
q0 122 -48 240h-371q107 -102 107 -240q0 -102 -57 -187zM999 407q99 0 169.5 70.5t70.5 169.5t-70.5 169.5t-169.5 70.5t-169.5 -70.5t-70.5 -169.5t70.5 -169.5t169.5 -70.5zM1735 -334h-1469q-101 0 -173 72t-72 174v1469q0 101 72 173t173 72h1469q102 0 174 -72
t72 -173v-1469q0 -102 -72 -174t-174 -72z" />
    <glyph glyph-name="v" unicode="v" 
d="M1346 63q71 0 139 51q101 80 101 163q0 53 -73 106q-63 48 -136 90q-51 43 -101 43q-3 0 -31 -1.5t-71 -69.5q-26 -38 -70 -38q-24 0 -53 13q-199 82 -288 283q-18 33 -18 65q0 9 3 31.5t48 49.5q27 18 46 41t19 63q-5 32 -45 96q-130 200 -209 200q-19 0 -39 -7
q-163 -61 -163 -201q0 -45 20 -97q255 -610 865 -865q25 -16 56 -16zM1543 648q26 0 29 17q3 8 3 18q0 6 -1.5 14.5t-1.5 20.5q0 142 -69.5 262t-188.5 197.5t-263 85.5q-4 0 -14 1.5t-22 1.5q-30 0 -30 -35q0 -16 10.5 -21.5t23.5 -6t22 -5.5q223 -32 334 -146t141 -337
l-3 -24q0 -12 3 -27.5t27 -15.5zM1405 704q24 8 24 37v13q0 8 1 12q0 129 -94.5 230.5t-232.5 124.5q-16 5 -38 5q-6 0 -19.5 -2.5t-16.5 -38.5q0 -27 46 -27q147 -31 209 -95.5t83 -196.5v-21q0 -14 5 -27.5t33 -13.5zM1263 750q22 3 26 18t4 30q0 63 -56 120.5t-119 57.5
q-14 0 -26 -1q-23 -5 -23 -32q0 -23 35 -30q116 -17 122 -132q8 -31 37 -31zM1735 -334h-1469q-101 0 -173 72t-72 174v1469q0 101 72 173t173 72h1469q102 0 174 -72t72 -173v-1469q0 -102 -72 -174t-174 -72z" />
    <glyph glyph-name="w" unicode="w" 
d="M348 1122v-443l531 3l-2 512zM877 624l-529 3v-443l529 -73v513zM941 1203v-519l704 4v618zM1646 618l-705 1v-516l704 -100zM1735 -334h-1469q-101 0 -173 72t-72 174v1469q0 101 72 173t173 72h1469q102 0 174 -72t72 -173v-1469q0 -102 -72 -174t-174 -72z" />
    <glyph glyph-name="x" unicode="x" 
d="M764 463q-59 0 -83 59q-11 34 -11 57q0 74 99 80q108 0 108 -110q0 -61 -71 -81q-23 -5 -42 -5zM995 214q-78 0 -158 31q-41 16 -71 44q-14 13 -14 25t27 20q97 -81 208 -81q86 0 178 49q50 24 68 24q6 0 12 -2q0 -43 -82.5 -76.5t-167.5 -33.5zM1219 459q-36 0 -67.5 28
t-31.5 69q0 95 95 103q84 0 100 -83q3 -16 3 -33q0 -58 -64 -77q-17 -7 -35 -7zM982 88q117 0 241 35q341 100 341 388v19q83 36 83 113q0 29 -11 61q-32 103 -123 103q-22 0 -49 -6q-21 -5 -61 -36q-120 98 -374 123q60 274 66 297l205 -43q15 -99 98 -99q106 0 106 90
l-2 31q-16 88 -95 88l-24 -3q-20 -2 -44 -26.5t-35 -26.5q-9 0 -123 25q-108 22 -121 22q-15 -8 -31 -81l-56 -276q-154 -2 -303 -75l-80 -42q0 3 -23 18q-39 24 -78 24q-51 0 -97.5 -49.5t-46.5 -101.5q0 -36 22 -72q2 0 64 -61l-1 -36q0 -179 191 -300q166 -103 361 -103z
M1735 -334h-1469q-101 0 -173 72t-72 174v1469q0 101 72 173t173 72h1469q102 0 174 -72t72 -173v-1469q0 -102 -72 -174t-174 -72z" />
    <glyph glyph-name="y" unicode="y" 
d="M1006 179q100 0 259 3q208 7 238 13q51 9 83 36q38 31 55 79q32 81 32 286v109q0 96 -13 217q-16 92 -52 131q-19 19 -26 20q-32 26 -73 32q-97 19 -509 19q-107 0 -246 -4q-232 -6 -266 -16q-61 -10 -103 -61q-25 -31 -45 -121q-12 -121 -12 -217q0 -296 22 -354
q10 -44 20 -67q31 -57 105 -82l53 -8q21 -5 125 -9q242 -6 353 -6zM861 477v378q7 -3 298 -155q65 -34 65 -35zM1735 -334h-1469q-101 0 -173 72t-72 174v1469q0 101 72 173t173 72h1469q102 0 174 -72t72 -173v-1469q0 -102 -72 -174t-174 -72z" />
    <glyph glyph-name="z" unicode="z" 
d="M893 945l-566 -598l515 281l269 -281l564 598l-511 -277zM1735 -334h-1469q-101 0 -173 72t-72 174v1469q0 101 72 173t173 72h1469q102 0 174 -72t72 -173v-1469q0 -102 -72 -174t-174 -72z" />
    <glyph glyph-name="braceleft" unicode="{" 
d="M1005 1288q-34 0 -95 -17q-184 -90 -184 -264v-32q24 -151 108 -246q-26 5 -77 5h-34q-42 0 -99 -11q-210 -71 -210 -271q0 -50 21 -109q87 -172 251 -172q208 0 294 238h3v-4q0 -286 -73 -395l5 -5h179v5q-71 94 -71 387v8h4q86 -234 291 -234q63 5 91 15
q179 85 179 266q0 49 -14 98q-79 184 -290 184h-35q-51 0 -77 -5l18 18q97 143 97 255q0 50 -21 109q-89 177 -261 177zM1735 -334h-1469q-101 0 -173 72t-72 174v1469q0 101 72 173t173 72h1469q102 0 174 -72t72 -173v-1469q0 -102 -72 -174t-174 -72z" />
    <glyph glyph-name="bar" unicode="|" 
d="M699 1136l-43 121h-35v-4h4t6.5 -1.5t3.5 -6.5l-39 -109h11l14 37h46l14 -37h18zM664 1182h-40l19 53zM857 1136l-34 60q28 4 28 29t-26 31q-11 1 -70 1v-4q13 -1 15.5 -4t2.5 -113h20v56h11l32 -56h21zM802 1200h-9v35q0 7 1 10.5t11 3.5q25 0 27 -25q0 -24 -30 -24z
M973 1134q18 0 35 7v11q-14 -8 -32 -8q-14 0 -22 9t-10.5 21.5t-2.5 24.5q0 50 30 50q21 0 31 -27h4v31q-18 6 -36 6q-52 0 -52 -60q0 -65 55 -65zM1177 1136v121h-21v-54h-49v57l-38 -4v-4q11 -2 14.5 -4t3.5 -112h20v58h49v-58h21zM1297 1136v4q-10 0 -13 3.5t-3 52.5
t3 52.5t13 3.5v4h-51v-4q10 0 13 -3.5t3 -52.5t-3 -52.5t-13 -3.5v-4h51zM1429 1136l45 121h-12l-35 -99l-35 99h-35v-4q11 -1 14 -4t43 -113h15zM1617 1136l1 26h-6q0 -10 -3.5 -14t-22.5 -4q-17 0 -19 1.5t-2 48.5h21q15 0 15 -12v-3h6v39h-6q-1 -7 -4 -10.5t-32 -3.5
q0 42 2 43.5t23 1.5q20 0 20 -18h5l-1 26h-87v-4q13 -1 15 -4t2 -113h73zM1540 61v44h-874v-44h874zM1508 130v62h-807v-62h807zM1498 813v85h-803v-85h803zM1492 925l24 26l-420 100l-421 -100l26 -26h791zM499 55v50h-4q0 -10 -3.5 -12.5t-52.5 -2.5q-48 0 -51.5 2.5
t-3.5 12.5h-5v-50h5q0 10 3.5 12.5t51.5 2.5q49 0 52.5 -2.5t3.5 -12.5h4zM382 164v4q2 8 4.5 11t112.5 3v13h-101l101 60v16h-121v-11h99l-99 -57v-39h4zM405 344v6q-10 0 -14.5 4t-4.5 28h113v19h-113v13q0 19 16 19h3v6l-27 -1v-93zM382 495q2 11 4.5 14t112.5 3v72h-25
v-4q9 -1 13 -4.5t4 -22.5q0 -18 -1.5 -20t-48.5 -2v22q0 16 15 16v4h-38v-4q7 -2 10.5 -4.5t3.5 -33.5q-43 0 -44.5 3t-1.5 24q0 18 19 19v4h-27v-86h4zM382 650q2 12 4.5 14.5t112.5 2.5v19h-55v11l55 32v21l-58 -33q-4 28 -31 28q-24 0 -29 -27q-3 -11 -3 -68h4zM435 686
h-35q-7 0 -10.5 1.5t-3.5 11.5q0 25 26 26q23 0 23 -39zM382 810v3q2 10 4.5 13t112.5 3v11h-101v1l101 59v18h-121v-11h99l-99 -59v-38h4zM382 989q2 13 4.5 15t112.5 2v72h-25v-4q9 -1 13 -4t4 -22q0 -17 -1.5 -20t-48.5 -3v23q0 15 15 15v4h-38v-4q7 -1 10.5 -4t3.5 -34
q-43 0 -44.5 3t-1.5 24q0 20 19 20v4h-27v-87h4zM405 1146v4q-10 1 -14.5 5t-4.5 27h113v21h-113v12q0 20 19 20v4h-27v-93h27zM761 217q19 0 40 6q8 111 10 317q-3 124 -10 247q0 8 -40 8t-40 -8q-6 -123 -9 -247q1 -206 9 -317q20 -6 40 -6zM980 217q19 0 39 6q1 7 1 19
q10 91 10 253q0 86 -6 209q-4 59 -4 83q0 8 -40 8q-41 0 -41 -8q0 -24 -1 -46q-7 -104 -7 -246q0 -162 8 -253q0 -12 2 -19q19 -6 39 -6zM1234 217q19 0 39 6q8 111 10 317q-3 124 -10 247q0 8 -39 8q-41 0 -41 -8q-7 -123 -9 -247q1 -206 9 -317q21 -6 41 -6zM1446 217
q20 0 41 6q8 111 9 317q-2 124 -9 247q0 8 -41 8q-39 0 -39 -8q-7 -123 -10 -247q0 -206 10 -317q20 -6 39 -6zM1735 -334h-1469q-101 0 -173 72t-72 174v1469q0 101 72 173t173 72h1469q102 0 174 -72t72 -173v-1469q0 -102 -72 -174t-174 -72z" />
    <glyph glyph-name="braceright" unicode="}" 
d="M997 8q206 0 218 1t29 6t34.5 17.5t29.5 35t12 57.5v1059q0 35 -12 57.5t-29.5 35t-34.5 18t-29 6t-218 0.5q-205 0 -217 -0.5t-29.5 -6t-35 -18t-29 -35t-11.5 -57.5v-1059q0 -35 11.5 -57.5t29 -35t35 -17.5t29.5 -6t217 -1zM997 57q-23 0 -40.5 17t-17.5 42
q0 24 17.5 41.5t40.5 17.5q25 0 42 -17.5t17 -41.5q0 -25 -17 -42t-42 -17zM997 1213q-83 0 -85 4t-2 11t2 10.5t85 3.5q84 0 86.5 -3.5t2.5 -10.5t-2.5 -11t-86.5 -4zM1261 216h-528v938h528v-938zM1735 -334h-1469q-101 0 -173 72t-72 174v1469q0 101 72 173t173 72h1469
q102 0 174 -72t72 -173v-1469q0 -102 -72 -174t-174 -72z" />
    <glyph glyph-name="asciitilde" unicode="~" 
d="M1205 608l51 88l-413 245l-53 -89zM1169 480l26 99l-463 125l-26 -100zM1154 342l11 104l-479 43l-9 -102zM1153 211v102h-480v-102h480zM1316 48v501h-82v-420h-629v420h-82v-501h793zM1274 710l84 57l-271 397l-85 -58zM1375 774l102 17l-82 474l-102 -17zM1735 -334
h-1469q-101 0 -173 72t-72 174v1469q0 101 72 173t173 72h1469q102 0 174 -72t72 -173v-1469q0 -102 -72 -174t-174 -72z" />
    <glyph glyph-name="exclamdown" unicode="&#xa1;" 
d="M855 306q330 24 330 359q0 231 -184 334q-67 34 -146 34q-80 0 -146 -34q-184 -103 -184 -334q0 -335 330 -359zM855 409q124 0 179 144q15 55 15 112q0 262 -194 262q-193 -13 -193 -262q0 -57 15 -112q55 -144 178 -144zM389 893q71 0 71 70t-71 70q-69 0 -69 -70
t69 -70zM456 305v515h-132v-515h132zM1459 306q220 31 220 213q0 133 -186 212q-130 53 -131 109q0 90 117 90q70 -7 137 -34q7 0 10.5 13.5t7 34.5t10.5 34.5t7 20.5q-91 35 -165 35q-256 0 -256 -199q0 -144 187 -206q129 -52 132 -122q0 -96 -135 -96q-44 3 -168 46
l-27 -109q103 -42 240 -42zM1735 -334h-1469q-101 0 -173 72t-72 174v1469q0 101 72 173t173 72h1469q102 0 174 -72t72 -173v-1469q0 -102 -72 -174t-174 -72z" />
    <glyph glyph-name="cent" unicode="&#xa2;" 
d="M548 525q27 0 58 36l-1 -27q0 -5 6 -5h31q6 0 8 7q0 46 23 156q0 5 -7 6q-36 7 -50 7q-38 0 -69 -20q-52 -37 -52 -98q0 -41 29 -57q13 -5 24 -5zM569 565q-22 0 -22 29q0 37 29 63q12 9 28 9l14 -1l-5 -22q-3 -50 -29 -71q-7 -7 -15 -7zM664 416q2 2 9 15q18 46 76 129
q183 256 421 294q11 0 13 9q-19 41 -66 41q-15 0 -18 -2q-112 -22 -220 -124q-40 -39 -78 -81q-67 -73 -113 -160q-24 -46 -36 -98q0 -23 12 -23zM355 530q1 0 1.5 2t2.5 3l14 73q1 6 7 6l17 -1q23 0 46 8q59 20 59 84q0 62 -98 62q-44 0 -50 -8q-3 -2 -45 -229h46zM409 654
h-29l4 11q11 58 12.5 60.5t16.5 2.5q40 0 40 -31q0 -9 -4 -16q-13 -25 -40 -27zM729 664q5 0 10 10q12 35 12 75q-8 73 -50 114q-7 9 -14 9q-4 0 -4 -6q0 -14 5 -35q27 -167 41 -167zM1607 530q1 0 9 30q11 68 27 82q13 11 37 14q3 0 13 48h-10q-32 0 -55 -39l3 35
q-41 0 -42 -1.5t-2 -3.5q-9 -91 -22 -130q-5 -30 -5 -35h47zM1477 525q28 0 53 12q5 3 5 5q-3 16 -3 31q-29 -9 -46 -9q-39 0 -39 30v1h18q32 0 62.5 13.5t30.5 43.5q0 53 -64 53q-38 0 -67 -32t-29 -74q0 -74 79 -74zM1460 631h-9q3 19 15.5 28.5t23.5 9.5q21 0 21 -16
q0 -10 -10 -14.5t-41 -7.5zM1186 530q2 0 5 5q13 65 13 72q7 15 7 50q0 47 -45 47q-29 0 -55 -27q-3 -1 -4 -3l1 26h-42l-31 -170h46q3 0 14 60q7 68 49 74q15 0 15 -27l-19 -107h46zM1308 525q29 0 55 12q4 0 4 5l-2 30q-7 0 -8 -1q-18 -7 -37 -7q-41 0 -41 32q6 0 11 -1
q100 0 100 58q0 35 -35 47q-15 5 -28 5q-31 0 -58 -23q-39 -34 -39 -83q0 -74 78 -74zM1296 631l-12 2q2 17 14.5 26t24.5 9q20 0 20 -16q0 -21 -47 -21zM933 525q50 0 81 54q12 26 12 54q0 37 -26 56q-22 15 -46 15q-64 -4 -85 -44q-18 -35 -18 -61q0 -73 82 -74zM932 564
q-29 0 -29 31q0 32 17 56q10 15 27 15q27 0 27 -36q0 -30 -19 -54q-7 -11 -23 -12zM1735 -334h-1469q-101 0 -173 72t-72 174v1469q0 101 72 173t173 72h1469q102 0 174 -72t72 -173v-1469q0 -102 -72 -174t-174 -72z" />
    <glyph glyph-name="sterling" unicode="&#xa3;" 
d="M995 132q27 0 60 44q25 38 33 70h75v-88h42q11 0 20 21.5t9 36.5q0 35 -59 137q85 21 142 72q68 59 68 139q0 131 -48 179l7 32q0 27 -20 35q9 20 9 35q0 30 -23 32q1 3 7.5 11.5t6.5 17.5q0 26 -24 44q10 21 10 39q0 14 -8 26q-13 15 -16 20q0 5 4.5 16t4.5 19
q0 34 -24 46q7 11 7 23q0 33 -24 46q8 17 8 31q0 30 -30 55l1 19q0 46 -37.5 71t-87.5 25q-169 0 -297 -38q-193 -54 -193 -179q0 -52 76 -387t93 -363q29 -49 158 -68l23 -113q-18 -9 -18 -50q0 -56 45 -56zM1157 13v221h-66q-9 -48 -27 -69t-62 -47v-105h155zM1084 369
q-75 0 -152 13q-113 18 -123 54l-25 93l38 29l-8 28l-39 -27l-12 58l38 28l-8 29l-39 -26l-10 47l32 21l-6 33l-34 -22l-10 48l32 22l-6 30l-33 -21l-10 49l31 20l-8 32l-31 -21l-7 47l24 17l-6 31l-26 -17l-12 52l30 19l-8 30l-28 -18l-12 44l26 19l-5 29l-26 -17
q-4 26 -4 47q0 110 191 157l54 -41q11 0 11 17q0 22 -26 34l40 7q4 -1 28 -21.5t27 -20.5q13 0 13 15q0 21 -27 32l36 6l50 -43q12 0 12 17q0 18 -17 28l31 2q49 -44 52 -44q12 0 12 16q0 17 -16 29q70 -5 91 -78l-141 -6l5 -29l132 12q13 -7 22.5 -14t9.5 -28q0 -6 -8 -22
l-142 -11l4 -27l137 11q22 -19 22 -27l-8 -24l-141 -10l7 -28l148 12v1q11 -5 11 -18q0 -8 -4 -18.5t-4 -16.5l-100 -4l11 -27l97 6q15 -18 15 -28q0 -4 -11 -20l-99 -7l-5 -29l110 7q17 -24 18 -29q-5 -17 -13 -26l-104 -4l3 -24l112 4l13 -9q0 -22 -11 -31l-111 -9l6 -26
l113 9q17 -29 22 -51l-1 13l-124 -10l7 -25l115 9q35 -32 35 -128v-35q-1 -90 -95 -146q-82 -49 -178 -49zM1123 22h-26v199h26v-199zM994 158q-22 0 -22 26q0 27 22 27q20 0 20 -27q0 -26 -20 -26zM1112 941q33 0 33 41q0 52 -40 52q-34 0 -34 -43q0 -50 41 -50zM731 1141
l73 47q51 34 113 40l95 9l-4 23l-96 -7q-66 -5 -118 -43l-69 -49zM747 1070l69 46q44 27 100 30.5t110 6.5l-5 25l-107 -7q-65 -5 -110 -37l-64 -48zM765 985l79 50q24 16 48 22l147 16l-6 30l-100 -9q-63 -6 -101 -33.5t-74 -53.5zM787 910l80 55q25 17 75 22l82 9l9 26
q-46 -2 -95 -5.5t-79 -26.5l-77 -61zM1272 431q31 16 54 57q26 52 26 81q0 44 -14 44q-28 0 -28 -11q0 -3 7 -18t7 -25q0 -35 -25 -80zM804 833l80 57q28 20 72 24l100 9l-17 26q-44 -3 -88.5 -7t-74.5 -26l-78 -61zM831 752l80 56q34 23 85 29.5t103 11.5l-8 26l-104 -13
q-58 -8 -86 -30l-77 -56zM1206 413q22 0 55.5 55.5t33.5 80.5q0 58 -28 58q-22 0 -22 -13q0 -8 9 -23.5t9 -24.5q0 -11 -36.5 -64.5t-36.5 -62.5q0 -6 16 -6zM846 673q44 28 90 57.5t93.5 35t94.5 10.5l-7 25l-92 -9q-58 -6 -93 -30l-92 -64zM870 591q49 35 96.5 68t82.5 39
l90 11l-7 26q-48 -8 -96.5 -15.5t-85.5 -34.5l-86 -68zM1123 395q20 0 56.5 66t36.5 88q0 54 -40 54q-10 0 -10 -9q0 -8 6 -24t6 -24q0 -14 -34 -73t-34 -69q0 -9 13 -9zM1042 395q19 0 54.5 61.5t35.5 81.5q0 56 -32 56q-18 0 -18 -8q0 -9 5.5 -25t5.5 -24q0 -15 -32 -71.5
t-32 -64.5q0 -6 13 -6zM963 401q17 0 49 59t32 78q0 60 -30 60q-16 0 -16 -10q0 -8 4.5 -23t4.5 -24q0 -16 -30.5 -71t-30.5 -61q0 -8 17 -8zM1735 -334h-1469q-101 0 -173 72t-72 174v1469q0 101 72 173t173 72h1469q102 0 174 -72t72 -173v-1469q0 -102 -72 -174t-174 -72
z" />
    <glyph glyph-name="currency" unicode="&#xa4;" 
d="M995 1273l-148 -457h-479l379 -282l-139 -466l387 280l400 -280l-147 452l380 296h-473zM995 1061l85 -245h-158zM567 747h253l-46 -153zM895 747h199l74 -193l-173 -120l-161 113zM1175 747h254l-208 -153zM727 235l87 246l122 -95zM1060 386l127 95l82 -246zM1735 -334
h-1469q-101 0 -173 72t-72 174v1469q0 101 72 173t173 72h1469q102 0 174 -72t72 -173v-1469q0 -102 -72 -174t-174 -72z" />
    <glyph glyph-name="yen" unicode="&#xa5;" 
d="M1633 737q21 0 35.5 15t14.5 37t-14.5 37t-35.5 15t-36 -15t-15 -37t15 -37t36 -15zM1633 752q-15 0 -24.5 10.5t-9.5 26.5t9.5 26.5t24.5 10.5t25.5 -10.5t10.5 -26.5t-10.5 -26.5t-25.5 -10.5zM1657 765l-10 19q8 3 8 13q-1 16 -18 16h-22v-48h15v17h4l7 -17h16z
M1634 791h-4v12q9 0 9 -6t-5 -6zM568 749q16 0 27.5 11.5t11.5 27.5q0 15 -11.5 26.5t-27.5 11.5q-15 0 -26.5 -11.5t-11.5 -26.5q0 -16 11.5 -27.5t26.5 -11.5zM639 485v58h-30v181h-177q0 23 7.5 29t26.5 6l20 -1v62l-29 1q-105 0 -105 -98h-32v-58h32v-122h-30v-58h146
v58h-36v122h97v-122h-30v-58h140zM817 485l66 180h26v59h-126v-59h21q-30 -94 -35 -116l-1 5q-2 12 -34 111h22v59h-126v-59h26l66 -180h95zM1040 479q54 0 102 34l-29 55q-37 -21 -67 -21q-46 0 -55 43h151l1 24q0 50 -29 82.5t-81 32.5q-58 0 -91 -36t-33 -88
q0 -48 33.5 -87t97.5 -39zM1060 634h-68q8 35 38 35q13 0 21.5 -10t8.5 -25zM1519 485v58h-34v35q0 71 67 71l16 -2v81q-69 0 -85 -59v25q-2 30 -35 30h-75v-57h22q11 -2 11 -12v-112h-33v-58h146zM1307 485v58h-32v35q0 71 65 71l17 -2v81q-69 0 -87 -59v25q-1 30 -32 30
h-76v-57h22q9 -2 9 -12v-112h-31v-58h145zM1735 -334h-1469q-101 0 -173 72t-72 174v1469q0 101 72 173t173 72h1469q102 0 174 -72t72 -173v-1469q0 -102 -72 -174t-174 -72z" />
    <glyph glyph-name="brokenbar" unicode="&#xa6;" 
d="M1003 103q225 0 384 159t159 386q0 225 -159 384t-384 159q-227 0 -386 -159t-159 -384q0 -227 159 -386t386 -159zM1003 3q265 0 454 189t189 456q0 265 -189 454t-454 189h-18q-267 -13 -447 -197.5t-180 -445.5q0 -267 189 -456t456 -189zM1003 877q-39 0 -67 27.5
t-28 65.5q0 39 28 66t67 27q37 0 65 -27t28 -66q0 -38 -28 -65.5t-65 -27.5zM1099 231h-194v309h-58v257q0 53 47 53h216q47 0 47 -53v-257h-58v-309zM1735 -334h-1469q-101 0 -173 72t-72 174v1469q0 101 72 173t173 72h1469q102 0 174 -72t72 -173v-1469q0 -102 -72 -174
t-174 -72z" />
    <glyph glyph-name="section" unicode="&#xa7;" 
d="M1517 25q14 0 23 13q5 7 5 17q-3 11 -516 1195q-10 17 -27 17t-26 -17q-519 -1190 -519 -1197t4 -15q10 -13 24 -13h459v253l-123 84l20 30l103 -72v202h116v-133l107 54l15 -31l-122 -62v-98l196 99l15 -32l-211 -106v-188h457zM1735 -334h-1469q-101 0 -173 72t-72 174
v1469q0 101 72 173t173 72h1469q102 0 174 -72t72 -173v-1469q0 -102 -72 -174t-174 -72z" />
    <glyph glyph-name="dieresis" unicode="&#xa8;" 
d="M741 253q178 0 303 143q3 3 3 7l-1 4q-52 119 -57 119q-6 0 -9 -5q-89 -145 -239 -145q-111 0 -190.5 79.5t-79.5 191.5q0 111 79.5 190t190.5 79q162 0 246 -161l138 -311q76 -186 259 -186q119 0 195 66.5t76 166.5t-52.5 148.5t-149.5 77.5l-25 7q-82 28 -104 41
q-35 19 -35 67q0 39 27 63.5t68 24.5q62 0 101 -56q1 -4 4 -4h4q3 0 46 22.5t45 25.5l-2 8q-63 116 -194 116q-217 -19 -217 -203q0 -94 60.5 -142.5t174.5 -85.5q65 -19 96 -39t31 -67q0 -53 -41.5 -85.5t-103.5 -32.5q-69 0 -102 35t-56 95q-48 108 -105 243l-21 47
q-117 242 -363 242q-163 0 -278.5 -115t-115.5 -277q0 -164 115.5 -279t278.5 -115zM1735 -334h-1469q-101 0 -173 72t-72 174v1469q0 101 72 173t173 72h1469q102 0 174 -72t72 -173v-1469q0 -102 -72 -174t-174 -72z" />
    <glyph glyph-name="copyright" unicode="&#xa9;" 
d="M659 240l173 2q73 2 160 2q240 0 261 -1l3 60q-11 1 -97 1q-76 0 -95 3q-5 156 -5 209q0 26 1 35q19 45 175 169q148 120 184 134q8 1 20 3.5t109 2.5l54 78h-1l4 6h-533l20 -84h147l-246 -221q-212 279 -249 332h184q0 64 1 77q0 2 -1 2v5h-608v-84h180q39 -33 119 -127
q202 -236 230 -296q4 -56 4 -120q0 -94 -9 -109q-25 -21 -127 -21q-38 0 -48 -2zM1589 388l95 368q-11 0 -49.5 3.5t-78.5 8t-51 6.5l2 -379zM1580 239l12 88q-49 3 -99 9v-90zM1735 -334h-1469q-101 0 -173 72t-72 174v1469q0 101 72 173t173 72h1469q102 0 174 -72
t72 -173v-1469q0 -102 -72 -174t-174 -72z" />
    <glyph glyph-name="ordfeminine" unicode="&#xaa;" 
d="M812 192l127 436q-26 18 -55 34q-76 47 -181 47h-24q-117 -13 -221 -55l-123 -429q138 53 233 53q156 0 244 -86zM1143 58q102 0 251 59l119 415q-135 -45 -232 -45q-171 0 -268 87l-123 -427q2 -1 41.5 -23t98.5 -44t113 -22zM963 728l126 429q0 6 -84 44
q-78 37 -166 37q-94 0 -230 -54l-122 -427q139 55 239 55q145 -10 237 -84zM1308 587q107 0 237 57l123 425q-136 -54 -238 -54q-161 0 -263 87l-126 -431h1v-2q105 -82 266 -82zM1735 -334h-1469q-101 0 -173 72t-72 174v1469q0 101 72 173t173 72h1469q102 0 174 -72
t72 -173v-1469q0 -102 -72 -174t-174 -72z" />
    <glyph glyph-name="guillemotleft" unicode="&#xab;" 
d="M1614 1301h-1235q-10 0 -18.5 -7.5t-8.5 -18.5v-1234q0 -11 8.5 -19.5t18.5 -8.5h1235q10 0 18.5 8.5t8.5 19.5v1234q0 11 -8.5 18.5t-18.5 7.5zM997 67v591h-590v589h590v-589h589v-591h-589zM1735 -334h-1469q-101 0 -173 72t-72 174v1469q0 101 72 173t173 72h1469
q102 0 174 -72t72 -173v-1469q0 -102 -72 -174t-174 -72z" />
    <glyph glyph-name="logicalnot" unicode="&#xac;" 
d="M1263 798v430q-128 58 -267 58q-115 0 -226 -42zM664 88v556l-266 -242q82 -200 266 -314zM374 472l572 520l-243 222q-353 -209 -353 -574q0 -83 24 -168zM1056 -3q354 44 521 362h-845v-308q99 -44 205 -54h119zM1606 428q36 104 36 212q0 336 -311 551v-763h275z
M1735 -334h-1469q-101 0 -173 72t-72 174v1469q0 101 72 173t173 72h1469q102 0 174 -72t72 -173v-1469q0 -102 -72 -174t-174 -72z" />
    <glyph glyph-name="registered" unicode="&#xae;" 
d="M545 1298v-1158l261 -146l651 376v295l-579 203l115 -283l179 -84l-366 -211v917zM1735 -334h-1469q-101 0 -173 72t-72 174v1469q0 101 72 173t173 72h1469q102 0 174 -72t72 -173v-1469q0 -102 -72 -174t-174 -72z" />
    <glyph glyph-name="macron" unicode="&#xaf;" 
d="M1066 606l255 365l-362 -258zM1001 12q264 0 450.5 186.5t186.5 452.5q0 263 -186.5 450.5t-450.5 187.5q-265 0 -452 -187.5t-187 -450.5q0 -266 187 -452.5t452 -186.5zM633 265q-14 0 -14 9q0 6 308 449q3 1 223 157.5t226 156.5q11 0 11 -12q0 -5 -308 -447
q-3 -2 -223 -157.5t-223 -155.5zM1735 -334h-1469q-101 0 -173 72t-72 174v1469q0 101 72 173t173 72h1469q102 0 174 -72t72 -173v-1469q0 -102 -72 -174t-174 -72z" />
    <glyph glyph-name="degree" unicode="&#xb0;" 
d="M1000 1241q-236 0 -404.5 -158.5t-189.5 -396.5h429v104q0 8 5 12.5t13 4.5h285q8 0 12.5 -4.5t4.5 -12.5v-285q0 -8 -4.5 -12.5t-12.5 -4.5h-285q-8 0 -13 4.5t-5 12.5v103h-429q20 -238 188.5 -397t405.5 -159q246 0 420.5 174t174.5 421q0 245 -174.5 419.5
t-420.5 174.5zM1735 -334h-1469q-101 0 -173 72t-72 174v1469q0 101 72 173t173 72h1469q102 0 174 -72t72 -173v-1469q0 -102 -72 -174t-174 -72z" />
    <glyph glyph-name="plusminus" unicode="&#xb1;" 
d="M1300 54q52 0 99 19q134 58 158 201q5 22 5 44q0 44 -33 130q-215 451 -301 614l-33 66q-68 137 -195 137q-126 0 -199 -139q-13 -29 -32 -61q-334 -648 -334 -753q13 -174 160 -239q48 -19 99 -19q148 0 303 170q152 -170 303 -170zM997 340q-127 163 -127 275
q0 45 22 77q38 52 105 52q68 0 107 -52q23 -33 23 -81q0 -108 -130 -271zM1302 127q-117 2 -251 151q153 193 153 344q0 60 -33 110q-67 86 -174 86q-104 0 -169 -86q-35 -50 -36 -119q0 -141 156 -335q-134 -151 -255 -151q-36 0 -68 14q-105 48 -113 164q0 95 334 737
q38 74 56 98q42 46 99 46q84 0 131 -98q19 -35 31 -61q141 -277 275 -566q19 -45 27 -57q20 -46 20 -90q0 -122 -114 -172q-33 -15 -69 -15zM1735 -334h-1469q-101 0 -173 72t-72 174v1469q0 101 72 173t173 72h1469q102 0 174 -72t72 -173v-1469q0 -102 -72 -174t-174 -72z
" />
    <glyph glyph-name="uni00B2" unicode="&#xb2;" 
d="M1290 746q58 162 87 263q30 101 30 139q0 50 -27 80q-26 29 -70 29q-90 0 -214 -358q-17 -49 -27 -75q-10 33 -32 95q-124 361 -204 361q-48 0 -76 -31q-27 -32 -27 -85q0 -39 30 -141q30 -101 97 -289q-23 13 -40 18q-18 6 -33 6q-36 0 -77 -41q-41 -40 -41 -79
q0 -11 7 -32q5 -20 18 -50q-68 -15 -100 -56q-32 -40 -32 -114q0 -66 31 -129q30 -64 93 -120q54 -51 129 -81q76 -29 155 -29q203 0 334 138q130 138 130 356q0 108 -32 159t-109 66zM674 395q-5 -5 -8 -13q-1 -7 -1 -16q0 -51 55 -104q56 -53 110 -53q35 0 60 23
q24 23 24 55q0 5 -1 14t-4 19q9 -3 16 -5t15 -2t14 4q6 3 13 8v-8q0 -69 23 -111q22 -42 59 -45l2 8v6q0 11 -14 50q-13 40 -13 68q0 47 31 98q32 53 83 91q24 17 71 35q44 18 60 32q-3 18 -11 27q-7 8 -19 8h-36q-145 0 -211 26q-65 27 -65 86q0 24 13 34t43 10
q112 0 214 -23q101 -23 137 -52q20 -15 28 -50q9 -33 9 -91q0 -189 -114 -314q-112 -124 -280 -124q-92 0 -166 36q-76 37 -127 104q-33 44 -51 87q-18 44 -18 80q0 43 26 75q25 32 55 32q14 0 37 -19q23 -21 57 -64q30 -38 48 -69q16 -29 16 -42q0 -12 -12 -22
q-13 -10 -30 -10q-47 0 -105 78q-21 28 -33 43zM932 375q-20 0 -53 28q-34 28 -72 79q-36 46 -57 87q-22 42 -22 63q0 19 22 42q23 23 40 23q22 0 48 -22q24 -21 50 -65q35 -58 60 -118q23 -60 23 -75q0 -17 -12 -29q-13 -13 -27 -13zM1017 790q-36 3 -51 4q-16 1 -21 1
q-16 0 -25 -3q-11 -4 -16 -14q-60 159 -89 257q-31 98 -31 138q0 23 12 37q11 14 29 14q23 0 42 -32q21 -31 56 -133zM1114 529q-26 -16 -49 -38q-21 -20 -43 -46q-7 27 -17 54q-11 28 -25 55q30 -12 64 -17q33 -6 70 -8zM1228 761l-109 19l87 248q29 88 55 129q24 40 49 40
q19 0 29 -14q11 -14 11 -39q0 -23 -32 -125q-33 -102 -90 -258zM1735 -334h-1469q-101 0 -173 72t-72 174v1469q0 101 72 173t173 72h1469q102 0 174 -72t72 -173v-1469q0 -102 -72 -174t-174 -72z" />
    <glyph glyph-name="uni00B3" unicode="&#xb3;" 
d="M519 344q137 91 176 91l130 -18l-2 47q0 157 114 259q129 124 306 124q-6 110 -73 188q-138 180 -374 180q-335 0 -427 -303q-15 -55 -15 -106q0 -172 171 -299q21 -18 24 -40q0 -8 -8.5 -29t-12 -47.5t-9.5 -46.5zM639 847q-53 3 -53 54q3 53 56 53q53 -3 53 -56
q-3 -51 -56 -51zM983 847q-53 0 -56 53q0 51 55 54q53 -2 54 -53q-1 -53 -53 -54zM1510 103q0 26 -9 39.5t-9 26.5q0 34 37 71q108 92 108 236q0 99 -68 188q-119 144 -325 144q-111 0 -217 -65q-157 -109 -157 -276q0 -127 112.5 -233.5t258.5 -106.5q46 0 89 14.5t76 14.5
q65 -14 104 -53zM1080 521q-41 0 -41 57q0 33 41 33q45 0 45 -45t-45 -45zM1359 522q-44 2 -44 44q0 44 44 45q44 -1 44 -46q-3 -41 -44 -43zM1735 -334h-1469q-101 0 -173 72t-72 174v1469q0 101 72 173t173 72h1469q102 0 174 -72t72 -173v-1469q0 -102 -72 -174t-174 -72
z" />
    <glyph glyph-name="acute" unicode="&#xb4;" 
d="M999 1280q-202 0 -344.5 -142.5t-142.5 -344.5q0 -182 101.5 -357t219.5 -289.5t166 -114.5q49 0 167 114.5t220 289.5t102 357q0 202 -143.5 344.5t-345.5 142.5zM999 495q-121 0 -208 87t-87 210q0 97 56 172q4 -47 38 -79.5t81 -32.5q50 0 84.5 35t34.5 85
q0 70 -67 107q34 8 68 8q123 0 210 -87t87 -208q0 -123 -87 -210t-210 -87zM1735 -334h-1469q-101 0 -173 72t-72 174v1469q0 101 72 173t173 72h1469q102 0 174 -72t72 -173v-1469q0 -102 -72 -174t-174 -72z" />
    <glyph glyph-name="mu" unicode="&#xb5;" 
d="M1472 725q-6 155 -112.5 258.5t-258.5 103.5q-210 0 -325 -192q-43 25 -96 25q-78 0 -132.5 -51.5t-62.5 -128.5q-172 -83 -172 -257q0 -115 81 -196.5t196 -81.5h838q108 0 184.5 76.5t76.5 184.5q0 98 -61 169t-156 90zM1735 -334h-1469q-101 0 -173 72t-72 174v1469
q0 101 72 173t173 72h1469q102 0 174 -72t72 -173v-1469q0 -102 -72 -174t-174 -72z" />
    <glyph glyph-name="paragraph" unicode="&#xb6;" 
d="M973 857h-93v-193h84q82 0 114 17.5t32 86.5q0 57 -26 73t-111 16zM1376 1273h-759q-105 0 -179 -74.5t-74 -178.5v-759q0 -105 74 -179t179 -74h759q104 0 178.5 74t74.5 179v759q0 104 -74.5 178.5t-178.5 74.5zM1007 551h-127v-239h-136v657h248q102 0 179.5 -30.5
t77.5 -175.5q0 -140 -72 -176t-170 -36zM1735 -334h-1469q-101 0 -173 72t-72 174v1469q0 101 72 173t173 72h1469q102 0 174 -72t72 -173v-1469q0 -102 -72 -174t-174 -72z" />
    <glyph glyph-name="periodcentered" unicode="&#xb7;" 
d="M1241 717q1 0 362 242q0 21 -15.5 35.5t-26.5 14.5h-409v-239q85 -53 89 -53zM1538 357q26 0 45.5 16t19.5 52v438l-37 -26q-37 -24 -90.5 -59t-105.5 -70.5t-86.5 -57.5t-33 -21.5t-1 -1t-5.5 -2t-7 -0.5t-85 55v-323h386zM746 526q39 0 61.5 34.5t22.5 95.5
q0 64 -21.5 99t-59.5 35q-39 0 -62 -36.5t-23 -96.5t23 -95.5t59 -35.5zM1097 48v1218l-709 -137v-932zM745 445q-71 0 -114.5 57.5t-43.5 149.5q0 97 44.5 157.5t118.5 60.5q70 0 113.5 -57.5t43.5 -150.5q0 -98 -44.5 -157.5t-117.5 -59.5zM1735 -334h-1469
q-101 0 -173 72t-72 174v1469q0 101 72 173t173 72h1469q102 0 174 -72t72 -173v-1469q0 -102 -72 -174t-174 -72z" />
    <glyph glyph-name="periodcentered" unicode="&#x2219;" 
d="M1241 717q1 0 362 242q0 21 -15.5 35.5t-26.5 14.5h-409v-239q85 -53 89 -53zM1538 357q26 0 45.5 16t19.5 52v438l-37 -26q-37 -24 -90.5 -59t-105.5 -70.5t-86.5 -57.5t-33 -21.5t-1 -1t-5.5 -2t-7 -0.5t-85 55v-323h386zM746 526q39 0 61.5 34.5t22.5 95.5
q0 64 -21.5 99t-59.5 35q-39 0 -62 -36.5t-23 -96.5t23 -95.5t59 -35.5zM1097 48v1218l-709 -137v-932zM745 445q-71 0 -114.5 57.5t-43.5 149.5q0 97 44.5 157.5t118.5 60.5q70 0 113.5 -57.5t43.5 -150.5q0 -98 -44.5 -157.5t-117.5 -59.5zM1735 -334h-1469
q-101 0 -173 72t-72 174v1469q0 101 72 173t173 72h1469q102 0 174 -72t72 -173v-1469q0 -102 -72 -174t-174 -72z" />
    <glyph glyph-name="cedilla" unicode="&#xb8;" 
d="M1088 19q201 0 376 86q10 4 10 15v258h-3q-4 -1 -7 -2.5t-3 -4.5q-154 -87 -325 -87q-50 0 -101 7q-108 12 -189 93q-64 68 -64 166h800v118q0 147 -43 257q-68 184 -235 283q-138 79 -291 79q-286 0 -459 -209q-115 -144 -141 -327l-3 -26l14 19q123 183 344 264
q96 38 196 38q37 0 74 -5q95 -12 150 -94q41 -70 41 -149l-1 -21h-450q14 111 87 198h-5q-303 -150 -303 -455q0 -46 6 -94q76 -323 400 -396q62 -11 125 -11zM1735 -334h-1469q-101 0 -173 72t-72 174v1469q0 101 72 173t173 72h1469q102 0 174 -72t72 -173v-1469
q0 -102 -72 -174t-174 -72z" />
    <glyph glyph-name="uni00B9" unicode="&#xb9;" 
d="M1257 296l386 -193h1v1v820zM1233 1201l-273 -442l262 -427l412 668zM802 523l355 -177l-355 578v-401zM356 313q0 -4 3.5 -9.5t7.5 -8.5l384 -192v0h1v1v891l-396 198v-880zM1735 -334h-1469q-101 0 -173 72t-72 174v1469q0 101 72 173t173 72h1469q102 0 174 -72
t72 -173v-1469q0 -102 -72 -174t-174 -72z" />
    <glyph glyph-name="ordmasculine" unicode="&#xba;" 
 />
    <glyph glyph-name="guillemotright" unicode="&#xbb;" 
 />
    <glyph glyph-name="onequarter" unicode="&#xbc;" 
d="M1004 621q6 0 254.5 248t248.5 253t-5 10q-87 87 -94 87q-6 0 -404 -398q-155 154 -160 154q-6 0 -51.5 -45.5t-45.5 -51.5q0 -5 126 -131t131 -126zM1582 32q43 0 73 30.5t30 71.5q0 658 -5 675q-11 32 -37 52l-206 148l-39 -39q216 -157 216.5 -158.5t2.5 -1.5v-1h1
l1 -4q0 -2 -1 -5.5t-1242 -759.5q19 -8 41 -8h1165zM350 56l636 387l-603 367l588 426q15 10 29 10t28 -10l205 -148l39 39l-213 154q-29 20 -59 20t-61 -20l-582 -420q-27 -20 -37 -52q-6 -17 -6 -32v-643q0 -46 36 -78zM1735 -334h-1469q-101 0 -173 72t-72 174v1469
q0 101 72 173t173 72h1469q102 0 174 -72t72 -173v-1469q0 -102 -72 -174t-174 -72z" />
    <glyph glyph-name="onehalf" unicode="&#xbd;" 
 />
    <glyph glyph-name="threequarters" unicode="&#xbe;" 
 />
    <glyph glyph-name="questiondown" unicode="&#xbf;" 
 />
    <glyph glyph-name="Agrave" unicode="&#xc0;" horiz-adv-x="2406" 
 />
    <glyph glyph-name="Aacute" unicode="&#xc1;" horiz-adv-x="2406" 
 />
    <glyph glyph-name="Acircumflex" unicode="&#xc2;" horiz-adv-x="1540" 
 />
    <glyph glyph-name="Atilde" unicode="&#xc3;" horiz-adv-x="1981" 
 />
    <glyph glyph-name="Adieresis" unicode="&#xc4;" 
 />
    <glyph glyph-name="Aring" unicode="&#xc5;" horiz-adv-x="1999" 
 />
    <glyph glyph-name="AE" unicode="&#xc6;" 
 />
    <glyph glyph-name="Ccedilla" unicode="&#xc7;" 
 />
    <glyph glyph-name="Egrave" unicode="&#xc8;" horiz-adv-x="1151" 
 />
    <glyph glyph-name="Eacute" unicode="&#xc9;" horiz-adv-x="1151" 
 />
    <glyph glyph-name="Ecircumflex" unicode="&#xca;" horiz-adv-x="1151" 
 />
    <glyph glyph-name="Edieresis" unicode="&#xcb;" horiz-adv-x="1151" 
 />
    <glyph glyph-name="Igrave" unicode="&#xcc;" horiz-adv-x="657" 
 />
    <glyph glyph-name="Iacute" unicode="&#xcd;" horiz-adv-x="657" 
 />
    <glyph glyph-name="Icircumflex" unicode="&#xce;" horiz-adv-x="657" 
 />
    <glyph glyph-name="Idieresis" unicode="&#xcf;" horiz-adv-x="657" 
 />
    <glyph glyph-name="Eth" unicode="&#xd0;" horiz-adv-x="1518" 
 />
    <glyph glyph-name="Ntilde" unicode="&#xd1;" horiz-adv-x="1554" 
 />
    <glyph glyph-name="Ograve" unicode="&#xd2;" horiz-adv-x="1614" 
 />
    <glyph glyph-name="Oacute" unicode="&#xd3;" horiz-adv-x="1614" 
 />
    <glyph glyph-name="Ocircumflex" unicode="&#xd4;" horiz-adv-x="1614" 
 />
    <glyph glyph-name="Otilde" unicode="&#xd5;" horiz-adv-x="1614" 
 />
    <glyph glyph-name="Odieresis" unicode="&#xd6;" horiz-adv-x="1614" 
 />
    <glyph glyph-name="multiply" unicode="&#xd7;" horiz-adv-x="1014" 
 />
    <glyph glyph-name="Oslash" unicode="&#xd8;" horiz-adv-x="1614" 
 />
    <glyph glyph-name="Ugrave" unicode="&#xd9;" horiz-adv-x="1501" 
 />
    <glyph glyph-name="Uacute" unicode="&#xda;" horiz-adv-x="1501" 
 />
    <glyph glyph-name="Ucircumflex" unicode="&#xdb;" horiz-adv-x="1501" 
 />
    <glyph glyph-name="Udieresis" unicode="&#xdc;" horiz-adv-x="1501" 
 />
    <glyph glyph-name="Yacute" unicode="&#xdd;" horiz-adv-x="1233" 
 />
    <glyph glyph-name="Thorn" unicode="&#xde;" horiz-adv-x="1120" 
 />
    <glyph glyph-name="germandbls" unicode="&#xdf;" horiz-adv-x="1251" 
 />
    <glyph glyph-name="agrave" unicode="&#xe0;" horiz-adv-x="922" 
 />
    <glyph glyph-name="aacute" unicode="&#xe1;" horiz-adv-x="922" 
 />
    <glyph glyph-name="acircumflex" unicode="&#xe2;" horiz-adv-x="922" 
 />
    <glyph glyph-name="atilde" unicode="&#xe3;" horiz-adv-x="922" 
 />
    <glyph glyph-name="adieresis" unicode="&#xe4;" horiz-adv-x="922" 
 />
    <glyph glyph-name="aring" unicode="&#xe5;" horiz-adv-x="922" 
 />
    <glyph glyph-name="ae" unicode="&#xe6;" horiz-adv-x="1454" 
 />
    <glyph glyph-name="ccedilla" unicode="&#xe7;" horiz-adv-x="905" 
 />
    <glyph glyph-name="egrave" unicode="&#xe8;" horiz-adv-x="909" 
 />
    <glyph glyph-name="eacute" unicode="&#xe9;" horiz-adv-x="909" 
 />
    <glyph glyph-name="ecircumflex" unicode="&#xea;" horiz-adv-x="909" 
 />
    <glyph glyph-name="edieresis" unicode="&#xeb;" horiz-adv-x="909" 
 />
    <glyph glyph-name="igrave" unicode="&#xec;" horiz-adv-x="514" 
 />
    <glyph glyph-name="iacute" unicode="&#xed;" horiz-adv-x="514" 
 />
    <glyph glyph-name="icircumflex" unicode="&#xee;" horiz-adv-x="514" 
 />
    <glyph glyph-name="idieresis" unicode="&#xef;" horiz-adv-x="514" 
 />
    <glyph glyph-name="eth" unicode="&#xf0;" horiz-adv-x="1139" 
 />
    <glyph glyph-name="ntilde" unicode="&#xf1;" horiz-adv-x="1108" 
 />
    <glyph glyph-name="ograve" unicode="&#xf2;" horiz-adv-x="1010" 
 />
    <glyph glyph-name="oacute" unicode="&#xf3;" horiz-adv-x="1010" 
 />
    <glyph glyph-name="ocircumflex" unicode="&#xf4;" horiz-adv-x="1010" 
 />
    <glyph glyph-name="otilde" unicode="&#xf5;" horiz-adv-x="1010" 
 />
    <glyph glyph-name="odieresis" unicode="&#xf6;" horiz-adv-x="1010" 
 />
    <glyph glyph-name="divide" unicode="&#xf7;" horiz-adv-x="1014" 
 />
    <glyph glyph-name="oslash" unicode="&#xf8;" horiz-adv-x="1010" 
 />
    <glyph glyph-name="ugrave" unicode="&#xf9;" horiz-adv-x="1059" 
 />
    <glyph glyph-name="uacute" unicode="&#xfa;" horiz-adv-x="1059" 
 />
    <glyph glyph-name="ucircumflex" unicode="&#xfb;" horiz-adv-x="1059" 
 />
    <glyph glyph-name="udieresis" unicode="&#xfc;" horiz-adv-x="1059" 
 />
    <glyph glyph-name="yacute" unicode="&#xfd;" horiz-adv-x="868" 
 />
    <glyph glyph-name="thorn" unicode="&#xfe;" horiz-adv-x="1010" 
 />
    <glyph glyph-name="ydieresis" unicode="&#xff;" horiz-adv-x="868" 
 />
    <glyph glyph-name="dotlessi" unicode="&#x131;" horiz-adv-x="514" 
 />
    <glyph glyph-name="circumflex" unicode="&#x2c6;" horiz-adv-x="1024" 
 />
    <glyph glyph-name="caron" unicode="&#x2c7;" horiz-adv-x="1024" 
 />
    <glyph glyph-name="uni02C9" unicode="&#x2c9;" horiz-adv-x="1024" 
 />
    <glyph glyph-name="breve" unicode="&#x2d8;" horiz-adv-x="1024" 
 />
    <glyph glyph-name="dotaccent" unicode="&#x2d9;" horiz-adv-x="1024" 
 />
    <glyph glyph-name="ring" unicode="&#x2da;" horiz-adv-x="1024" 
 />
    <glyph glyph-name="ogonek" unicode="&#x2db;" horiz-adv-x="1024" 
 />
    <glyph glyph-name="tilde" unicode="&#x2dc;" horiz-adv-x="1024" 
 />
    <glyph glyph-name="hungarumlaut" unicode="&#x2dd;" horiz-adv-x="1024" 
 />
    <glyph glyph-name="endash" unicode="&#x2013;" horiz-adv-x="1108" 
 />
    <glyph glyph-name="emdash" unicode="&#x2014;" horiz-adv-x="2048" 
 />
    <glyph glyph-name="quoteleft" unicode="&#x2018;" horiz-adv-x="557" 
 />
    <glyph glyph-name="quoteright" unicode="&#x2019;" horiz-adv-x="557" 
 />
    <glyph glyph-name="quotesinglbase" unicode="&#x201a;" 
 />
    <glyph glyph-name="quotedblleft" unicode="&#x201c;" horiz-adv-x="910" 
 />
    <glyph glyph-name="quotedblright" unicode="&#x201d;" horiz-adv-x="910" 
 />
    <glyph glyph-name="quotedblbase" unicode="&#x201e;" horiz-adv-x="910" 
 />
    <glyph glyph-name="dagger" unicode="&#x2020;" horiz-adv-x="1014" 
 />
    <glyph glyph-name="daggerdbl" unicode="&#x2021;" horiz-adv-x="1014" 
 />
    <glyph glyph-name="bullet" unicode="&#x2022;" horiz-adv-x="1024" 
 />
    <glyph glyph-name="ellipsis" unicode="&#x2026;" horiz-adv-x="2048" 
 />
    <glyph glyph-name="guilsinglleft" unicode="&#x2039;" horiz-adv-x="631" 
 />
    <glyph glyph-name="guilsinglright" unicode="&#x203a;" horiz-adv-x="631" 
 />
    <glyph glyph-name="fraction" unicode="&#x2044;" 
 />
    <glyph glyph-name="fraction" unicode="&#x2215;" 
 />
    <glyph glyph-name="franc" unicode="&#x20a3;" 
 />
    <glyph glyph-name="lira" unicode="&#x20a4;" 
 />
    <glyph glyph-name="peseta" unicode="&#x20a7;" 
 />
    <glyph glyph-name="Euro" unicode="&#x20ac;" horiz-adv-x="1014" 
 />
    <glyph glyph-name="uni2116" unicode="&#x2116;" horiz-adv-x="2271" 
 />
    <glyph glyph-name="trademark" unicode="&#x2122;" horiz-adv-x="1497" 
 />
    <glyph glyph-name="partialdiff" unicode="&#x2202;" horiz-adv-x="1014" 
 />
    <glyph glyph-name="Delta" unicode="&#x2206;" horiz-adv-x="1081" 
 />
    <glyph glyph-name="product" unicode="&#x220f;" horiz-adv-x="1515" 
 />
    <glyph glyph-name="summation" unicode="&#x2211;" horiz-adv-x="1206" 
 />
    <glyph glyph-name="minus" unicode="&#x2212;" horiz-adv-x="1014" 
 />
    <glyph glyph-name="radical" unicode="&#x221a;" horiz-adv-x="1014" 
 />
    <glyph glyph-name="infinity" unicode="&#x221e;" horiz-adv-x="1014" 
 />
    <glyph glyph-name="integral" unicode="&#x222b;" horiz-adv-x="665" 
 />
    <glyph glyph-name="approxequal" unicode="&#x2248;" horiz-adv-x="1014" 
 />
    <glyph glyph-name="lessequal" unicode="&#x2264;" horiz-adv-x="1014" 
 />
    <glyph glyph-name="greaterequal" unicode="&#x2265;" horiz-adv-x="1014" 
 />
    <glyph glyph-name="uniF001" unicode="&#xf001;" horiz-adv-x="1073" 
 />
    <glyph glyph-name="uniF001" unicode="&#xfb01;" horiz-adv-x="1073" 
 />
    <glyph glyph-name="uniF002" unicode="&#xf002;" horiz-adv-x="1081" 
 />
    <glyph glyph-name="uniF002" unicode="&#xfb02;" horiz-adv-x="1081" 
 />
  </font>
</defs>
</svg>
